<?xml version="1.0" encoding="utf-8"?><svg xmlns="http://www.w3.org/2000/svg" xmlns:xlink="http://www.w3.org/1999/xlink"><symbol viewBox="0 0 54 54" id="adaptive" xmlns="http://www.w3.org/2000/svg"><path d="M27.844 15.188h-1.688v1.687h1.688v-1.688zm-3.375 0H22.78v1.687h1.688v-1.688zm6.75 0H29.53v1.687h1.688v-1.688zM10.969 47.25H9.28v1.688h1.688V47.25zm3.375 0h-1.688v1.688h1.688V47.25zm3.375 0H16.03v1.688h1.688V47.25z"/><path d="M49.781 1.688H4.22a2.531 2.531 0 0 0-2.532 2.53v43.876a4.224 4.224 0 0 0 4.22 4.218h15.187a4.224 4.224 0 0 0 4.218-4.218v-.844h10.125v.844a4.224 4.224 0 0 0 4.22 4.218h8.437a4.224 4.224 0 0 0 4.218-4.218V4.219a2.531 2.531 0 0 0-2.53-2.532zM3.375 4.217a.844.844 0 0 1 .844-.843H49.78a.844.844 0 0 1 .844.844V26.15a4.17 4.17 0 0 0-.844-.474V4.219H4.22v14.7c-.032.013-.063.03-.094.043a21.94 21.94 0 0 0-.75.443V4.219zM42.188 27h3.374v.844h-3.374V27zM5.906 18.562V5.906h42.188v19.407h-8.438a4.226 4.226 0 0 0-4.134 3.375h-10.21V22.78a4.224 4.224 0 0 0-4.218-4.218H5.906zm10.969 1.688v.844a.844.844 0 0 1-.844.843H10.97a.844.844 0 0 1-.844-.843v-.844h6.75zm8.438 10.125h10.125v5.063H25.312v-5.063zm-1.688 17.719a2.531 2.531 0 0 1-2.531 2.531H5.906a2.531 2.531 0 0 1-2.531-2.531V22.78a2.526 2.526 0 0 1 1.916-2.453c.2-.054.408-.08.615-.078h2.532v.844a2.531 2.531 0 0 0 2.53 2.531h5.063a2.531 2.531 0 0 0 2.532-2.531v-.844h2.53a2.531 2.531 0 0 1 2.532 2.531v25.313zm1.688-2.532v-8.437h5.343l3.516 8.438h-8.86zm7.171-8.437h2.953v7.087l-2.953-7.087zm18.141 10.969a2.531 2.531 0 0 1-2.531 2.531h-8.438a2.531 2.531 0 0 1-2.531-2.531V29.53A2.531 2.531 0 0 1 39.656 27h.844v.844a1.687 1.687 0 0 0 1.688 1.687h3.374a1.687 1.687 0 0 0 1.688-1.687V27h.844c.203-.002.405.024.6.077l.03.006h.012a2.518 2.518 0 0 1 1.889 2.448v18.563z"/><path d="M44.719 47.25H43.03v1.688h1.688V47.25zm3.375 0h-1.688v1.688h1.688V47.25zm-6.75 0h-1.688v1.688h1.688V47.25z"/></symbol><symbol viewBox="0 0 54 54" id="icon1" xmlns="http://www.w3.org/2000/svg"><path d="M47.25 16.875C47.25 7.57 39.68 0 30.375 0h-4.219C16.852 0 9.281 7.57 9.281 16.875v5.75L5.118 33.446a.841.841 0 0 0-.056.303v3.375c0 .465.377.844.844.844h5.331l1.552 7.759a.843.843 0 0 0 .828.678h5.79v6.75c0 .466.376.844.843.844h18.563a.843.843 0 0 0 .843-.844v-7.27l3.045-3.383A17.691 17.691 0 0 0 47.25 30.65V16.875zm-1.688 13.774c0 3.967-1.46 7.775-4.114 10.724l-3.263 3.624a.849.849 0 0 0-.216.566v6.75H21.094v-6.75a.844.844 0 0 0-.844-.844h-5.943l-1.551-7.76a.844.844 0 0 0-.827-.678H6.75v-2.374l4.163-10.823a.841.841 0 0 0 .056-.303v-5.906c0-8.374 6.813-15.188 15.187-15.188h4.219c8.374 0 15.188 6.814 15.188 15.188v13.774z"/><path d="M27.844 6.75c-6.979 0-12.657 5.678-12.657 12.656a12.67 12.67 0 0 0 5.432 10.392l.964-1.386a10.98 10.98 0 0 1-4.708-9.006c0-6.048 4.92-10.968 10.969-10.968 6.048 0 10.968 4.92 10.968 10.968a11 11 0 0 1-4.587 8.922l.984 1.372A12.696 12.696 0 0 0 40.5 19.406c0-6.978-5.678-12.656-12.656-12.656z"/><path d="M29.508 12.317a.846.846 0 0 0-.773-.505h-1.782a.846.846 0 0 0-.773.505l-3.352 7.638a.851.851 0 0 0-.057.495l1.384 7.394h-.53a.845.845 0 0 0-.84.928l.844 8.438c.043.43.406.759.84.759h6.75a.844.844 0 0 0 .84-.76l.843-8.437a.845.845 0 0 0-.84-.928h-.53l1.385-7.394a.858.858 0 0 0-.056-.495l-3.353-7.638zm1.622 17.214l-.253 2.532h-6.066l-.253-2.532h6.572zm-.675 6.75h-5.222l-.253-2.531h5.728l-.253 2.531zm-1.767-8.437v-6.75h.843v-1.688h-3.375v1.688H27v6.75h-1.128l-1.394-7.449 3.027-6.895h.679l3.026 6.895-1.395 7.449h-1.128zM4.219 11.813h1.687V13.5H4.22v-1.688zm0 3.375h1.687v1.687H4.22v-1.688z"/><path d="M5.906 13.5h1.688v1.688H5.906V13.5zm-3.375 0H4.22v1.688H2.53V13.5zm45.563 24.469h1.687v1.687h-1.687V37.97zm0 3.375h1.687v1.687h-1.687v-1.687zm1.687-1.688h1.688v1.688H49.78v-1.688zm-3.375 0h1.688v1.688h-1.688v-1.688z"/></symbol><symbol viewBox="0 0 54 54" id="icon10" xmlns="http://www.w3.org/2000/svg"><g clip-path="url(#cclip0)"><path d="M5.248 9.74l1.403-.934-1.374-2.062 1.374-2.061-1.403-.936-1.686 2.529a.844.844 0 0 0 0 .935l1.686 2.53z"/><path d="M5.248 9.74l1.403-.934-1.374-2.062 1.374-2.061-1.403-.936-1.686 2.529a.844.844 0 0 0 0 .935l1.686 2.53zM13.395 9.74l1.686-2.528a.842.842 0 0 0 0-.935l-1.686-2.53-1.403.936 1.374 2.06-1.374 2.062 1.403.936z"/><path d="M13.395 9.74l1.686-2.528a.842.842 0 0 0 0-.935l-1.686-2.53-1.403.936 1.374 2.06-1.374 2.062 1.403.936zM7.679 9.006l1.687-5.058 1.6.534L9.277 9.54l-1.6-.534z"/><path d="M7.679 9.006l1.687-5.058 1.6.534L9.277 9.54l-1.6-.534z"/><path d="M14.38 25.29a.84.84 0 0 0 .595-.247l3.373-3.372a.84.84 0 0 0 .246-.596V.843A.842.842 0 0 0 17.751 0H.892A.843.843 0 0 0 .05.843v23.604c0 .466.378.843.843.843H14.38zm0-2.035v-2.18h2.18l-2.18 2.18zM1.735 1.686h15.174v17.703h-3.372a.843.843 0 0 0-.844.843v3.372H1.736V1.686z"/><path d="M14.38 25.29a.84.84 0 0 0 .595-.247l3.373-3.372a.84.84 0 0 0 .246-.596V.843A.842.842 0 0 0 17.751 0H.892A.843.843 0 0 0 .05.843v23.604c0 .466.378.843.843.843H14.38zm0-2.035v-2.18h2.18l-2.18 2.18zM1.735 1.686h15.174v17.703h-3.372a.843.843 0 0 0-.844.843v3.372H1.736V1.686z"/><path d="M3.42 11.802h8.43v1.686H3.42v-1.686z"/><path d="M3.42 11.802h8.43v1.686H3.42v-1.686zM13.537 11.802h1.685v1.686h-1.685v-1.686z"/><path d="M13.537 11.802h1.685v1.686h-1.685v-1.686zM3.42 15.174h8.43v1.686H3.42v-1.686z"/><path d="M3.42 15.174h8.43v1.686H3.42v-1.686zM13.537 15.174h1.685v1.686h-1.685v-1.686z"/><path d="M13.537 15.174h1.685v1.686h-1.685v-1.686zM3.42 18.546h4.216v1.686H3.42v-1.686z"/><path d="M3.42 18.546h4.216v1.686H3.42v-1.686zM9.322 18.546h1.686v1.686H9.322v-1.686z"/><path d="M9.322 18.546h1.686v1.686H9.322v-1.686zM37.988 37.121l-5.311-2.327-1.872-2.497c1.26-.729 2.12-2.077 2.12-3.635v-7.587a4.22 4.22 0 0 0-4.215-4.215h-3.372a4.22 4.22 0 0 0-4.215 4.215v7.587c0 1.558.86 2.906 2.121 3.635l-1.862 2.484-5.198 2.083a4.195 4.195 0 0 0-2.648 3.912v12.332c0 .465.378.842.842.843l25.29.05h.001a.845.845 0 0 0 .843-.844V40.982c0-1.675-.99-3.19-2.524-3.861zM22.81 21.075a2.532 2.532 0 0 1 2.53-2.53h3.371a2.532 2.532 0 0 1 2.53 2.53v2.529h-2.53a2.532 2.532 0 0 1-2.529-2.53v-.842h-1.686v.843a4.22 4.22 0 0 0 4.215 4.215h2.53v3.372a2.532 2.532 0 0 1-2.53 2.529h-3.372a2.532 2.532 0 0 1-2.529-2.53v-7.586zm2.108 11.802h4.215l1.742 2.321-3.85 2.566-3.849-2.566 1.742-2.322zm13.91 19.435l-3.373-.006V45.52h-1.686v6.781l-13.488-.026V45.52h-1.686v6.752l-3.372-.006v-11.49a2.52 2.52 0 0 1 1.589-2.349l5.058-2.026 4.689 3.126c.283.19.651.19.934 0l4.675-3.116 5.145 2.254a2.526 2.526 0 0 1 1.514 2.316v11.33z"/><path d="M37.988 37.121l-5.311-2.327-1.872-2.497c1.26-.729 2.12-2.077 2.12-3.635v-7.587a4.22 4.22 0 0 0-4.215-4.215h-3.372a4.22 4.22 0 0 0-4.215 4.215v7.587c0 1.558.86 2.906 2.121 3.635l-1.862 2.484-5.198 2.083a4.195 4.195 0 0 0-2.648 3.912v12.332c0 .465.378.842.842.843l25.29.05h.001a.845.845 0 0 0 .843-.844V40.982c0-1.675-.99-3.19-2.524-3.861zM22.81 21.075a2.532 2.532 0 0 1 2.53-2.53h3.371a2.532 2.532 0 0 1 2.53 2.53v2.529h-2.53a2.532 2.532 0 0 1-2.529-2.53v-.842h-1.686v.843a4.22 4.22 0 0 0 4.215 4.215h2.53v3.372a2.532 2.532 0 0 1-2.53 2.529h-3.372a2.532 2.532 0 0 1-2.529-2.53v-7.586zm2.108 11.802h4.215l1.742 2.321-3.85 2.566-3.849-2.566 1.742-2.322zm13.91 19.435l-3.373-.006V45.52h-1.686v6.781l-13.488-.026V45.52h-1.686v6.752l-3.372-.006v-11.49a2.52 2.52 0 0 1 1.589-2.349l5.058-2.026 4.689 3.126c.283.19.651.19.934 0l4.675-3.116 5.145 2.254a2.526 2.526 0 0 1 1.514 2.316v11.33z"/><path d="M26.181 44.678h1.686v5.058h-1.686v-5.058z"/><path d="M26.181 44.678h1.686v5.058h-1.686v-5.058zM26.181 41.306h1.686v1.686h-1.686v-1.686z"/><path d="M26.181 41.306h1.686v1.686h-1.686v-1.686zM38.826 16.86h3.372v1.686h-3.372V16.86z"/><path d="M38.826 16.86h3.372v1.686h-3.372V16.86z"/><path d="M53.157 0h-16.86a.843.843 0 0 0-.843.843v23.604c0 .466.378.843.843.843h16.86a.842.842 0 0 0 .843-.843V.843A.842.842 0 0 0 53.157 0zM37.14 1.686h15.174v1.686H37.14V1.686zm0 21.918V5.058h15.174v18.546H37.14z"/><path d="M53.157 0h-16.86a.843.843 0 0 0-.843.843v23.604c0 .466.378.843.843.843h16.86a.842.842 0 0 0 .843-.843V.843A.842.842 0 0 0 53.157 0zM37.14 1.686h15.174v1.686H37.14V1.686zm0 21.918V5.058h15.174v18.546H37.14z"/><path d="M49.785 6.744H39.669a.843.843 0 0 0-.843.843v6.744c0 .466.378.843.843.843h10.116a.843.843 0 0 0 .843-.843V7.587a.843.843 0 0 0-.843-.843zm-.843 6.744h-8.43V8.43h8.43v5.058z"/><path d="M49.785 6.744H39.669a.843.843 0 0 0-.843.843v6.744c0 .466.378.843.843.843h10.116a.843.843 0 0 0 .843-.843V7.587a.843.843 0 0 0-.843-.843zm-.843 6.744h-8.43V8.43h8.43v5.058z"/><path d="M42.198 10.116h5.058v1.686h-5.058v-1.686z"/><path d="M42.198 10.116h5.058v1.686h-5.058v-1.686zM43.884 16.86h6.744v1.686h-6.744V16.86z"/><path d="M43.884 16.86h6.744v1.686h-6.744V16.86zM38.826 20.232h8.43v1.686h-8.43v-1.686z"/><path d="M38.826 20.232h8.43v1.686h-8.43v-1.686zM48.942 20.232h1.686v1.686h-1.686v-1.686z"/><path d="M48.942 20.232h1.686v1.686h-1.686v-1.686zM46.413 35.406h-1.686v1.685h2.529a.843.843 0 0 0 .843-.843V33.72h-1.686v1.687z"/><path d="M46.413 35.406h-1.686v1.685h2.529a.843.843 0 0 0 .843-.843V33.72h-1.686v1.687zM41.355 35.405h1.686v1.686h-1.686v-1.686z"/><path d="M41.355 35.405h1.686v1.686h-1.686v-1.686zM46.413 30.348h1.686v1.685h-1.686v-1.686z"/><path d="M46.413 30.348h1.686v1.685h-1.686v-1.686zM46.413 26.976h1.686v1.686h-1.686v-1.686z"/><path d="M46.413 26.976h1.686v1.686h-1.686v-1.686zM8.479 33.72H6.793v2.528c0 .467.377.843.843.843h2.529v-1.685H8.479v-1.687z"/><path d="M8.479 33.72H6.793v2.528c0 .467.377.843.843.843h2.529v-1.685H8.479v-1.687zM11.85 35.405h1.687v1.686H11.85v-1.686z"/><path d="M11.85 35.405h1.687v1.686H11.85v-1.686zM6.793 30.348h1.686v1.685H6.793v-1.686z"/><path d="M6.793 30.348h1.686v1.685H6.793v-1.686zM6.793 26.976h1.686v1.686H6.793v-1.686z"/><path d="M6.793 26.976h1.686v1.686H6.793v-1.686zM21.123 6.744h6.744V5.058H22.7l.812-1.218-1.403-.935-1.686 2.529a.843.843 0 0 0 .701 1.31z"/><path d="M21.123 6.744h6.744V5.058H22.7l.812-1.218-1.403-.935-1.686 2.529a.843.843 0 0 0 .701 1.31zM29.553 5.058h1.686v1.686h-1.686V5.058z"/><path d="M29.553 5.058h1.686v1.686h-1.686V5.058zM26.181 11.802h5.169l-.812 1.218 1.403.935 1.686-2.529a.842.842 0 0 0-.702-1.31h-6.744v1.686z"/><path d="M26.181 11.802h5.169l-.812 1.218 1.403.935 1.686-2.529a.842.842 0 0 0-.702-1.31h-6.744v1.686zM22.81 10.116h1.685v1.686H22.81v-1.686z"/><path d="M22.81 10.116h1.685v1.686H22.81v-1.686z"/></g><defs><clipPath id="cclip0"><path d="M0 0h54v54H0z"/></clipPath></defs></symbol><symbol viewBox="0 0 54 54" id="icon2" xmlns="http://www.w3.org/2000/svg"><path d="M40.5 0H5.062a2.535 2.535 0 0 0-2.53 2.531V51.47A2.535 2.535 0 0 0 5.061 54H40.5a2.534 2.534 0 0 0 2.531-2.531V2.53A2.535 2.535 0 0 0 40.5 0zm.844 51.469a.845.845 0 0 1-.844.843H5.062a.845.845 0 0 1-.843-.843V2.53c0-.464.379-.844.843-.844H40.5c.465 0 .844.38.844.844v48.94z"/><path d="M40.5 0H5.062a2.535 2.535 0 0 0-2.53 2.531V51.47A2.535 2.535 0 0 0 5.061 54H40.5a2.534 2.534 0 0 0 2.531-2.531V2.53A2.535 2.535 0 0 0 40.5 0zm.844 51.469a.845.845 0 0 1-.844.843H5.062a.845.845 0 0 1-.843-.843V2.53c0-.464.379-.844.843-.844H40.5c.465 0 .844.38.844.844v48.94z"/><path d="M38.813 4.219H6.75a.844.844 0 0 0-.844.843v38.813c0 .465.378.844.844.844h32.063a.844.844 0 0 0 .843-.844V5.062a.843.843 0 0 0-.843-.843zm-.844 38.812H7.594V5.906h30.375v37.125z"/><path d="M38.813 4.219H6.75a.844.844 0 0 0-.844.843v38.813c0 .465.378.844.844.844h32.063a.844.844 0 0 0 .843-.844V5.062a.843.843 0 0 0-.843-.843zm-.844 38.812H7.594V5.906h30.375v37.125zM22.781 46.406a2.535 2.535 0 0 0-2.531 2.532 2.535 2.535 0 0 0 2.531 2.53 2.535 2.535 0 0 0 2.532-2.53 2.535 2.535 0 0 0-2.532-2.532zm0 3.375a.845.845 0 0 1-.843-.843c0-.465.379-.844.843-.844.465 0 .844.379.844.843a.845.845 0 0 1-.844.844z"/><path d="M22.781 46.406a2.535 2.535 0 0 0-2.531 2.532 2.535 2.535 0 0 0 2.531 2.53 2.535 2.535 0 0 0 2.532-2.53 2.535 2.535 0 0 0-2.532-2.532zm0 3.375a.845.845 0 0 1-.843-.843c0-.465.379-.844.843-.844.465 0 .844.379.844.843a.845.845 0 0 1-.844.844zM51.469 15.188h-.844v-4.22c0-.041-.018-.078-.023-.118-.005-.029.005-.058-.002-.086l-1.688-6.75a.844.844 0 0 0-.818-.639h-.844a.844.844 0 0 0-.819.639l-1.687 6.75c-.008.028.003.057-.002.086-.005.04-.023.077-.023.119v37.968a1.69 1.69 0 0 0 1.687 1.688h2.532a1.69 1.69 0 0 0 1.687-1.688V22.782h.844v-7.593zm-2.532 28.687h-2.53V11.812h2.53v32.063zM47.672 6.01l1.029 4.115h-2.058l1.029-4.115zm-1.266 42.928v-3.376h2.532v3.376h-2.532z"/><path d="M51.469 15.188h-.844v-4.22c0-.041-.018-.078-.023-.118-.005-.029.005-.058-.002-.086l-1.688-6.75a.844.844 0 0 0-.818-.639h-.844a.844.844 0 0 0-.819.639l-1.687 6.75c-.008.028.003.057-.002.086-.005.04-.023.077-.023.119v37.968a1.69 1.69 0 0 0 1.687 1.688h2.532a1.69 1.69 0 0 0 1.687-1.688V22.782h.844v-7.593zm-2.532 28.687h-2.53V11.812h2.53v32.063zM47.672 6.01l1.029 4.115h-2.058l1.029-4.115zm-1.266 42.928v-3.376h2.532v3.376h-2.532zM10.125 21.094h25.313a.844.844 0 0 0 .843-.844V8.437a.843.843 0 0 0-.843-.843H10.125a.844.844 0 0 0-.844.843V20.25c0 .465.378.844.844.844zm.844-11.813h23.625v10.125H10.969V9.281z"/><path d="M10.125 21.094h25.313a.844.844 0 0 0 .843-.844V8.437a.843.843 0 0 0-.843-.843H10.125a.844.844 0 0 0-.844.843V20.25c0 .465.378.844.844.844zm.844-11.813h23.625v10.125H10.969V9.281zM10.125 34.594h10.969a.844.844 0 0 0 .843-.844V23.625a.844.844 0 0 0-.843-.844H10.125a.844.844 0 0 0-.844.844V33.75c0 .465.378.844.844.844zm.844-10.125h9.281v8.437h-9.281V24.47z"/><path d="M10.125 34.594h10.969a.844.844 0 0 0 .843-.844V23.625a.844.844 0 0 0-.843-.844H10.125a.844.844 0 0 0-.844.844V33.75c0 .465.378.844.844.844zm.844-10.125h9.281v8.437h-9.281V24.47zM35.438 22.781h-10.97a.844.844 0 0 0-.843.844V33.75c0 .465.378.844.844.844h10.968a.844.844 0 0 0 .844-.844V23.625a.844.844 0 0 0-.843-.844zm-.844 10.125h-9.282V24.47h9.282v8.437z"/><path d="M35.438 22.781h-10.97a.844.844 0 0 0-.843.844V33.75c0 .465.378.844.844.844h10.968a.844.844 0 0 0 .844-.844V23.625a.844.844 0 0 0-.843-.844zm-.844 10.125h-9.282V24.47h9.282v8.437zM9.281 36.281H13.5v1.688H9.281V36.28z"/><path d="M9.281 36.281H13.5v1.688H9.281V36.28zM15.188 36.281h6.75v1.688h-6.75V36.28z"/><path d="M15.188 36.281h6.75v1.688h-6.75V36.28zM17.719 39.656h4.218v1.688H17.72v-1.688z"/><path d="M17.719 39.656h4.218v1.688H17.72v-1.688zM9.281 39.656h6.75v1.688h-6.75v-1.688z"/><path d="M9.281 39.656h6.75v1.688h-6.75v-1.688zM23.625 36.281h4.219v1.688h-4.219V36.28z"/><path d="M23.625 36.281h4.219v1.688h-4.219V36.28zM29.531 36.281h6.75v1.688h-6.75V36.28z"/><path d="M29.531 36.281h6.75v1.688h-6.75V36.28zM32.063 39.656h4.218v1.688h-4.218v-1.688z"/><path d="M32.063 39.656h4.218v1.688h-4.218v-1.688zM23.625 39.656h6.75v1.688h-6.75v-1.688z"/><path d="M23.625 39.656h6.75v1.688h-6.75v-1.688zM18.81 11.216l-2.532 2.531a.843.843 0 0 0 0 1.193l2.532 2.532 1.193-1.194-1.935-1.934 1.935-1.935-1.193-1.193z"/><path d="M18.81 11.216l-2.532 2.531a.843.843 0 0 0 0 1.193l2.532 2.532 1.193-1.194-1.935-1.934 1.935-1.935-1.193-1.193zM26.753 11.216l-1.193 1.193 1.934 1.935-1.934 1.934 1.193 1.194 2.531-2.532a.843.843 0 0 0 0-1.193l-2.531-2.531z"/><path d="M26.753 11.216l-1.193 1.193 1.934 1.935-1.934 1.934 1.193 1.194 2.531-2.532a.843.843 0 0 0 0-1.193l-2.531-2.531zM21.137 16.609l1.688-5.063 1.601.534-1.688 5.063-1.601-.534z"/><path d="M21.137 16.609l1.688-5.063 1.601.534-1.688 5.063-1.601-.534z"/></symbol><symbol viewBox="0 0 54 54" id="icon3" xmlns="http://www.w3.org/2000/svg"><path d="M40.5 45.563h-27a.844.844 0 0 0-.844.843v3.375c0 .467.378.844.844.844h27a.843.843 0 0 0 .844-.844v-3.375a.843.843 0 0 0-.844-.843zm-.844 3.374H14.344V47.25h25.312v1.688z"/><path d="M40.5 45.563h-27a.844.844 0 0 0-.844.843v3.375c0 .467.378.844.844.844h27a.843.843 0 0 0 .844-.844v-3.375a.843.843 0 0 0-.844-.843zm-.844 3.374H14.344V47.25h25.312v1.688z"/><path d="M50.625 32.063H13.5v-1.688h27.844a.843.843 0 0 0 .843-.844v-4.218H40.5v3.375H12.656a.844.844 0 0 0-.844.843v2.532H3.376a1.69 1.69 0 0 0-1.688 1.687v18.563c0 .93.757 1.687 1.688 1.687h47.25a1.69 1.69 0 0 0 1.688-1.688V33.75a1.69 1.69 0 0 0-1.688-1.688zm-47.25 20.25V33.75h47.25l.002 18.563H3.375z"/><path d="M50.625 32.063H13.5v-1.688h27.844a.843.843 0 0 0 .843-.844v-4.218H40.5v3.375H12.656a.844.844 0 0 0-.844.843v2.532H3.376a1.69 1.69 0 0 0-1.688 1.687v18.563c0 .93.757 1.687 1.688 1.687h47.25a1.69 1.69 0 0 0 1.688-1.688V33.75a1.69 1.69 0 0 0-1.688-1.688zm-47.25 20.25V33.75h47.25l.002 18.563H3.375z"/><path d="M48.094 45.563h-4.219a.843.843 0 0 0-.844.843v3.375c0 .467.377.844.844.844h4.219a.843.843 0 0 0 .843-.844v-3.375a.843.843 0 0 0-.843-.843zm-.844 3.374h-2.531V47.25h2.531v1.688z"/><path d="M48.094 45.563h-4.219a.843.843 0 0 0-.844.843v3.375c0 .467.377.844.844.844h4.219a.843.843 0 0 0 .843-.844v-3.375a.843.843 0 0 0-.843-.843zm-.844 3.374h-2.531V47.25h2.531v1.688zM10.125 45.563H5.906a.844.844 0 0 0-.843.843v3.375c0 .467.378.844.843.844h4.219a.844.844 0 0 0 .844-.844v-3.375a.844.844 0 0 0-.844-.843zm-.844 3.374H6.75V47.25h2.531v1.688z"/><path d="M10.125 45.563H5.906a.844.844 0 0 0-.843.843v3.375c0 .467.378.844.843.844h4.219a.844.844 0 0 0 .844-.844v-3.375a.844.844 0 0 0-.844-.843zm-.844 3.374H6.75V47.25h2.531v1.688zM48.094 38.813h-8.438a.843.843 0 0 0-.843.843v3.375c0 .467.377.844.843.844h8.438a.843.843 0 0 0 .843-.844v-3.375a.843.843 0 0 0-.843-.843zm-.844 3.374H40.5V40.5h6.75v1.688z"/><path d="M48.094 38.813h-8.438a.843.843 0 0 0-.843.843v3.375c0 .467.377.844.843.844h8.438a.843.843 0 0 0 .843-.844v-3.375a.843.843 0 0 0-.843-.843zm-.844 3.374H40.5V40.5h6.75v1.688zM32.906 38.813a.843.843 0 0 0-.843.843v3.375c0 .467.377.844.843.844h3.375a.843.843 0 0 0 .844-.844v-3.375a.843.843 0 0 0-.844-.843h-3.375zm2.532 3.374H33.75V40.5h1.688v1.688z"/><path d="M32.906 38.813a.843.843 0 0 0-.843.843v3.375c0 .467.377.844.843.844h3.375a.843.843 0 0 0 .844-.844v-3.375a.843.843 0 0 0-.844-.843h-3.375zm2.532 3.374H33.75V40.5h1.688v1.688zM26.156 43.875h3.375a.843.843 0 0 0 .844-.844v-3.375a.843.843 0 0 0-.844-.843h-3.375a.844.844 0 0 0-.843.843v3.375c0 .467.378.844.843.844zM27 40.5h1.688v1.688H27V40.5z"/><path d="M26.156 43.875h3.375a.843.843 0 0 0 .844-.844v-3.375a.843.843 0 0 0-.844-.843h-3.375a.844.844 0 0 0-.843.843v3.375c0 .467.378.844.843.844zM27 40.5h1.688v1.688H27V40.5zM18.563 43.031c0 .467.378.844.843.844h3.375a.844.844 0 0 0 .844-.844v-3.375a.844.844 0 0 0-.844-.843h-3.375a.844.844 0 0 0-.843.843v3.375zM20.25 40.5h1.688v1.688H20.25V40.5z"/><path d="M18.563 43.031c0 .467.378.844.843.844h3.375a.844.844 0 0 0 .844-.844v-3.375a.844.844 0 0 0-.844-.843h-3.375a.844.844 0 0 0-.843.843v3.375zM20.25 40.5h1.688v1.688H20.25V40.5zM16.031 43.875a.844.844 0 0 0 .844-.844v-3.375a.844.844 0 0 0-.844-.843h-3.375a.844.844 0 0 0-.844.843v3.375c0 .467.379.844.844.844h3.375zM13.5 40.5h1.688v1.688H13.5V40.5z"/><path d="M16.031 43.875a.844.844 0 0 0 .844-.844v-3.375a.844.844 0 0 0-.844-.843h-3.375a.844.844 0 0 0-.844.843v3.375c0 .467.379.844.844.844h3.375zM13.5 40.5h1.688v1.688H13.5V40.5zM5.906 43.875h3.375a.844.844 0 0 0 .844-.844v-3.375a.844.844 0 0 0-.844-.843H5.906a.844.844 0 0 0-.843.843v3.375c0 .467.378.844.843.844zM6.75 40.5h1.688v1.688H6.75V40.5z"/><path d="M5.906 43.875h3.375a.844.844 0 0 0 .844-.844v-3.375a.844.844 0 0 0-.844-.843H5.906a.844.844 0 0 0-.843.843v3.375c0 .467.378.844.843.844zM6.75 40.5h1.688v1.688H6.75V40.5zM5.063 35.438h3.375v1.687H5.062v-1.688z"/><path d="M5.063 35.438h3.375v1.687H5.062v-1.688zM10.125 35.438H13.5v1.687h-3.375v-1.688z"/><path d="M10.125 35.438H13.5v1.687h-3.375v-1.688zM15.188 35.438h3.374v1.687h-3.375v-1.688z"/><path d="M15.188 35.438h3.374v1.687h-3.375v-1.688zM20.25 35.438h3.375v1.687H20.25v-1.688z"/><path d="M20.25 35.438h3.375v1.687H20.25v-1.688zM25.313 35.438h3.375v1.687h-3.375v-1.688z"/><path d="M25.313 35.438h3.375v1.687h-3.375v-1.688zM30.375 35.438h3.375v1.687h-3.375v-1.688z"/><path d="M30.375 35.438h3.375v1.687h-3.375v-1.688zM35.438 35.438h3.374v1.687h-3.374v-1.688z"/><path d="M35.438 35.438h3.374v1.687h-3.374v-1.688zM40.5 35.438h3.375v1.687H40.5v-1.688z"/><path d="M40.5 35.438h3.375v1.687H40.5v-1.688zM45.563 35.438h3.374v1.687h-3.374v-1.688z"/><path d="M45.563 35.438h3.374v1.687h-3.374v-1.688zM10.125 2.531h1.688V4.22h-1.688V2.53z"/><path d="M10.125 2.531h1.688V4.22h-1.688V2.53zM13.5 2.531h1.688V4.22H13.5V2.53z"/><path d="M13.5 2.531h1.688V4.22H13.5V2.53zM16.875 2.531h1.688V4.22h-1.688V2.53z"/><path d="M16.875 2.531h1.688V4.22h-1.688V2.53zM38.813 2.531h5.062V4.22h-5.063V2.53z"/><path d="M38.813 2.531h5.062V4.22h-5.063V2.53z"/><path d="M7.594 30.375h2.531v-1.688H8.437V6.75h37.126v21.938h-1.688v1.687h2.531a.843.843 0 0 0 .844-.844V.844A.843.843 0 0 0 46.406 0H7.594a.844.844 0 0 0-.844.844V29.53c0 .467.378.844.844.844zm.843-28.688h37.126v3.375H8.437V1.688z"/><path d="M7.594 30.375h2.531v-1.688H8.437V6.75h37.126v21.938h-1.688v1.687h2.531a.843.843 0 0 0 .844-.844V.844A.843.843 0 0 0 46.406 0H7.594a.844.844 0 0 0-.844.844V29.53c0 .467.378.844.844.844zm.843-28.688h37.126v3.375H8.437V1.688z"/><path d="M41.94 10.372l-1.687-1.687-1.193 1.193 1.09 1.09-1.09 1.092 1.193 1.193 1.687-1.688a.843.843 0 0 0 0-1.193z"/><path d="M41.94 10.372l-1.687-1.687-1.193 1.193 1.09 1.09-1.09 1.092 1.193 1.193 1.687-1.688a.843.843 0 0 0 0-1.193zM32.31 8.685l-1.688 1.687a.843.843 0 0 0 0 1.193l1.688 1.688 1.193-1.193-1.091-1.091 1.09-1.091-1.192-1.193z"/><path d="M32.31 8.685l-1.688 1.687a.843.843 0 0 0 0 1.193l1.688 1.688 1.193-1.193-1.091-1.091 1.09-1.091-1.192-1.193zM34.636 13.232l1.689-5.063 1.6.534-1.69 5.063-1.6-.534z"/><path d="M34.636 13.232l1.689-5.063 1.6.534-1.69 5.063-1.6-.534zM11.813 21.938H13.5v1.687h-1.688v-1.688z"/><path d="M11.813 21.938H13.5v1.687h-1.688v-1.688zM15.188 21.938h1.687v1.687h-1.688v-1.688z"/><path d="M15.188 21.938h1.687v1.687h-1.688v-1.688zM18.563 21.938h1.687v1.687h-1.688v-1.688z"/><path d="M18.563 21.938h1.687v1.687h-1.688v-1.688zM21.938 21.938h3.375v1.687h-3.375v-1.688z"/><path d="M21.938 21.938h3.375v1.687h-3.375v-1.688zM30.375 21.938h1.688v1.687h-1.688v-1.688z"/><path d="M30.375 21.938h1.688v1.687h-1.688v-1.688zM27 21.938h1.688v1.687H27v-1.688z"/><path d="M27 21.938h1.688v1.687H27v-1.688zM11.813 18.563h5.062v1.687h-5.063v-1.688z"/><path d="M11.813 18.563h5.062v1.687h-5.063v-1.688zM18.563 18.563h1.687v1.687h-1.688v-1.688z"/><path d="M18.563 18.563h1.687v1.687h-1.688v-1.688zM21.938 18.563h3.375v1.687h-3.375v-1.688z"/><path d="M21.938 18.563h3.375v1.687h-3.375v-1.688zM30.375 18.563h1.688v1.687h-1.688v-1.688z"/><path d="M30.375 18.563h1.688v1.687h-1.688v-1.688zM27 18.563h1.688v1.687H27v-1.688z"/><path d="M27 18.563h1.688v1.687H27v-1.688zM27 15.188h5.063v1.687H27v-1.688z"/><path d="M27 15.188h5.063v1.687H27v-1.688zM23.625 15.188h1.688v1.687h-1.688v-1.688z"/><path d="M23.625 15.188h1.688v1.687h-1.688v-1.688zM18.563 15.188h3.375v1.687h-3.375v-1.688z"/><path d="M18.563 15.188h3.375v1.687h-3.375v-1.688zM11.813 15.188h5.062v1.687h-5.063v-1.688z"/><path d="M11.813 15.188h5.062v1.687h-5.063v-1.688zM35.438 21.938h3.374v1.687h-3.374v-1.688z"/><path d="M35.438 21.938h3.374v1.687h-3.374v-1.688zM40.5 21.938h1.688v1.687H40.5v-1.688z"/><path d="M40.5 21.938h1.688v1.687H40.5v-1.688zM15.188 10.125h3.374v1.688h-3.375v-1.688z"/><path d="M15.188 10.125h3.374v1.688h-3.375v-1.688zM11.813 10.125H13.5v1.688h-1.688v-1.688z"/><path d="M11.813 10.125H13.5v1.688h-1.688v-1.688z"/></symbol><symbol viewBox="0 0 54 54" id="icon4" xmlns="http://www.w3.org/2000/svg"><path d="M52.313 12.656a4.227 4.227 0 0 0-3.376-4.133V3.375a.843.843 0 0 0-.843-.844H35.437V.844A.843.843 0 0 0 34.594 0H19.406a.843.843 0 0 0-.843.844V2.53h-5.907a.843.843 0 0 0-.844.844v8.438H5.907a.843.843 0 0 0-.843.843v7.68a4.227 4.227 0 0 0-3.375 4.133 4.227 4.227 0 0 0 3.375 4.133v7.68c0 .466.376.843.843.843h12.657v1.688c0 .466.377.843.843.843h6.75v2.6c-2.857.41-5.062 2.869-5.062 5.838A5.914 5.914 0 0 0 27 54c2.97 0 5.427-2.205 5.839-5.063h9.349a.843.843 0 0 0 .843-.843V25.312h5.063a.843.843 0 0 0 .843-.843v-7.68a4.227 4.227 0 0 0 3.376-4.133zM20.25 1.687h13.5v3.375h-13.5V1.688zM13.5 4.22h5.063v1.687c0 .467.377.844.843.844h6.75v2.531h-6.75a.843.843 0 0 0-.843.844v1.688H13.5V4.218zM27 29.242l-4.773-4.773L27 19.695l4.773 4.774L27 29.242zm-6.75-14.898v-3.375h13.5v3.375h-13.5zM3.375 24.469a2.535 2.535 0 0 1 2.531-2.532 2.535 2.535 0 0 1 2.532 2.532A2.535 2.535 0 0 1 5.905 27a2.535 2.535 0 0 1-2.531-2.531zm15.188 9.281v1.688H6.75v-6.836a4.226 4.226 0 0 0 3.375-4.133 4.226 4.226 0 0 0-3.375-4.134V13.5h11.813v1.688c0 .466.377.843.843.843h6.75v2.122l-5.471 5.472h-2.122v1.688h2.122l5.471 5.471v2.122h-6.75a.843.843 0 0 0-.843.844zm1.687.844h13.5v3.375h-13.5v-3.375zM27 52.312a4.224 4.224 0 0 1-4.219-4.218A4.224 4.224 0 0 1 27 43.875a4.224 4.224 0 0 1 4.219 4.219A4.224 4.224 0 0 1 27 52.312zm14.344-5.062h-8.505a5.91 5.91 0 0 0-4.995-4.995v-2.599h6.75a.843.843 0 0 0 .843-.843V33.75a.843.843 0 0 0-.843-.844h-6.75v-2.122l5.471-5.471h8.029V47.25zm-8.029-23.625l-5.471-5.472v-2.122h6.75a.843.843 0 0 0 .843-.843v-5.063a.843.843 0 0 0-.843-.844h-6.75V6.75h6.75a.843.843 0 0 0 .843-.844V4.22H47.25v4.304a4.226 4.226 0 0 0-3.375 4.133 4.226 4.226 0 0 0 3.375 4.134v6.835H33.315zm14.779-8.438a2.535 2.535 0 0 1-2.532-2.53 2.534 2.534 0 0 1 2.532-2.532 2.534 2.534 0 0 1 2.531 2.531 2.534 2.534 0 0 1-2.531 2.531z"/><path d="M52.313 12.656a4.227 4.227 0 0 0-3.376-4.133V3.375a.843.843 0 0 0-.843-.844H35.437V.844A.843.843 0 0 0 34.594 0H19.406a.843.843 0 0 0-.843.844V2.53h-5.907a.843.843 0 0 0-.844.844v8.438H5.907a.843.843 0 0 0-.843.843v7.68a4.227 4.227 0 0 0-3.375 4.133 4.227 4.227 0 0 0 3.375 4.133v7.68c0 .466.376.843.843.843h12.657v1.688c0 .466.377.843.843.843h6.75v2.6c-2.857.41-5.062 2.869-5.062 5.838A5.914 5.914 0 0 0 27 54c2.97 0 5.427-2.205 5.839-5.063h9.349a.843.843 0 0 0 .843-.843V25.312h5.063a.843.843 0 0 0 .843-.843v-7.68a4.227 4.227 0 0 0 3.376-4.133zM20.25 1.687h13.5v3.375h-13.5V1.688zM13.5 4.22h5.063v1.687c0 .467.377.844.843.844h6.75v2.531h-6.75a.843.843 0 0 0-.843.844v1.688H13.5V4.218zM27 29.242l-4.773-4.773L27 19.695l4.773 4.774L27 29.242zm-6.75-14.898v-3.375h13.5v3.375h-13.5zM3.375 24.469a2.535 2.535 0 0 1 2.531-2.532 2.535 2.535 0 0 1 2.532 2.532A2.535 2.535 0 0 1 5.905 27a2.535 2.535 0 0 1-2.531-2.531zm15.188 9.281v1.688H6.75v-6.836a4.226 4.226 0 0 0 3.375-4.133 4.226 4.226 0 0 0-3.375-4.134V13.5h11.813v1.688c0 .466.377.843.843.843h6.75v2.122l-5.471 5.472h-2.122v1.688h2.122l5.471 5.471v2.122h-6.75a.843.843 0 0 0-.843.844zm1.687.844h13.5v3.375h-13.5v-3.375zM27 52.312a4.224 4.224 0 0 1-4.219-4.218A4.224 4.224 0 0 1 27 43.875a4.224 4.224 0 0 1 4.219 4.219A4.224 4.224 0 0 1 27 52.312zm14.344-5.062h-8.505a5.91 5.91 0 0 0-4.995-4.995v-2.599h6.75a.843.843 0 0 0 .843-.843V33.75a.843.843 0 0 0-.843-.844h-6.75v-2.122l5.471-5.471h8.029V47.25zm-8.029-23.625l-5.471-5.472v-2.122h6.75a.843.843 0 0 0 .843-.843v-5.063a.843.843 0 0 0-.843-.844h-6.75V6.75h6.75a.843.843 0 0 0 .843-.844V4.22H47.25v4.304a4.226 4.226 0 0 0-3.375 4.133 4.226 4.226 0 0 0 3.375 4.134v6.835H33.315zm14.779-8.438a2.535 2.535 0 0 1-2.532-2.53 2.534 2.534 0 0 1 2.532-2.532 2.534 2.534 0 0 1 2.531 2.531 2.534 2.534 0 0 1-2.531 2.531z"/><path d="M11.813 23.625H13.5v1.688h-1.688v-1.688z"/><path d="M11.813 23.625H13.5v1.688h-1.688v-1.688zM15.188 23.625h1.687v1.688h-1.688v-1.688z"/><path d="M15.188 23.625h1.687v1.688h-1.688v-1.688z"/></symbol><symbol viewBox="0 0 54 54" id="icon5" xmlns="http://www.w3.org/2000/svg"><path d="M0 5.906v42.188c0 .465.377.843.844.843h10.969V47.25H1.687V13.5h10.126v-1.688H1.687V6.75h10.126V5.062H.842A.844.844 0 0 0 0 5.907z"/><path d="M0 5.906v42.188c0 .465.377.843.844.843h10.969V47.25H1.687V13.5h10.126v-1.688H1.687V6.75h10.126V5.062H.842A.844.844 0 0 0 0 5.907z"/><path d="M3.375 8.438h1.688v1.687H3.375V8.437z"/><path d="M3.375 8.438h1.688v1.687H3.375V8.437zM6.75 8.438h1.688v1.687H6.75V8.437z"/><path d="M6.75 8.438h1.688v1.687H6.75V8.437zM10.125 8.438h1.688v1.687h-1.688V8.437z"/><path d="M10.125 8.438h1.688v1.687h-1.688V8.437zM53.156 5.063H42.188V6.75h10.124v5.063H42.188V13.5h10.124v33.75H42.188v1.688h10.968a.844.844 0 0 0 .844-.844V5.906a.844.844 0 0 0-.844-.843z"/><path d="M53.156 5.063H42.188V6.75h10.124v5.063H42.188V13.5h10.124v33.75H42.188v1.688h10.968a.844.844 0 0 0 .844-.844V5.906a.844.844 0 0 0-.844-.843z"/><path d="M45.563 8.438h5.062v1.687h-5.063V8.437z"/><path d="M45.563 8.438h5.062v1.687h-5.063V8.437zM38.813 1.688H15.186A1.69 1.69 0 0 0 13.5 3.375v47.25c0 .93.757 1.688 1.688 1.688h23.624a1.69 1.69 0 0 0 1.688-1.688V3.375a1.69 1.69 0 0 0-1.688-1.688zm0 48.937H15.186V3.375h23.626v47.25z"/><path d="M38.813 1.688H15.186A1.69 1.69 0 0 0 13.5 3.375v47.25c0 .93.757 1.688 1.688 1.688h23.624a1.69 1.69 0 0 0 1.688-1.688V3.375a1.69 1.69 0 0 0-1.688-1.688zm0 48.937H15.186V3.375h23.626v47.25z"/><path d="M21.938 24.469h1.687v-3.375c0-.465.378-.844.844-.844h5.062c.466 0 .844.379.844.844v3.375h1.688v-3.375a2.535 2.535 0 0 0-2.532-2.532H24.47a2.535 2.535 0 0 0-2.532 2.532v3.375z"/><path d="M21.938 24.469h1.687v-3.375c0-.465.378-.844.844-.844h5.062c.466 0 .844.379.844.844v3.375h1.688v-3.375a2.535 2.535 0 0 0-2.532-2.532H24.47a2.535 2.535 0 0 0-2.532 2.532v3.375zM27 17.719a4.224 4.224 0 0 0 4.219-4.219A4.224 4.224 0 0 0 27 9.281a4.224 4.224 0 0 0-4.219 4.219A4.224 4.224 0 0 0 27 17.719zm0-6.75a2.534 2.534 0 0 1 2.531 2.531A2.534 2.534 0 0 1 27 16.031a2.534 2.534 0 0 1-2.531-2.531A2.534 2.534 0 0 1 27 10.969z"/><path d="M27 17.719a4.224 4.224 0 0 0 4.219-4.219A4.224 4.224 0 0 0 27 9.281a4.224 4.224 0 0 0-4.219 4.219A4.224 4.224 0 0 0 27 17.719zm0-6.75a2.534 2.534 0 0 1 2.531 2.531A2.534 2.534 0 0 1 27 16.031a2.534 2.534 0 0 1-2.531-2.531A2.534 2.534 0 0 1 27 10.969zM18.563 32.906h16.875a1.69 1.69 0 0 0 1.687-1.687v-2.532A1.69 1.69 0 0 0 35.437 27H18.564a1.69 1.69 0 0 0-1.688 1.688v2.53a1.69 1.69 0 0 0 1.688 1.688zm16.875-1.687H23.625v-2.532h11.813v2.532zm-16.876-2.532h3.375v2.532h-3.375v-2.532z"/><path d="M18.563 32.906h16.875a1.69 1.69 0 0 0 1.687-1.687v-2.532A1.69 1.69 0 0 0 35.437 27H18.564a1.69 1.69 0 0 0-1.688 1.688v2.53a1.69 1.69 0 0 0 1.688 1.688zm16.875-1.687H23.625v-2.532h11.813v2.532zm-16.876-2.532h3.375v2.532h-3.375v-2.532zM31.219 34.594H22.78a1.69 1.69 0 0 0-1.687 1.687v1.688c0 .93.757 1.687 1.687 1.687h8.438a1.69 1.69 0 0 0 1.687-1.687V36.28a1.69 1.69 0 0 0-1.687-1.687zm-8.438 3.375V36.28h8.438v1.688h-8.438z"/><path d="M31.219 34.594H22.78a1.69 1.69 0 0 0-1.687 1.687v1.688c0 .93.757 1.687 1.687 1.687h8.438a1.69 1.69 0 0 0 1.687-1.687V36.28a1.69 1.69 0 0 0-1.687-1.687zm-8.438 3.375V36.28h8.438v1.688h-8.438zM33.75 47.25h3.375v1.688H33.75V47.25z"/><path d="M33.75 47.25h3.375v1.688H33.75V47.25zM30.375 47.25h1.688v1.688h-1.688V47.25z"/><path d="M30.375 47.25h1.688v1.688h-1.688V47.25zM16.875 5.063h1.688V6.75h-1.688V5.062z"/><path d="M16.875 5.063h1.688V6.75h-1.688V5.062zM20.25 5.063h1.688V6.75H20.25V5.062z"/><path d="M20.25 5.063h1.688V6.75H20.25V5.062zM21.094 43.031h1.687v1.688h-1.687V43.03z"/><path d="M21.094 43.031h1.687v1.688h-1.687V43.03zM24.469 43.031h1.687v1.688H24.47V43.03z"/><path d="M24.469 43.031h1.687v1.688H24.47V43.03zM27.844 43.031h1.687v1.688h-1.687V43.03z"/><path d="M27.844 43.031h1.687v1.688h-1.687V43.03zM31.219 43.031h1.687v1.688H31.22V43.03z"/><path d="M31.219 43.031h1.687v1.688H31.22V43.03zM35.438 5.063h1.687V6.75h-1.688V5.062z"/><path d="M35.438 5.063h1.687V6.75h-1.688V5.062zM26.156 21.938h1.688v2.53h-1.688v-2.53z"/><path d="M26.156 21.938h1.688v2.53h-1.688v-2.53z"/></symbol><symbol viewBox="0 0 54 54" id="icon6" xmlns="http://www.w3.org/2000/svg"><path d="M25.313 39.656h3.375v1.688h-3.375v-1.688z"/><path d="M25.313 39.656h3.375v1.688h-3.375v-1.688zM5.906 16.875a.844.844 0 0 0-.843.844V40.5c0 .465.378.844.843.844h17.719v-1.688H6.75V16.875h-.844z"/><path d="M5.906 16.875a.844.844 0 0 0-.843.844V40.5c0 .465.378.844.843.844h17.719v-1.688H6.75V16.875h-.844zM30.375 41.344h17.719a.844.844 0 0 0 .843-.844V17.719a.844.844 0 0 0-.843-.844h-.844v22.781H30.375v1.688z"/><path d="M30.375 41.344h17.719a.844.844 0 0 0 .843-.844V17.719a.844.844 0 0 0-.843-.844h-.844v22.781H30.375v1.688z"/><path d="M53.156 43.031h-.843V14.344a.844.844 0 0 0-.844-.844H47.25v1.688h3.375V43.03H35.44a.832.832 0 0 0-.301.056l-2.058.788H20.84l-2.209-.794a.84.84 0 0 0-.285-.05H3.375V15.188H6.75V13.5H2.531a.844.844 0 0 0-.844.844V43.03H.845a.844.844 0 0 0-.844.844v2.795c0 .192.065.377.185.527l1.137 1.423c.16.2.402.318.66.318H52.02c.212 0 .417-.08.573-.226l1.138-1.055A.849.849 0 0 0 54 47.04v-3.164a.844.844 0 0 0-.844-.844zm-.843 3.64l-.625.579H2.387l-.7-.875v-1.656h3.375v.843H6.75v-.843H18.2l2.208.794a.84.84 0 0 0 .285.05h12.543a.834.834 0 0 0 .301-.056l2.06-.788h8.278v.843h1.688v-.843h1.687v.843h1.688v-.843h3.374v1.951z"/><path d="M53.156 43.031h-.843V14.344a.844.844 0 0 0-.844-.844H47.25v1.688h3.375V43.03H35.44a.832.832 0 0 0-.301.056l-2.058.788H20.84l-2.209-.794a.84.84 0 0 0-.285-.05H3.375V15.188H6.75V13.5H2.531a.844.844 0 0 0-.844.844V43.03H.845a.844.844 0 0 0-.844.844v2.795c0 .192.065.377.185.527l1.137 1.423c.16.2.402.318.66.318H52.02c.212 0 .417-.08.573-.226l1.138-1.055A.849.849 0 0 0 54 47.04v-3.164a.844.844 0 0 0-.844-.844zm-.843 3.64l-.625.579H2.387l-.7-.875v-1.656h3.375v.843H6.75v-.843H18.2l2.208.794a.84.84 0 0 0 .285.05h12.543a.834.834 0 0 0 .301-.056l2.06-.788h8.278v.843h1.688v-.843h1.687v.843h1.688v-.843h3.374v1.951z"/><path d="M17.122 16.628l1.193-1.193-1.934-1.935 1.934-1.935-1.193-1.193-2.531 2.531a.843.843 0 0 0 0 1.194l2.531 2.53z"/><path d="M17.122 16.628l1.193-1.193-1.934-1.935 1.934-1.935-1.193-1.193-2.531 2.531a.843.843 0 0 0 0 1.194l2.531 2.53zM25.065 16.628l2.532-2.531a.843.843 0 0 0 0-1.194l-2.532-2.53-1.193 1.192 1.935 1.935-1.935 1.935 1.193 1.193z"/><path d="M25.065 16.628l2.532-2.531a.843.843 0 0 0 0-1.194l-2.532-2.53-1.193 1.192 1.935 1.935-1.935 1.935 1.193 1.193zM19.45 15.765l1.688-5.062 1.6.534-1.688 5.062-1.6-.534z"/><path d="M19.45 15.765l1.688-5.062 1.6.534-1.688 5.062-1.6-.534z"/><path d="M9.281 26.156h3.198a.844.844 0 0 0 .712-.39l2.436-3.828h16.436a1.69 1.69 0 0 0 1.687-1.688V6.75a1.69 1.69 0 0 0-1.688-1.688H10.125A1.69 1.69 0 0 0 8.437 6.75v18.563c0 .465.379.843.844.843zm.844-19.406h21.938v13.5h-16.9a.845.845 0 0 0-.712.39l-2.436 3.829h-1.891V6.75z"/><path d="M9.281 26.156h3.198a.844.844 0 0 0 .712-.39l2.436-3.828h16.436a1.69 1.69 0 0 0 1.687-1.688V6.75a1.69 1.69 0 0 0-1.688-1.688H10.125A1.69 1.69 0 0 0 8.437 6.75v18.563c0 .465.379.843.844.843zm.844-19.406h21.938v13.5h-16.9a.845.845 0 0 0-.712.39l-2.436 3.829h-1.891V6.75zM30.375 27h11.813v1.688H30.374V27z"/><path d="M30.375 27h11.813v1.688H30.374V27zM38.813 23.625h3.374v1.688h-3.374v-1.688z"/><path d="M38.813 23.625h3.374v1.688h-3.374v-1.688zM23.625 23.625h13.5v1.688h-13.5v-1.688z"/><path d="M23.625 23.625h13.5v1.688h-13.5v-1.688zM35.438 20.25h6.75v1.688h-6.75V20.25z"/><path d="M35.438 20.25h6.75v1.688h-6.75V20.25z"/><path d="M43.875 35.438h-1.891l-2.436-3.829a.845.845 0 0 0-.712-.39H21.938v-7.594H20.25v7.594c0 .93.757 1.687 1.688 1.687h16.435l2.436 3.828a.846.846 0 0 0 .712.391h3.198a.844.844 0 0 0 .843-.844V17.72a1.69 1.69 0 0 0-1.687-1.688h-8.438v1.688h8.438v17.718z"/><path d="M43.875 35.438h-1.891l-2.436-3.829a.845.845 0 0 0-.712-.39H21.938v-7.594H20.25v7.594c0 .93.757 1.687 1.688 1.687h16.435l2.436 3.828a.846.846 0 0 0 .712.391h3.198a.844.844 0 0 0 .843-.844V17.72a1.69 1.69 0 0 0-1.687-1.688h-8.438v1.688h8.438v17.718z"/><path d="M23.625 27h1.688v1.688h-1.688V27z"/><path d="M23.625 27h1.688v1.688h-1.688V27zM27 27h1.688v1.688H27V27z"/><path d="M27 27h1.688v1.688H27V27z"/></symbol><symbol viewBox="0 0 54 54" id="icon7" xmlns="http://www.w3.org/2000/svg"><path d="M26.156 21.938v3.53a2.528 2.528 0 0 0-1.687 2.376A2.534 2.534 0 0 0 27 30.375a2.534 2.534 0 0 0 2.531-2.531 2.528 2.528 0 0 0-1.687-2.376v-3.53h-1.688zm.844 6.75A.845.845 0 0 1 27 27a.845.845 0 0 1 0 1.688z"/><path d="M26.156 21.938v3.53a2.528 2.528 0 0 0-1.687 2.376A2.534 2.534 0 0 0 27 30.375a2.534 2.534 0 0 0 2.531-2.531 2.528 2.528 0 0 0-1.687-2.376v-3.53h-1.688zm.844 6.75A.845.845 0 0 1 27 27a.845.845 0 0 1 0 1.688zM23.028 10.372l-2.53 2.531a.843.843 0 0 0 0 1.194l2.53 2.53 1.194-1.192-1.935-1.935 1.935-1.935-1.194-1.193z"/><path d="M23.028 10.372l-2.53 2.531a.843.843 0 0 0 0 1.194l2.53 2.53 1.194-1.192-1.935-1.935 1.935-1.935-1.194-1.193zM30.972 10.372l-1.194 1.193 1.935 1.935-1.935 1.935 1.194 1.193 2.53-2.531a.843.843 0 0 0 0-1.194l-2.53-2.53z"/><path d="M30.972 10.372l-1.194 1.193 1.935 1.935-1.935 1.935 1.194 1.193 2.53-2.531a.843.843 0 0 0 0-1.194l-2.53-2.53zM25.356 15.765l1.688-5.062 1.601.534-1.689 5.062-1.6-.534z"/><path d="M25.356 15.765l1.688-5.062 1.601.534-1.689 5.062-1.6-.534z"/><path d="M16.875 20.25h20.25a.844.844 0 0 0 .844-.844V.844A.844.844 0 0 0 37.125 0h-20.25a.844.844 0 0 0-.844.844v18.562c0 .467.379.844.844.844zm.844-1.688v-13.5H36.28v13.5H17.72zm0-16.875H36.28v1.688H17.72V1.687z"/><path d="M16.875 20.25h20.25a.844.844 0 0 0 .844-.844V.844A.844.844 0 0 0 37.125 0h-20.25a.844.844 0 0 0-.844.844v18.562c0 .467.379.844.844.844zm.844-1.688v-13.5H36.28v13.5H17.72zm0-16.875H36.28v1.688H17.72V1.687z"/><path d="M20.25 6.75h1.688v1.688H20.25V6.75z"/><path d="M20.25 6.75h1.688v1.688H20.25V6.75zM23.625 6.75h1.688v1.688h-1.688V6.75z"/><path d="M23.625 6.75h1.688v1.688h-1.688V6.75zM30.375 6.75h3.375v1.688h-3.375V6.75z"/><path d="M30.375 6.75h3.375v1.688h-3.375V6.75zM33.75 32.063h-13.5a.844.844 0 0 0-.844.843v20.25c0 .467.379.844.844.844h13.5a.844.844 0 0 0 .844-.844v-20.25a.844.844 0 0 0-.844-.843zm-.844 20.25H21.094V33.75h11.812v18.563z"/><path d="M33.75 32.063h-13.5a.844.844 0 0 0-.844.843v20.25c0 .467.379.844.844.844h13.5a.844.844 0 0 0 .844-.844v-20.25a.844.844 0 0 0-.844-.843zm-.844 20.25H21.094V33.75h11.812v18.563z"/><path d="M26.156 35.438h5.063v1.687h-5.063v-1.688z"/><path d="M26.156 35.438h5.063v1.687h-5.063v-1.688zM26.156 38.813h5.063V40.5h-5.063v-1.688z"/><path d="M26.156 38.813h5.063V40.5h-5.063v-1.688zM26.156 42.188h5.063v1.687h-5.063v-1.688z"/><path d="M26.156 42.188h5.063v1.687h-5.063v-1.688zM27 50.625a2.534 2.534 0 0 0 2.531-2.531A2.534 2.534 0 0 0 27 45.562a2.534 2.534 0 0 0-2.531 2.532A2.534 2.534 0 0 0 27 50.625zm0-3.375a.845.845 0 0 1 0 1.688.845.845 0 0 1 0-1.688z"/><path d="M27 50.625a2.534 2.534 0 0 0 2.531-2.531A2.534 2.534 0 0 0 27 45.562a2.534 2.534 0 0 0-2.531 2.532A2.534 2.534 0 0 0 27 50.625zm0-3.375a.845.845 0 0 1 0 1.688.845.845 0 0 1 0-1.688zM30.375 47.25h1.688v1.688h-1.688V47.25z"/><path d="M30.375 47.25h1.688v1.688h-1.688V47.25zM21.938 47.25h1.687v1.688h-1.688V47.25z"/><path d="M21.938 47.25h1.687v1.688h-1.688V47.25zM22.781 35.438h1.688v1.687H22.78v-1.688z"/><path d="M22.781 35.438h1.688v1.687H22.78v-1.688zM22.781 38.813h1.688V40.5H22.78v-1.688z"/><path d="M22.781 38.813h1.688V40.5H22.78v-1.688zM22.781 42.188h1.688v1.687H22.78v-1.688z"/><path d="M22.781 42.188h1.688v1.687H22.78v-1.688zM29.531 24.469h16.032v.999a2.528 2.528 0 0 0-1.688 2.376 2.534 2.534 0 0 0 2.531 2.531 2.534 2.534 0 0 0 2.532-2.531 2.528 2.528 0 0 0-1.688-2.376v-1.843a.844.844 0 0 0-.844-.844H29.531v1.688zm16.875 4.218a.845.845 0 0 1 0-1.687.845.845 0 0 1 0 1.688z"/><path d="M29.531 24.469h16.032v.999a2.528 2.528 0 0 0-1.688 2.376 2.534 2.534 0 0 0 2.531 2.531 2.534 2.534 0 0 0 2.532-2.531 2.528 2.528 0 0 0-1.688-2.376v-1.843a.844.844 0 0 0-.844-.844H29.531v1.688zm16.875 4.218a.845.845 0 0 1 0-1.687.845.845 0 0 1 0 1.688zM7.594 30.375a2.535 2.535 0 0 0 2.531-2.531 2.528 2.528 0 0 0-1.688-2.376v-1H24.47v-1.687H7.594a.844.844 0 0 0-.844.844v1.843a2.528 2.528 0 0 0-1.688 2.376 2.535 2.535 0 0 0 2.532 2.531zm0-3.375a.845.845 0 0 1 0 1.688.845.845 0 0 1 0-1.688z"/><path d="M7.594 30.375a2.535 2.535 0 0 0 2.531-2.531 2.528 2.528 0 0 0-1.688-2.376v-1H24.47v-1.687H7.594a.844.844 0 0 0-.844.844v1.843a2.528 2.528 0 0 0-1.688 2.376 2.535 2.535 0 0 0 2.532 2.531zm0-3.375a.845.845 0 0 1 0 1.688.845.845 0 0 1 0-1.688zM14.344 32.063H.844a.844.844 0 0 0-.844.843v20.25c0 .467.378.844.844.844h13.5a.844.844 0 0 0 .844-.844v-20.25a.844.844 0 0 0-.844-.843zM13.5 33.75v5.063H1.687V33.75H13.5zm0 6.75v5.063H1.687V40.5H13.5zM1.687 52.313V47.25H13.5v5.063H1.687z"/><path d="M14.344 32.063H.844a.844.844 0 0 0-.844.843v20.25c0 .467.378.844.844.844h13.5a.844.844 0 0 0 .844-.844v-20.25a.844.844 0 0 0-.844-.843zM13.5 33.75v5.063H1.687V33.75H13.5zm0 6.75v5.063H1.687V40.5H13.5zM1.687 52.313V47.25H13.5v5.063H1.687z"/><path d="M3.375 35.438H6.75v1.687H3.375v-1.688z"/><path d="M3.375 35.438H6.75v1.687H3.375v-1.688zM8.438 35.438h3.374v1.687H8.438v-1.688z"/><path d="M8.438 35.438h3.374v1.687H8.438v-1.688zM3.375 48.938H6.75v1.687H3.375v-1.688z"/><path d="M3.375 48.938H6.75v1.687H3.375v-1.688zM8.438 48.938h3.374v1.687H8.438v-1.688z"/><path d="M8.438 48.938h3.374v1.687H8.438v-1.688zM3.375 42.188h8.438v1.687H3.374v-1.688z"/><path d="M3.375 42.188h8.438v1.687H3.374v-1.688zM53.156 32.063h-13.5a.844.844 0 0 0-.843.843v20.25c0 .467.378.844.843.844h13.5a.844.844 0 0 0 .844-.844v-20.25a.844.844 0 0 0-.844-.843zm-.843 1.687v5.063H40.5V33.75h11.813zm0 6.75v5.063H40.5V40.5h11.813zM40.5 52.313V47.25h11.813v5.063H40.5z"/><path d="M53.156 32.063h-13.5a.844.844 0 0 0-.843.843v20.25c0 .467.378.844.843.844h13.5a.844.844 0 0 0 .844-.844v-20.25a.844.844 0 0 0-.844-.843zm-.843 1.687v5.063H40.5V33.75h11.813zm0 6.75v5.063H40.5V40.5h11.813zM40.5 52.313V47.25h11.813v5.063H40.5z"/><path d="M42.188 35.438h3.374v1.687h-3.374v-1.688z"/><path d="M42.188 35.438h3.374v1.687h-3.374v-1.688zM47.25 35.438h3.375v1.687H47.25v-1.688z"/><path d="M47.25 35.438h3.375v1.687H47.25v-1.688zM42.188 48.938h3.374v1.687h-3.374v-1.688z"/><path d="M42.188 48.938h3.374v1.687h-3.374v-1.688zM47.25 48.938h3.375v1.687H47.25v-1.688z"/><path d="M47.25 48.938h3.375v1.687H47.25v-1.688zM42.188 42.188h8.437v1.687h-8.438v-1.688z"/><path d="M42.188 42.188h8.437v1.687h-8.438v-1.688z"/></symbol><symbol viewBox="0 0 54 54" id="icon8" xmlns="http://www.w3.org/2000/svg"><path d="M7.841 16.278L5.31 18.81a.843.843 0 0 0 0 1.193l2.531 2.531 1.193-1.193L7.1 19.406l1.935-1.934-1.193-1.194z"/><path d="M7.841 16.278L5.31 18.81a.843.843 0 0 0 0 1.193l2.531 2.531 1.193-1.193L7.1 19.406l1.935-1.934-1.193-1.194zM15.784 22.534l2.531-2.531a.843.843 0 0 0 0-1.193l-2.53-2.532-1.194 1.194 1.935 1.934-1.935 1.935 1.193 1.193z"/><path d="M15.784 22.534l2.531-2.531a.843.843 0 0 0 0-1.193l-2.53-2.532-1.194 1.194 1.935 1.934-1.935 1.935 1.193 1.193zM10.168 21.67l1.688-5.063 1.6.533-1.687 5.063-1.6-.533z"/><path d="M10.168 21.67l1.688-5.063 1.6.533-1.687 5.063-1.6-.533zM52.313 0H27a1.69 1.69 0 0 0-1.688 1.688v50.624A1.69 1.69 0 0 0 27 54h25.313A1.69 1.69 0 0 0 54 52.312V1.688A1.69 1.69 0 0 0 52.312 0zm0 52.313H27V1.687h25.313v50.626z"/><path d="M52.313 0H27a1.69 1.69 0 0 0-1.688 1.688v50.624A1.69 1.69 0 0 0 27 54h25.313A1.69 1.69 0 0 0 54 52.312V1.688A1.69 1.69 0 0 0 52.312 0zm0 52.313H27V1.687h25.313v50.626z"/><path d="M29.531 42.188h3.375V40.5h-2.531V8.437h2.531V6.75h-3.375a.844.844 0 0 0-.843.844v33.75c0 .465.378.843.843.843z"/><path d="M29.531 42.188h3.375V40.5h-2.531V8.437h2.531V6.75h-3.375a.844.844 0 0 0-.843.844v33.75c0 .465.378.843.843.843zM48.938 40.5h-2.532v1.688h3.375a.844.844 0 0 0 .844-.844V7.594a.844.844 0 0 0-.844-.844h-3.375v1.688h2.532V40.5z"/><path d="M48.938 40.5h-2.532v1.688h3.375a.844.844 0 0 0 .844-.844V7.594a.844.844 0 0 0-.844-.844h-3.375v1.688h2.532V40.5zM34.594 6.75h10.125v1.688H34.594V6.75z"/><path d="M34.594 6.75h10.125v1.688H34.594V6.75zM39.656 43.875a3.378 3.378 0 0 0-3.375 3.375 3.378 3.378 0 0 0 3.375 3.375 3.378 3.378 0 0 0 3.375-3.375 3.378 3.378 0 0 0-3.375-3.375zm0 5.063a1.69 1.69 0 0 1-1.687-1.688c0-.93.757-1.688 1.687-1.688s1.688.757 1.688 1.688a1.69 1.69 0 0 1-1.688 1.688z"/><path d="M39.656 43.875a3.378 3.378 0 0 0-3.375 3.375 3.378 3.378 0 0 0 3.375 3.375 3.378 3.378 0 0 0 3.375-3.375 3.378 3.378 0 0 0-3.375-3.375zm0 5.063a1.69 1.69 0 0 1-1.687-1.688c0-.93.757-1.688 1.687-1.688s1.688.757 1.688 1.688a1.69 1.69 0 0 1-1.688 1.688zM35.438 3.375h8.437v1.688h-8.438V3.375z"/><path d="M35.438 3.375h8.437v1.688h-8.438V3.375zM34.594 40.5h10.125v1.688H34.594V40.5z"/><path d="M34.594 40.5h10.125v1.688H34.594V40.5zM0 5.906v42.188c0 .465.378.843.844.843h22.781V47.25H1.687V13.5h21.938v-1.688H1.687V6.75h21.938V5.062H.844A.844.844 0 0 0 0 5.907z"/><path d="M0 5.906v42.188c0 .465.378.843.844.843h22.781V47.25H1.687V13.5h21.938v-1.688H1.687V6.75h21.938V5.062H.844A.844.844 0 0 0 0 5.907z"/><path d="M3.375 8.438h1.688v1.687H3.375V8.437z"/><path d="M3.375 8.438h1.688v1.687H3.375V8.437zM6.75 8.438h1.688v1.687H6.75V8.437z"/><path d="M6.75 8.438h1.688v1.687H6.75V8.437zM10.125 8.438h1.688v1.687h-1.688V8.437z"/><path d="M10.125 8.438h1.688v1.687h-1.688V8.437zM5.063 25.313h6.75V27h-6.75v-1.688z"/><path d="M5.063 25.313h6.75V27h-6.75v-1.688zM13.5 25.313h10.125V27H13.5v-1.688z"/><path d="M13.5 25.313h10.125V27H13.5v-1.688zM18.563 28.688h5.062v1.687h-5.063v-1.688z"/><path d="M18.563 28.688h5.062v1.687h-5.063v-1.688zM5.063 28.688h11.812v1.687H5.062v-1.688z"/><path d="M5.063 28.688h11.812v1.687H5.062v-1.688zM5.063 32.063h6.75v1.687h-6.75v-1.688z"/><path d="M5.063 32.063h6.75v1.687h-6.75v-1.688zM13.5 32.063h10.125v1.687H13.5v-1.688z"/><path d="M13.5 32.063h10.125v1.687H13.5v-1.688zM18.563 35.438h5.062v1.687h-5.063v-1.688z"/><path d="M18.563 35.438h5.062v1.687h-5.063v-1.688zM5.063 35.438h11.812v1.687H5.062v-1.688z"/><path d="M5.063 35.438h11.812v1.687H5.062v-1.688zM5.063 42.188h6.75v1.687h-6.75v-1.688z"/><path d="M5.063 42.188h6.75v1.687h-6.75v-1.688zM13.5 42.188h3.375v1.687H13.5v-1.688z"/><path d="M13.5 42.188h3.375v1.687H13.5v-1.688zM32.063 37.969c0 .465.378.843.843.843h5.063a.844.844 0 0 0 .843-.843v-5.063a.844.844 0 0 0-.843-.843h-5.063a.844.844 0 0 0-.843.843v5.063zm1.687-4.219h3.375v3.375H33.75V33.75z"/><path d="M32.063 37.969c0 .465.378.843.843.843h5.063a.844.844 0 0 0 .843-.843v-5.063a.844.844 0 0 0-.843-.843h-5.063a.844.844 0 0 0-.843.843v5.063zm1.687-4.219h3.375v3.375H33.75V33.75zM46.406 32.063h-5.062a.844.844 0 0 0-.844.843v5.063c0 .465.378.843.844.843h5.062a.844.844 0 0 0 .844-.843v-5.063a.844.844 0 0 0-.844-.843zm-.843 5.062h-3.376V33.75h3.376v3.375z"/><path d="M46.406 32.063h-5.062a.844.844 0 0 0-.844.843v5.063c0 .465.378.843.844.843h5.062a.844.844 0 0 0 .844-.843v-5.063a.844.844 0 0 0-.844-.843zm-.843 5.062h-3.376V33.75h3.376v3.375zM32.063 10.969v10.125c0 .465.378.843.843.843h13.5a.844.844 0 0 0 .844-.843V10.969a.844.844 0 0 0-.844-.844h-13.5a.844.844 0 0 0-.843.844zm1.687.844h11.813v8.437H33.75v-8.438z"/><path d="M32.063 10.969v10.125c0 .465.378.843.843.843h13.5a.844.844 0 0 0 .844-.843V10.969a.844.844 0 0 0-.844-.844h-13.5a.844.844 0 0 0-.843.844zm1.687.844h11.813v8.437H33.75v-8.438zM47.25 24.469a.844.844 0 0 0-.844-.844h-13.5a.844.844 0 0 0-.843.844v5.062c0 .466.378.844.843.844h13.5a.844.844 0 0 0 .844-.844V24.47zm-1.688 4.218H33.75v-3.375h11.813v3.375z"/><path d="M47.25 24.469a.844.844 0 0 0-.844-.844h-13.5a.844.844 0 0 0-.843.844v5.062c0 .466.378.844.843.844h13.5a.844.844 0 0 0 .844-.844V24.47zm-1.688 4.218H33.75v-3.375h11.813v3.375z"/></symbol><symbol viewBox="0 0 54 54" id="icon9" xmlns="http://www.w3.org/2000/svg"><path d="M53.156 3.797H.844A.843.843 0 0 0 0 4.64v44.718c0 .467.377.844.844.844H20.25v-1.687H1.687V12.234h50.626v36.282H33.75v1.687h19.406A.843.843 0 0 0 54 49.36V4.641a.843.843 0 0 0-.844-.844zm-51.468 6.75V5.484h50.624v5.063H1.688z"/><path d="M53.156 3.797H.844A.843.843 0 0 0 0 4.64v44.718c0 .467.377.844.844.844H20.25v-1.687H1.687V12.234h50.626v36.282H33.75v1.687h19.406A.843.843 0 0 0 54 49.36V4.641a.843.843 0 0 0-.844-.844zm-51.468 6.75V5.484h50.624v5.063H1.688z"/><path d="M43.875 7.172h5.063v1.687h-5.063V7.172z"/><path d="M43.875 7.172h5.063v1.687h-5.063V7.172zM36.302 40.779l-.017-1.199 1.207-1.207 1.176.018c.322-.011.59-.158.743-.422l1.474-2.55a.844.844 0 0 0-.006-.855l-.61-1.024.44-1.648 1.045-.584a.842.842 0 0 0 .434-.737v-2.946a.842.842 0 0 0-.433-.736l-1.045-.584-.44-1.648.61-1.024a.842.842 0 0 0 .006-.853l-1.474-2.552c-.153-.264-.41-.407-.743-.422l-1.197.018-1.208-1.208.017-1.175a.848.848 0 0 0-.422-.743l-2.55-1.473a.848.848 0 0 0-.854.005l-1.024.61-1.648-.44-.584-1.045a.842.842 0 0 0-.738-.433h-2.945a.842.842 0 0 0-.737.432l-.584 1.045-1.647.44-1.024-.61a.847.847 0 0 0-.854-.005l-2.551 1.473a.848.848 0 0 0-.422.743l.018 1.197-1.208 1.207-1.176-.016c-.303.016-.59.158-.742.422l-1.474 2.55a.844.844 0 0 0 .006.855l.61 1.023-.44 1.649-1.046.584a.841.841 0 0 0-.432.737v2.945c0 .305.164.587.432.736l1.045.584.44 1.649-.61 1.024a.842.842 0 0 0-.006.853l1.474 2.55a.866.866 0 0 0 .742.423l1.198-.017 1.207 1.207-.016 1.177a.846.846 0 0 0 .422.742l2.55 1.473a.841.841 0 0 0 .854-.006l1.024-.61 1.648.44.584 1.046c.15.269.431.433.738.433h2.945a.843.843 0 0 0 .737-.432l.584-1.046 1.647-.44 1.024.61a.84.84 0 0 0 .854.006l2.55-1.473a.847.847 0 0 0 .422-.743zm-1.693-.472l-1.695.978-.903-.54a.835.835 0 0 0-.65-.089l-2.337.625a.841.841 0 0 0-.519.404l-.516.924h-1.956l-.516-.925a.85.85 0 0 0-.518-.403l-2.338-.625a.84.84 0 0 0-.65.09l-.904.539-1.694-.978.015-1.037a.848.848 0 0 0-.246-.609l-1.711-1.71a.803.803 0 0 0-.609-.248l-1.06.015-.977-1.694.539-.904a.838.838 0 0 0 .09-.65l-.626-2.336a.84.84 0 0 0-.403-.52l-.925-.516v-1.956l.925-.516a.85.85 0 0 0 .403-.518l.625-2.337a.848.848 0 0 0-.09-.65l-.538-.904.978-1.695 1.037.016h.012a.842.842 0 0 0 .596-.248l1.711-1.71a.845.845 0 0 0 .247-.61l-.016-1.058 1.695-.978.904.54a.83.83 0 0 0 .65.089l2.337-.625a.842.842 0 0 0 .518-.404l.516-.925h1.957l.516.925a.85.85 0 0 0 .518.404l2.337.625a.84.84 0 0 0 .65-.09l.905-.54 1.693.979-.015 1.037a.848.848 0 0 0 .247.61l1.711 1.71c.161.16.363.236.61.247l1.058-.016.978 1.696-.539.903a.838.838 0 0 0-.09.65l.626 2.337c.058.22.204.407.403.518l.925.516v1.956l-.925.517a.85.85 0 0 0-.403.518l-.625 2.336a.848.848 0 0 0 .09.65l.538.905-.978 1.694-1.037-.015a.847.847 0 0 0-.61.247l-1.71 1.71a.843.843 0 0 0-.246.61l.015 1.059z"/><path d="M36.302 40.779l-.017-1.199 1.207-1.207 1.176.018c.322-.011.59-.158.743-.422l1.474-2.55a.844.844 0 0 0-.006-.855l-.61-1.024.44-1.648 1.045-.584a.842.842 0 0 0 .434-.737v-2.946a.842.842 0 0 0-.433-.736l-1.045-.584-.44-1.648.61-1.024a.842.842 0 0 0 .006-.853l-1.474-2.552c-.153-.264-.41-.407-.743-.422l-1.197.018-1.208-1.208.017-1.175a.848.848 0 0 0-.422-.743l-2.55-1.473a.848.848 0 0 0-.854.005l-1.024.61-1.648-.44-.584-1.045a.842.842 0 0 0-.738-.433h-2.945a.842.842 0 0 0-.737.432l-.584 1.045-1.647.44-1.024-.61a.847.847 0 0 0-.854-.005l-2.551 1.473a.848.848 0 0 0-.422.743l.018 1.197-1.208 1.207-1.176-.016c-.303.016-.59.158-.742.422l-1.474 2.55a.844.844 0 0 0 .006.855l.61 1.023-.44 1.649-1.046.584a.841.841 0 0 0-.432.737v2.945c0 .305.164.587.432.736l1.045.584.44 1.649-.61 1.024a.842.842 0 0 0-.006.853l1.474 2.55a.866.866 0 0 0 .742.423l1.198-.017 1.207 1.207-.016 1.177a.846.846 0 0 0 .422.742l2.55 1.473a.841.841 0 0 0 .854-.006l1.024-.61 1.648.44.584 1.046c.15.269.431.433.738.433h2.945a.843.843 0 0 0 .737-.432l.584-1.046 1.647-.44 1.024.61a.84.84 0 0 0 .854.006l2.55-1.473a.847.847 0 0 0 .422-.743zm-1.693-.472l-1.695.978-.903-.54a.835.835 0 0 0-.65-.089l-2.337.625a.841.841 0 0 0-.519.404l-.516.924h-1.956l-.516-.925a.85.85 0 0 0-.518-.403l-2.338-.625a.84.84 0 0 0-.65.09l-.904.539-1.694-.978.015-1.037a.848.848 0 0 0-.246-.609l-1.711-1.71a.803.803 0 0 0-.609-.248l-1.06.015-.977-1.694.539-.904a.838.838 0 0 0 .09-.65l-.626-2.336a.84.84 0 0 0-.403-.52l-.925-.516v-1.956l.925-.516a.85.85 0 0 0 .403-.518l.625-2.337a.848.848 0 0 0-.09-.65l-.538-.904.978-1.695 1.037.016h.012a.842.842 0 0 0 .596-.248l1.711-1.71a.845.845 0 0 0 .247-.61l-.016-1.058 1.695-.978.904.54a.83.83 0 0 0 .65.089l2.337-.625a.842.842 0 0 0 .518-.404l.516-.925h1.957l.516.925a.85.85 0 0 0 .518.404l2.337.625a.84.84 0 0 0 .65-.09l.905-.54 1.693.979-.015 1.037a.848.848 0 0 0 .247.61l1.711 1.71c.161.16.363.236.61.247l1.058-.016.978 1.696-.539.903a.838.838 0 0 0-.09.65l.626 2.337c.058.22.204.407.403.518l.925.516v1.956l-.925.517a.85.85 0 0 0-.403.518l-.625 2.336a.848.848 0 0 0 .09.65l.538.905-.978 1.694-1.037-.015a.847.847 0 0 0-.61.247l-1.71 1.71a.843.843 0 0 0-.246.61l.015 1.059z"/><path d="M27 18.984c-5.583 0-10.125 4.542-10.125 10.125 0 5.584 4.542 10.125 10.125 10.125s10.125-4.541 10.125-10.125c0-5.583-4.542-10.125-10.125-10.125zm-.836 18.52l.042-5.012a.859.859 0 0 0-.093-.394l-1.644-3.193v-2.97l.521-1.044h4.02l.521 1.042v2.977l-1.599 3.196a.855.855 0 0 0-.088.378v5.02a8.521 8.521 0 0 1-1.68 0zm3.367-.346v-4.474l1.6-3.196a.855.855 0 0 0 .088-.379v-3.375a.84.84 0 0 0-.089-.377l-.844-1.687a.844.844 0 0 0-.755-.467H24.47c-.32 0-.612.18-.755.467l-.844 1.687a.846.846 0 0 0-.089.377v3.375a.84.84 0 0 0 .094.387l1.641 3.189-.037 4.476c-3.425-1.075-5.916-4.277-5.916-8.052 0-4.652 3.784-8.437 8.437-8.437s8.438 3.785 8.438 8.437c0 3.771-2.488 6.97-5.907 8.049z"/><path d="M27 18.984c-5.583 0-10.125 4.542-10.125 10.125 0 5.584 4.542 10.125 10.125 10.125s10.125-4.541 10.125-10.125c0-5.583-4.542-10.125-10.125-10.125zm-.836 18.52l.042-5.012a.859.859 0 0 0-.093-.394l-1.644-3.193v-2.97l.521-1.044h4.02l.521 1.042v2.977l-1.599 3.196a.855.855 0 0 0-.088.378v5.02a8.521 8.521 0 0 1-1.68 0zm3.367-.346v-4.474l1.6-3.196a.855.855 0 0 0 .088-.379v-3.375a.84.84 0 0 0-.089-.377l-.844-1.687a.844.844 0 0 0-.755-.467H24.47c-.32 0-.612.18-.755.467l-.844 1.687a.846.846 0 0 0-.089.377v3.375a.84.84 0 0 0 .094.387l1.641 3.189-.037 4.476c-3.425-1.075-5.916-4.277-5.916-8.052 0-4.652 3.784-8.437 8.437-8.437s8.438 3.785 8.438 8.437c0 3.771-2.488 6.97-5.907 8.049zM30.375 48.516h-6.75v-4.22h-1.688v4.22c0 .93.757 1.687 1.688 1.687h6.75a1.69 1.69 0 0 0 1.688-1.687v-4.22h-1.688v4.22z"/><path d="M30.375 48.516h-6.75v-4.22h-1.688v4.22c0 .93.757 1.687 1.688 1.687h6.75a1.69 1.69 0 0 0 1.688-1.687v-4.22h-1.688v4.22z"/><path d="M26.156 45.14h1.688v2.532h-1.688V45.14z"/><path d="M26.156 45.14h1.688v2.532h-1.688V45.14zM5.063 7.172H6.75v1.687H5.062V7.172z"/><path d="M5.063 7.172H6.75v1.687H5.062V7.172zM8.438 7.172h1.687v1.687H8.437V7.172z"/><path d="M8.438 7.172h1.687v1.687H8.437V7.172zM11.813 7.172H13.5v1.687h-1.688V7.172z"/><path d="M11.813 7.172H13.5v1.687h-1.688V7.172z"/></symbol></svg>