<svg width="54" height="54" fill="none" xmlns="http://www.w3.org/2000/svg"><path d="M27.844 15.188h-1.688v1.687h1.688v-1.688zm-3.375 0H22.78v1.687h1.688v-1.688zm6.75 0H29.53v1.687h1.688v-1.688zM10.969 47.25H9.28v1.688h1.688V47.25zm3.375 0h-1.688v1.688h1.688V47.25zm3.375 0H16.03v1.688h1.688V47.25z" fill="#fff"/><path d="M49.781 1.688H4.22a2.531 2.531 0 0 0-2.532 2.53v43.876a4.224 4.224 0 0 0 4.22 4.218h15.187a4.224 4.224 0 0 0 4.218-4.218v-.844h10.125v.844a4.224 4.224 0 0 0 4.22 4.218h8.437a4.224 4.224 0 0 0 4.218-4.218V4.219a2.531 2.531 0 0 0-2.53-2.532zM3.375 4.217a.844.844 0 0 1 .844-.843H49.78a.844.844 0 0 1 .844.844V26.15a4.17 4.17 0 0 0-.844-.474V4.219H4.22v14.7c-.032.013-.063.03-.094.043a21.94 21.94 0 0 0-.75.443V4.219zM42.188 27h3.374v.844h-3.374V27zM5.906 18.562V5.906h42.188v19.407h-8.438a4.226 4.226 0 0 0-4.134 3.375h-10.21V22.78a4.224 4.224 0 0 0-4.218-4.218H5.906zm10.969 1.688v.844a.844.844 0 0 1-.844.843H10.97a.844.844 0 0 1-.844-.843v-.844h6.75zm8.438 10.125h10.125v5.063H25.312v-5.063zm-1.688 17.719a2.531 2.531 0 0 1-2.531 2.531H5.906a2.531 2.531 0 0 1-2.531-2.531V22.78a2.526 2.526 0 0 1 1.916-2.453c.2-.054.408-.08.615-.078h2.532v.844a2.531 2.531 0 0 0 2.53 2.531h5.063a2.531 2.531 0 0 0 2.532-2.531v-.844h2.53a2.531 2.531 0 0 1 2.532 2.531v25.313zm1.688-2.532v-8.437h5.343l3.516 8.438h-8.86zm7.171-8.437h2.953v7.087l-2.953-7.087zm18.141 10.969a2.531 2.531 0 0 1-2.531 2.531h-8.438a2.531 2.531 0 0 1-2.531-2.531V29.53A2.531 2.531 0 0 1 39.656 27h.844v.844a1.687 1.687 0 0 0 1.688 1.687h3.374a1.687 1.687 0 0 0 1.688-1.687V27h.844c.203-.002.405.024.6.077l.03.006h.012a2.518 2.518 0 0 1 1.889 2.448v18.563z" fill="#fff"/><path d="M44.719 47.25H43.03v1.688h1.688V47.25zm3.375 0h-1.688v1.688h1.688V47.25zm-6.75 0h-1.688v1.688h1.688V47.25z" fill="#fff"/></svg>