<svg width="54" height="54" fill="none" xmlns="http://www.w3.org/2000/svg"><path d="M47.25 16.875C47.25 7.57 39.68 0 30.375 0h-4.219C16.852 0 9.281 7.57 9.281 16.875v5.75L5.118 33.446a.841.841 0 0 0-.056.303v3.375c0 .465.377.844.844.844h5.331l1.552 7.759a.843.843 0 0 0 .828.678h5.79v6.75c0 .466.376.844.843.844h18.563a.843.843 0 0 0 .843-.844v-7.27l3.045-3.383A17.691 17.691 0 0 0 47.25 30.65V16.875zm-1.688 13.774c0 3.967-1.46 7.775-4.114 10.724l-3.263 3.624a.849.849 0 0 0-.216.566v6.75H21.094v-6.75a.844.844 0 0 0-.844-.844h-5.943l-1.551-7.76a.844.844 0 0 0-.827-.678H6.75v-2.374l4.163-10.823a.841.841 0 0 0 .056-.303v-5.906c0-8.374 6.813-15.188 15.187-15.188h4.219c8.374 0 15.188 6.814 15.188 15.188v13.774z" fill="#219653"/><path d="M27.844 6.75c-6.979 0-12.657 5.678-12.657 12.656a12.67 12.67 0 0 0 5.432 10.392l.964-1.386a10.98 10.98 0 0 1-4.708-9.006c0-6.048 4.92-10.968 10.969-10.968 6.048 0 10.968 4.92 10.968 10.968a11 11 0 0 1-4.587 8.922l.984 1.372A12.696 12.696 0 0 0 40.5 19.406c0-6.978-5.678-12.656-12.656-12.656z" fill="#219653"/><path d="M29.508 12.317a.846.846 0 0 0-.773-.505h-1.782a.846.846 0 0 0-.773.505l-3.352 7.638a.851.851 0 0 0-.057.495l1.384 7.394h-.53a.845.845 0 0 0-.84.928l.844 8.438c.043.43.406.759.84.759h6.75a.844.844 0 0 0 .84-.76l.843-8.437a.845.845 0 0 0-.84-.928h-.53l1.385-7.394a.858.858 0 0 0-.056-.495l-3.353-7.638zm1.622 17.214l-.253 2.532h-6.066l-.253-2.532h6.572zm-.675 6.75h-5.222l-.253-2.531h5.728l-.253 2.531zm-1.767-8.437v-6.75h.843v-1.688h-3.375v1.688H27v6.75h-1.128l-1.394-7.449 3.027-6.895h.679l3.026 6.895-1.395 7.449h-1.128zM4.219 11.813h1.687V13.5H4.22v-1.688zm0 3.375h1.687v1.687H4.22v-1.688z" fill="#219653"/><path d="M5.906 13.5h1.688v1.688H5.906V13.5zm-3.375 0H4.22v1.688H2.53V13.5zm45.563 24.469h1.687v1.687h-1.687V37.97zm0 3.375h1.687v1.687h-1.687v-1.687zm1.687-1.688h1.688v1.688H49.78v-1.688zm-3.375 0h1.688v1.688h-1.688v-1.688z" fill="#219653"/></svg>