<svg width="54" height="54" fill="none" xmlns="http://www.w3.org/2000/svg"><path d="M0 5.906v42.188c0 .465.377.843.844.843h10.969V47.25H1.687V13.5h10.126v-1.688H1.687V6.75h10.126V5.062H.842A.844.844 0 0 0 0 5.907z" fill="#000"/><path d="M0 5.906v42.188c0 .465.377.843.844.843h10.969V47.25H1.687V13.5h10.126v-1.688H1.687V6.75h10.126V5.062H.842A.844.844 0 0 0 0 5.907z" fill="#118638"/><path d="M3.375 8.438h1.688v1.687H3.375V8.437z" fill="#000"/><path d="M3.375 8.438h1.688v1.687H3.375V8.437z" fill="#118638"/><path d="M6.75 8.438h1.688v1.687H6.75V8.437z" fill="#000"/><path d="M6.75 8.438h1.688v1.687H6.75V8.437z" fill="#118638"/><path d="M10.125 8.438h1.688v1.687h-1.688V8.437z" fill="#000"/><path d="M10.125 8.438h1.688v1.687h-1.688V8.437z" fill="#118638"/><path d="M53.156 5.063H42.188V6.75h10.124v5.063H42.188V13.5h10.124v33.75H42.188v1.688h10.968a.844.844 0 0 0 .844-.844V5.906a.844.844 0 0 0-.844-.843z" fill="#000"/><path d="M53.156 5.063H42.188V6.75h10.124v5.063H42.188V13.5h10.124v33.75H42.188v1.688h10.968a.844.844 0 0 0 .844-.844V5.906a.844.844 0 0 0-.844-.843z" fill="#118638"/><path d="M45.563 8.438h5.062v1.687h-5.063V8.437z" fill="#000"/><path d="M45.563 8.438h5.062v1.687h-5.063V8.437z" fill="#118638"/><path d="M38.813 1.688H15.186A1.69 1.69 0 0 0 13.5 3.375v47.25c0 .93.757 1.688 1.688 1.688h23.624a1.69 1.69 0 0 0 1.688-1.688V3.375a1.69 1.69 0 0 0-1.688-1.688zm0 48.937H15.186V3.375h23.626v47.25z" fill="#000"/><path d="M38.813 1.688H15.186A1.69 1.69 0 0 0 13.5 3.375v47.25c0 .93.757 1.688 1.688 1.688h23.624a1.69 1.69 0 0 0 1.688-1.688V3.375a1.69 1.69 0 0 0-1.688-1.688zm0 48.937H15.186V3.375h23.626v47.25z" fill="#118638"/><path d="M21.938 24.469h1.687v-3.375c0-.465.378-.844.844-.844h5.062c.466 0 .844.379.844.844v3.375h1.688v-3.375a2.535 2.535 0 0 0-2.532-2.532H24.47a2.535 2.535 0 0 0-2.532 2.532v3.375z" fill="#000"/><path d="M21.938 24.469h1.687v-3.375c0-.465.378-.844.844-.844h5.062c.466 0 .844.379.844.844v3.375h1.688v-3.375a2.535 2.535 0 0 0-2.532-2.532H24.47a2.535 2.535 0 0 0-2.532 2.532v3.375z" fill="#118638"/><path d="M27 17.719a4.224 4.224 0 0 0 4.219-4.219A4.224 4.224 0 0 0 27 9.281a4.224 4.224 0 0 0-4.219 4.219A4.224 4.224 0 0 0 27 17.719zm0-6.75a2.534 2.534 0 0 1 2.531 2.531A2.534 2.534 0 0 1 27 16.031a2.534 2.534 0 0 1-2.531-2.531A2.534 2.534 0 0 1 27 10.969z" fill="#000"/><path d="M27 17.719a4.224 4.224 0 0 0 4.219-4.219A4.224 4.224 0 0 0 27 9.281a4.224 4.224 0 0 0-4.219 4.219A4.224 4.224 0 0 0 27 17.719zm0-6.75a2.534 2.534 0 0 1 2.531 2.531A2.534 2.534 0 0 1 27 16.031a2.534 2.534 0 0 1-2.531-2.531A2.534 2.534 0 0 1 27 10.969z" fill="#118638"/><path d="M18.563 32.906h16.875a1.69 1.69 0 0 0 1.687-1.687v-2.532A1.69 1.69 0 0 0 35.437 27H18.564a1.69 1.69 0 0 0-1.688 1.688v2.53a1.69 1.69 0 0 0 1.688 1.688zm16.875-1.687H23.625v-2.532h11.813v2.532zm-16.876-2.532h3.375v2.532h-3.375v-2.532z" fill="#000"/><path d="M18.563 32.906h16.875a1.69 1.69 0 0 0 1.687-1.687v-2.532A1.69 1.69 0 0 0 35.437 27H18.564a1.69 1.69 0 0 0-1.688 1.688v2.53a1.69 1.69 0 0 0 1.688 1.688zm16.875-1.687H23.625v-2.532h11.813v2.532zm-16.876-2.532h3.375v2.532h-3.375v-2.532z" fill="#118638"/><path d="M31.219 34.594H22.78a1.69 1.69 0 0 0-1.687 1.687v1.688c0 .93.757 1.687 1.687 1.687h8.438a1.69 1.69 0 0 0 1.687-1.687V36.28a1.69 1.69 0 0 0-1.687-1.687zm-8.438 3.375V36.28h8.438v1.688h-8.438z" fill="#000"/><path d="M31.219 34.594H22.78a1.69 1.69 0 0 0-1.687 1.687v1.688c0 .93.757 1.687 1.687 1.687h8.438a1.69 1.69 0 0 0 1.687-1.687V36.28a1.69 1.69 0 0 0-1.687-1.687zm-8.438 3.375V36.28h8.438v1.688h-8.438z" fill="#118638"/><path d="M33.75 47.25h3.375v1.688H33.75V47.25z" fill="#000"/><path d="M33.75 47.25h3.375v1.688H33.75V47.25z" fill="#118638"/><path d="M30.375 47.25h1.688v1.688h-1.688V47.25z" fill="#000"/><path d="M30.375 47.25h1.688v1.688h-1.688V47.25z" fill="#118638"/><path d="M16.875 5.063h1.688V6.75h-1.688V5.062z" fill="#000"/><path d="M16.875 5.063h1.688V6.75h-1.688V5.062z" fill="#118638"/><path d="M20.25 5.063h1.688V6.75H20.25V5.062z" fill="#000"/><path d="M20.25 5.063h1.688V6.75H20.25V5.062z" fill="#118638"/><path d="M21.094 43.031h1.687v1.688h-1.687V43.03z" fill="#000"/><path d="M21.094 43.031h1.687v1.688h-1.687V43.03z" fill="#118638"/><path d="M24.469 43.031h1.687v1.688H24.47V43.03z" fill="#000"/><path d="M24.469 43.031h1.687v1.688H24.47V43.03z" fill="#118638"/><path d="M27.844 43.031h1.687v1.688h-1.687V43.03z" fill="#000"/><path d="M27.844 43.031h1.687v1.688h-1.687V43.03z" fill="#118638"/><path d="M31.219 43.031h1.687v1.688H31.22V43.03z" fill="#000"/><path d="M31.219 43.031h1.687v1.688H31.22V43.03z" fill="#118638"/><path d="M35.438 5.063h1.687V6.75h-1.688V5.062z" fill="#000"/><path d="M35.438 5.063h1.687V6.75h-1.688V5.062z" fill="#118638"/><path d="M26.156 21.938h1.688v2.53h-1.688v-2.53z" fill="#000"/><path d="M26.156 21.938h1.688v2.53h-1.688v-2.53z" fill="#118638"/></svg>