<svg width="54" height="54" fill="none" xmlns="http://www.w3.org/2000/svg"><path d="M26.156 21.938v3.53a2.528 2.528 0 0 0-1.687 2.376A2.534 2.534 0 0 0 27 30.375a2.534 2.534 0 0 0 2.531-2.531 2.528 2.528 0 0 0-1.687-2.376v-3.53h-1.688zm.844 6.75A.845.845 0 0 1 27 27a.845.845 0 0 1 0 1.688z" fill="#000"/><path d="M26.156 21.938v3.53a2.528 2.528 0 0 0-1.687 2.376A2.534 2.534 0 0 0 27 30.375a2.534 2.534 0 0 0 2.531-2.531 2.528 2.528 0 0 0-1.687-2.376v-3.53h-1.688zm.844 6.75A.845.845 0 0 1 27 27a.845.845 0 0 1 0 1.688z" fill="#118638"/><path d="M23.028 10.372l-2.53 2.531a.843.843 0 0 0 0 1.194l2.53 2.53 1.194-1.192-1.935-1.935 1.935-1.935-1.194-1.193z" fill="#000"/><path d="M23.028 10.372l-2.53 2.531a.843.843 0 0 0 0 1.194l2.53 2.53 1.194-1.192-1.935-1.935 1.935-1.935-1.194-1.193z" fill="#118638"/><path d="M30.972 10.372l-1.194 1.193 1.935 1.935-1.935 1.935 1.194 1.193 2.53-2.531a.843.843 0 0 0 0-1.194l-2.53-2.53z" fill="#000"/><path d="M30.972 10.372l-1.194 1.193 1.935 1.935-1.935 1.935 1.194 1.193 2.53-2.531a.843.843 0 0 0 0-1.194l-2.53-2.53z" fill="#118638"/><path d="M25.356 15.765l1.688-5.062 1.601.534-1.689 5.062-1.6-.534z" fill="#000"/><path d="M25.356 15.765l1.688-5.062 1.601.534-1.689 5.062-1.6-.534z" fill="#118638"/><path d="M16.875 20.25h20.25a.844.844 0 0 0 .844-.844V.844A.844.844 0 0 0 37.125 0h-20.25a.844.844 0 0 0-.844.844v18.562c0 .467.379.844.844.844zm.844-1.688v-13.5H36.28v13.5H17.72zm0-16.875H36.28v1.688H17.72V1.687z" fill="#000"/><path d="M16.875 20.25h20.25a.844.844 0 0 0 .844-.844V.844A.844.844 0 0 0 37.125 0h-20.25a.844.844 0 0 0-.844.844v18.562c0 .467.379.844.844.844zm.844-1.688v-13.5H36.28v13.5H17.72zm0-16.875H36.28v1.688H17.72V1.687z" fill="#118638"/><path d="M20.25 6.75h1.688v1.688H20.25V6.75z" fill="#000"/><path d="M20.25 6.75h1.688v1.688H20.25V6.75z" fill="#118638"/><path d="M23.625 6.75h1.688v1.688h-1.688V6.75z" fill="#000"/><path d="M23.625 6.75h1.688v1.688h-1.688V6.75z" fill="#118638"/><path d="M30.375 6.75h3.375v1.688h-3.375V6.75z" fill="#000"/><path d="M30.375 6.75h3.375v1.688h-3.375V6.75z" fill="#118638"/><path d="M33.75 32.063h-13.5a.844.844 0 0 0-.844.843v20.25c0 .467.379.844.844.844h13.5a.844.844 0 0 0 .844-.844v-20.25a.844.844 0 0 0-.844-.843zm-.844 20.25H21.094V33.75h11.812v18.563z" fill="#000"/><path d="M33.75 32.063h-13.5a.844.844 0 0 0-.844.843v20.25c0 .467.379.844.844.844h13.5a.844.844 0 0 0 .844-.844v-20.25a.844.844 0 0 0-.844-.843zm-.844 20.25H21.094V33.75h11.812v18.563z" fill="#118638"/><path d="M26.156 35.438h5.063v1.687h-5.063v-1.688z" fill="#000"/><path d="M26.156 35.438h5.063v1.687h-5.063v-1.688z" fill="#118638"/><path d="M26.156 38.813h5.063V40.5h-5.063v-1.688z" fill="#000"/><path d="M26.156 38.813h5.063V40.5h-5.063v-1.688z" fill="#118638"/><path d="M26.156 42.188h5.063v1.687h-5.063v-1.688z" fill="#000"/><path d="M26.156 42.188h5.063v1.687h-5.063v-1.688z" fill="#118638"/><path d="M27 50.625a2.534 2.534 0 0 0 2.531-2.531A2.534 2.534 0 0 0 27 45.562a2.534 2.534 0 0 0-2.531 2.532A2.534 2.534 0 0 0 27 50.625zm0-3.375a.845.845 0 0 1 0 1.688.845.845 0 0 1 0-1.688z" fill="#000"/><path d="M27 50.625a2.534 2.534 0 0 0 2.531-2.531A2.534 2.534 0 0 0 27 45.562a2.534 2.534 0 0 0-2.531 2.532A2.534 2.534 0 0 0 27 50.625zm0-3.375a.845.845 0 0 1 0 1.688.845.845 0 0 1 0-1.688z" fill="#118638"/><path d="M30.375 47.25h1.688v1.688h-1.688V47.25z" fill="#000"/><path d="M30.375 47.25h1.688v1.688h-1.688V47.25z" fill="#118638"/><path d="M21.938 47.25h1.687v1.688h-1.688V47.25z" fill="#000"/><path d="M21.938 47.25h1.687v1.688h-1.688V47.25z" fill="#118638"/><path d="M22.781 35.438h1.688v1.687H22.78v-1.688z" fill="#000"/><path d="M22.781 35.438h1.688v1.687H22.78v-1.688z" fill="#118638"/><path d="M22.781 38.813h1.688V40.5H22.78v-1.688z" fill="#000"/><path d="M22.781 38.813h1.688V40.5H22.78v-1.688z" fill="#118638"/><path d="M22.781 42.188h1.688v1.687H22.78v-1.688z" fill="#000"/><path d="M22.781 42.188h1.688v1.687H22.78v-1.688z" fill="#118638"/><path d="M29.531 24.469h16.032v.999a2.528 2.528 0 0 0-1.688 2.376 2.534 2.534 0 0 0 2.531 2.531 2.534 2.534 0 0 0 2.532-2.531 2.528 2.528 0 0 0-1.688-2.376v-1.843a.844.844 0 0 0-.844-.844H29.531v1.688zm16.875 4.218a.845.845 0 0 1 0-1.687.845.845 0 0 1 0 1.688z" fill="#000"/><path d="M29.531 24.469h16.032v.999a2.528 2.528 0 0 0-1.688 2.376 2.534 2.534 0 0 0 2.531 2.531 2.534 2.534 0 0 0 2.532-2.531 2.528 2.528 0 0 0-1.688-2.376v-1.843a.844.844 0 0 0-.844-.844H29.531v1.688zm16.875 4.218a.845.845 0 0 1 0-1.687.845.845 0 0 1 0 1.688z" fill="#118638"/><path d="M7.594 30.375a2.535 2.535 0 0 0 2.531-2.531 2.528 2.528 0 0 0-1.688-2.376v-1H24.47v-1.687H7.594a.844.844 0 0 0-.844.844v1.843a2.528 2.528 0 0 0-1.688 2.376 2.535 2.535 0 0 0 2.532 2.531zm0-3.375a.845.845 0 0 1 0 1.688.845.845 0 0 1 0-1.688z" fill="#000"/><path d="M7.594 30.375a2.535 2.535 0 0 0 2.531-2.531 2.528 2.528 0 0 0-1.688-2.376v-1H24.47v-1.687H7.594a.844.844 0 0 0-.844.844v1.843a2.528 2.528 0 0 0-1.688 2.376 2.535 2.535 0 0 0 2.532 2.531zm0-3.375a.845.845 0 0 1 0 1.688.845.845 0 0 1 0-1.688z" fill="#118638"/><path d="M14.344 32.063H.844a.844.844 0 0 0-.844.843v20.25c0 .467.378.844.844.844h13.5a.844.844 0 0 0 .844-.844v-20.25a.844.844 0 0 0-.844-.843zM13.5 33.75v5.063H1.687V33.75H13.5zm0 6.75v5.063H1.687V40.5H13.5zM1.687 52.313V47.25H13.5v5.063H1.687z" fill="#000"/><path d="M14.344 32.063H.844a.844.844 0 0 0-.844.843v20.25c0 .467.378.844.844.844h13.5a.844.844 0 0 0 .844-.844v-20.25a.844.844 0 0 0-.844-.843zM13.5 33.75v5.063H1.687V33.75H13.5zm0 6.75v5.063H1.687V40.5H13.5zM1.687 52.313V47.25H13.5v5.063H1.687z" fill="#118638"/><path d="M3.375 35.438H6.75v1.687H3.375v-1.688z" fill="#000"/><path d="M3.375 35.438H6.75v1.687H3.375v-1.688z" fill="#118638"/><path d="M8.438 35.438h3.374v1.687H8.438v-1.688z" fill="#000"/><path d="M8.438 35.438h3.374v1.687H8.438v-1.688z" fill="#118638"/><path d="M3.375 48.938H6.75v1.687H3.375v-1.688z" fill="#000"/><path d="M3.375 48.938H6.75v1.687H3.375v-1.688z" fill="#118638"/><path d="M8.438 48.938h3.374v1.687H8.438v-1.688z" fill="#000"/><path d="M8.438 48.938h3.374v1.687H8.438v-1.688z" fill="#118638"/><path d="M3.375 42.188h8.438v1.687H3.374v-1.688z" fill="#000"/><path d="M3.375 42.188h8.438v1.687H3.374v-1.688z" fill="#118638"/><path d="M53.156 32.063h-13.5a.844.844 0 0 0-.843.843v20.25c0 .467.378.844.843.844h13.5a.844.844 0 0 0 .844-.844v-20.25a.844.844 0 0 0-.844-.843zm-.843 1.687v5.063H40.5V33.75h11.813zm0 6.75v5.063H40.5V40.5h11.813zM40.5 52.313V47.25h11.813v5.063H40.5z" fill="#000"/><path d="M53.156 32.063h-13.5a.844.844 0 0 0-.843.843v20.25c0 .467.378.844.843.844h13.5a.844.844 0 0 0 .844-.844v-20.25a.844.844 0 0 0-.844-.843zm-.843 1.687v5.063H40.5V33.75h11.813zm0 6.75v5.063H40.5V40.5h11.813zM40.5 52.313V47.25h11.813v5.063H40.5z" fill="#118638"/><path d="M42.188 35.438h3.374v1.687h-3.374v-1.688z" fill="#000"/><path d="M42.188 35.438h3.374v1.687h-3.374v-1.688z" fill="#118638"/><path d="M47.25 35.438h3.375v1.687H47.25v-1.688z" fill="#000"/><path d="M47.25 35.438h3.375v1.687H47.25v-1.688z" fill="#118638"/><path d="M42.188 48.938h3.374v1.687h-3.374v-1.688z" fill="#000"/><path d="M42.188 48.938h3.374v1.687h-3.374v-1.688z" fill="#118638"/><path d="M47.25 48.938h3.375v1.687H47.25v-1.688z" fill="#000"/><path d="M47.25 48.938h3.375v1.687H47.25v-1.688z" fill="#118638"/><path d="M42.188 42.188h8.437v1.687h-8.438v-1.688z" fill="#000"/><path d="M42.188 42.188h8.437v1.687h-8.438v-1.688z" fill="#118638"/></svg>