<svg width="54" height="54" fill="none" xmlns="http://www.w3.org/2000/svg"><path d="M53.156 3.797H.844A.843.843 0 0 0 0 4.64v44.718c0 .467.377.844.844.844H20.25v-1.687H1.687V12.234h50.626v36.282H33.75v1.687h19.406A.843.843 0 0 0 54 49.36V4.641a.843.843 0 0 0-.844-.844zm-51.468 6.75V5.484h50.624v5.063H1.688z" fill="#000"/><path d="M53.156 3.797H.844A.843.843 0 0 0 0 4.64v44.718c0 .467.377.844.844.844H20.25v-1.687H1.687V12.234h50.626v36.282H33.75v1.687h19.406A.843.843 0 0 0 54 49.36V4.641a.843.843 0 0 0-.844-.844zm-51.468 6.75V5.484h50.624v5.063H1.688z" fill="#118638"/><path d="M43.875 7.172h5.063v1.687h-5.063V7.172z" fill="#000"/><path d="M43.875 7.172h5.063v1.687h-5.063V7.172z" fill="#118638"/><path d="M36.302 40.779l-.017-1.199 1.207-1.207 1.176.018c.322-.011.59-.158.743-.422l1.474-2.55a.844.844 0 0 0-.006-.855l-.61-1.024.44-1.648 1.045-.584a.842.842 0 0 0 .434-.737v-2.946a.842.842 0 0 0-.433-.736l-1.045-.584-.44-1.648.61-1.024a.842.842 0 0 0 .006-.853l-1.474-2.552c-.153-.264-.41-.407-.743-.422l-1.197.018-1.208-1.208.017-1.175a.848.848 0 0 0-.422-.743l-2.55-1.473a.848.848 0 0 0-.854.005l-1.024.61-1.648-.44-.584-1.045a.842.842 0 0 0-.738-.433h-2.945a.842.842 0 0 0-.737.432l-.584 1.045-1.647.44-1.024-.61a.847.847 0 0 0-.854-.005l-2.551 1.473a.848.848 0 0 0-.422.743l.018 1.197-1.208 1.207-1.176-.016c-.303.016-.59.158-.742.422l-1.474 2.55a.844.844 0 0 0 .006.855l.61 1.023-.44 1.649-1.046.584a.841.841 0 0 0-.432.737v2.945c0 .305.164.587.432.736l1.045.584.44 1.649-.61 1.024a.842.842 0 0 0-.006.853l1.474 2.55a.866.866 0 0 0 .742.423l1.198-.017 1.207 1.207-.016 1.177a.846.846 0 0 0 .422.742l2.55 1.473a.841.841 0 0 0 .854-.006l1.024-.61 1.648.44.584 1.046c.15.269.431.433.738.433h2.945a.843.843 0 0 0 .737-.432l.584-1.046 1.647-.44 1.024.61a.84.84 0 0 0 .854.006l2.55-1.473a.847.847 0 0 0 .422-.743zm-1.693-.472l-1.695.978-.903-.54a.835.835 0 0 0-.65-.089l-2.337.625a.841.841 0 0 0-.519.404l-.516.924h-1.956l-.516-.925a.85.85 0 0 0-.518-.403l-2.338-.625a.84.84 0 0 0-.65.09l-.904.539-1.694-.978.015-1.037a.848.848 0 0 0-.246-.609l-1.711-1.71a.803.803 0 0 0-.609-.248l-1.06.015-.977-1.694.539-.904a.838.838 0 0 0 .09-.65l-.626-2.336a.84.84 0 0 0-.403-.52l-.925-.516v-1.956l.925-.516a.85.85 0 0 0 .403-.518l.625-2.337a.848.848 0 0 0-.09-.65l-.538-.904.978-1.695 1.037.016h.012a.842.842 0 0 0 .596-.248l1.711-1.71a.845.845 0 0 0 .247-.61l-.016-1.058 1.695-.978.904.54a.83.83 0 0 0 .65.089l2.337-.625a.842.842 0 0 0 .518-.404l.516-.925h1.957l.516.925a.85.85 0 0 0 .518.404l2.337.625a.84.84 0 0 0 .65-.09l.905-.54 1.693.979-.015 1.037a.848.848 0 0 0 .247.61l1.711 1.71c.161.16.363.236.61.247l1.058-.016.978 1.696-.539.903a.838.838 0 0 0-.09.65l.626 2.337c.058.22.204.407.403.518l.925.516v1.956l-.925.517a.85.85 0 0 0-.403.518l-.625 2.336a.848.848 0 0 0 .09.65l.538.905-.978 1.694-1.037-.015a.847.847 0 0 0-.61.247l-1.71 1.71a.843.843 0 0 0-.246.61l.015 1.059z" fill="#000"/><path d="M36.302 40.779l-.017-1.199 1.207-1.207 1.176.018c.322-.011.59-.158.743-.422l1.474-2.55a.844.844 0 0 0-.006-.855l-.61-1.024.44-1.648 1.045-.584a.842.842 0 0 0 .434-.737v-2.946a.842.842 0 0 0-.433-.736l-1.045-.584-.44-1.648.61-1.024a.842.842 0 0 0 .006-.853l-1.474-2.552c-.153-.264-.41-.407-.743-.422l-1.197.018-1.208-1.208.017-1.175a.848.848 0 0 0-.422-.743l-2.55-1.473a.848.848 0 0 0-.854.005l-1.024.61-1.648-.44-.584-1.045a.842.842 0 0 0-.738-.433h-2.945a.842.842 0 0 0-.737.432l-.584 1.045-1.647.44-1.024-.61a.847.847 0 0 0-.854-.005l-2.551 1.473a.848.848 0 0 0-.422.743l.018 1.197-1.208 1.207-1.176-.016c-.303.016-.59.158-.742.422l-1.474 2.55a.844.844 0 0 0 .006.855l.61 1.023-.44 1.649-1.046.584a.841.841 0 0 0-.432.737v2.945c0 .305.164.587.432.736l1.045.584.44 1.649-.61 1.024a.842.842 0 0 0-.006.853l1.474 2.55a.866.866 0 0 0 .742.423l1.198-.017 1.207 1.207-.016 1.177a.846.846 0 0 0 .422.742l2.55 1.473a.841.841 0 0 0 .854-.006l1.024-.61 1.648.44.584 1.046c.15.269.431.433.738.433h2.945a.843.843 0 0 0 .737-.432l.584-1.046 1.647-.44 1.024.61a.84.84 0 0 0 .854.006l2.55-1.473a.847.847 0 0 0 .422-.743zm-1.693-.472l-1.695.978-.903-.54a.835.835 0 0 0-.65-.089l-2.337.625a.841.841 0 0 0-.519.404l-.516.924h-1.956l-.516-.925a.85.85 0 0 0-.518-.403l-2.338-.625a.84.84 0 0 0-.65.09l-.904.539-1.694-.978.015-1.037a.848.848 0 0 0-.246-.609l-1.711-1.71a.803.803 0 0 0-.609-.248l-1.06.015-.977-1.694.539-.904a.838.838 0 0 0 .09-.65l-.626-2.336a.84.84 0 0 0-.403-.52l-.925-.516v-1.956l.925-.516a.85.85 0 0 0 .403-.518l.625-2.337a.848.848 0 0 0-.09-.65l-.538-.904.978-1.695 1.037.016h.012a.842.842 0 0 0 .596-.248l1.711-1.71a.845.845 0 0 0 .247-.61l-.016-1.058 1.695-.978.904.54a.83.83 0 0 0 .65.089l2.337-.625a.842.842 0 0 0 .518-.404l.516-.925h1.957l.516.925a.85.85 0 0 0 .518.404l2.337.625a.84.84 0 0 0 .65-.09l.905-.54 1.693.979-.015 1.037a.848.848 0 0 0 .247.61l1.711 1.71c.161.16.363.236.61.247l1.058-.016.978 1.696-.539.903a.838.838 0 0 0-.09.65l.626 2.337c.058.22.204.407.403.518l.925.516v1.956l-.925.517a.85.85 0 0 0-.403.518l-.625 2.336a.848.848 0 0 0 .09.65l.538.905-.978 1.694-1.037-.015a.847.847 0 0 0-.61.247l-1.71 1.71a.843.843 0 0 0-.246.61l.015 1.059z" fill="#118638"/><path d="M27 18.984c-5.583 0-10.125 4.542-10.125 10.125 0 5.584 4.542 10.125 10.125 10.125s10.125-4.541 10.125-10.125c0-5.583-4.542-10.125-10.125-10.125zm-.836 18.52l.042-5.012a.859.859 0 0 0-.093-.394l-1.644-3.193v-2.97l.521-1.044h4.02l.521 1.042v2.977l-1.599 3.196a.855.855 0 0 0-.088.378v5.02a8.521 8.521 0 0 1-1.68 0zm3.367-.346v-4.474l1.6-3.196a.855.855 0 0 0 .088-.379v-3.375a.84.84 0 0 0-.089-.377l-.844-1.687a.844.844 0 0 0-.755-.467H24.47c-.32 0-.612.18-.755.467l-.844 1.687a.846.846 0 0 0-.089.377v3.375a.84.84 0 0 0 .094.387l1.641 3.189-.037 4.476c-3.425-1.075-5.916-4.277-5.916-8.052 0-4.652 3.784-8.437 8.437-8.437s8.438 3.785 8.438 8.437c0 3.771-2.488 6.97-5.907 8.049z" fill="#000"/><path d="M27 18.984c-5.583 0-10.125 4.542-10.125 10.125 0 5.584 4.542 10.125 10.125 10.125s10.125-4.541 10.125-10.125c0-5.583-4.542-10.125-10.125-10.125zm-.836 18.52l.042-5.012a.859.859 0 0 0-.093-.394l-1.644-3.193v-2.97l.521-1.044h4.02l.521 1.042v2.977l-1.599 3.196a.855.855 0 0 0-.088.378v5.02a8.521 8.521 0 0 1-1.68 0zm3.367-.346v-4.474l1.6-3.196a.855.855 0 0 0 .088-.379v-3.375a.84.84 0 0 0-.089-.377l-.844-1.687a.844.844 0 0 0-.755-.467H24.47c-.32 0-.612.18-.755.467l-.844 1.687a.846.846 0 0 0-.089.377v3.375a.84.84 0 0 0 .094.387l1.641 3.189-.037 4.476c-3.425-1.075-5.916-4.277-5.916-8.052 0-4.652 3.784-8.437 8.437-8.437s8.438 3.785 8.438 8.437c0 3.771-2.488 6.97-5.907 8.049z" fill="#118638"/><path d="M30.375 48.516h-6.75v-4.22h-1.688v4.22c0 .93.757 1.687 1.688 1.687h6.75a1.69 1.69 0 0 0 1.688-1.687v-4.22h-1.688v4.22z" fill="#000"/><path d="M30.375 48.516h-6.75v-4.22h-1.688v4.22c0 .93.757 1.687 1.688 1.687h6.75a1.69 1.69 0 0 0 1.688-1.687v-4.22h-1.688v4.22z" fill="#118638"/><path d="M26.156 45.14h1.688v2.532h-1.688V45.14z" fill="#000"/><path d="M26.156 45.14h1.688v2.532h-1.688V45.14z" fill="#118638"/><path d="M5.063 7.172H6.75v1.687H5.062V7.172z" fill="#000"/><path d="M5.063 7.172H6.75v1.687H5.062V7.172z" fill="#118638"/><path d="M8.438 7.172h1.687v1.687H8.437V7.172z" fill="#000"/><path d="M8.438 7.172h1.687v1.687H8.437V7.172z" fill="#118638"/><path d="M11.813 7.172H13.5v1.687h-1.688V7.172z" fill="#000"/><path d="M11.813 7.172H13.5v1.687h-1.688V7.172z" fill="#118638"/></svg>