<svg width="54" height="54" fill="none" xmlns="http://www.w3.org/2000/svg"><g clip-path="url(#clip0)"><path d="M5.248 9.74l1.403-.934-1.374-2.062 1.374-2.061-1.403-.936-1.686 2.529a.844.844 0 0 0 0 .935l1.686 2.53z" fill="#000"/><path d="M5.248 9.74l1.403-.934-1.374-2.062 1.374-2.061-1.403-.936-1.686 2.529a.844.844 0 0 0 0 .935l1.686 2.53z" fill="#118638"/><path d="M13.395 9.74l1.686-2.528a.842.842 0 0 0 0-.935l-1.686-2.53-1.403.936 1.374 2.06-1.374 2.062 1.403.936z" fill="#000"/><path d="M13.395 9.74l1.686-2.528a.842.842 0 0 0 0-.935l-1.686-2.53-1.403.936 1.374 2.06-1.374 2.062 1.403.936z" fill="#118638"/><path d="M7.679 9.006l1.687-5.058 1.6.534L9.277 9.54l-1.6-.534z" fill="#000"/><path d="M7.679 9.006l1.687-5.058 1.6.534L9.277 9.54l-1.6-.534z" fill="#118638"/><path d="M14.38 25.29a.84.84 0 0 0 .595-.247l3.373-3.372a.84.84 0 0 0 .246-.596V.843A.842.842 0 0 0 17.751 0H.892A.843.843 0 0 0 .05.843v23.604c0 .466.378.843.843.843H14.38zm0-2.035v-2.18h2.18l-2.18 2.18zM1.735 1.686h15.174v17.703h-3.372a.843.843 0 0 0-.844.843v3.372H1.736V1.686z" fill="#000"/><path d="M14.38 25.29a.84.84 0 0 0 .595-.247l3.373-3.372a.84.84 0 0 0 .246-.596V.843A.842.842 0 0 0 17.751 0H.892A.843.843 0 0 0 .05.843v23.604c0 .466.378.843.843.843H14.38zm0-2.035v-2.18h2.18l-2.18 2.18zM1.735 1.686h15.174v17.703h-3.372a.843.843 0 0 0-.844.843v3.372H1.736V1.686z" fill="#118638"/><path d="M3.42 11.802h8.43v1.686H3.42v-1.686z" fill="#000"/><path d="M3.42 11.802h8.43v1.686H3.42v-1.686z" fill="#118638"/><path d="M13.537 11.802h1.685v1.686h-1.685v-1.686z" fill="#000"/><path d="M13.537 11.802h1.685v1.686h-1.685v-1.686z" fill="#118638"/><path d="M3.42 15.174h8.43v1.686H3.42v-1.686z" fill="#000"/><path d="M3.42 15.174h8.43v1.686H3.42v-1.686z" fill="#118638"/><path d="M13.537 15.174h1.685v1.686h-1.685v-1.686z" fill="#000"/><path d="M13.537 15.174h1.685v1.686h-1.685v-1.686z" fill="#118638"/><path d="M3.42 18.546h4.216v1.686H3.42v-1.686z" fill="#000"/><path d="M3.42 18.546h4.216v1.686H3.42v-1.686z" fill="#118638"/><path d="M9.322 18.546h1.686v1.686H9.322v-1.686z" fill="#000"/><path d="M9.322 18.546h1.686v1.686H9.322v-1.686z" fill="#118638"/><path d="M37.988 37.121l-5.311-2.327-1.872-2.497c1.26-.729 2.12-2.077 2.12-3.635v-7.587a4.22 4.22 0 0 0-4.215-4.215h-3.372a4.22 4.22 0 0 0-4.215 4.215v7.587c0 1.558.86 2.906 2.121 3.635l-1.862 2.484-5.198 2.083a4.195 4.195 0 0 0-2.648 3.912v12.332c0 .465.378.842.842.843l25.29.05h.001a.845.845 0 0 0 .843-.844V40.982c0-1.675-.99-3.19-2.524-3.861zM22.81 21.075a2.532 2.532 0 0 1 2.53-2.53h3.371a2.532 2.532 0 0 1 2.53 2.53v2.529h-2.53a2.532 2.532 0 0 1-2.529-2.53v-.842h-1.686v.843a4.22 4.22 0 0 0 4.215 4.215h2.53v3.372a2.532 2.532 0 0 1-2.53 2.529h-3.372a2.532 2.532 0 0 1-2.529-2.53v-7.586zm2.108 11.802h4.215l1.742 2.321-3.85 2.566-3.849-2.566 1.742-2.322zm13.91 19.435l-3.373-.006V45.52h-1.686v6.781l-13.488-.026V45.52h-1.686v6.752l-3.372-.006v-11.49a2.52 2.52 0 0 1 1.589-2.349l5.058-2.026 4.689 3.126c.283.19.651.19.934 0l4.675-3.116 5.145 2.254a2.526 2.526 0 0 1 1.514 2.316v11.33z" fill="#000"/><path d="M37.988 37.121l-5.311-2.327-1.872-2.497c1.26-.729 2.12-2.077 2.12-3.635v-7.587a4.22 4.22 0 0 0-4.215-4.215h-3.372a4.22 4.22 0 0 0-4.215 4.215v7.587c0 1.558.86 2.906 2.121 3.635l-1.862 2.484-5.198 2.083a4.195 4.195 0 0 0-2.648 3.912v12.332c0 .465.378.842.842.843l25.29.05h.001a.845.845 0 0 0 .843-.844V40.982c0-1.675-.99-3.19-2.524-3.861zM22.81 21.075a2.532 2.532 0 0 1 2.53-2.53h3.371a2.532 2.532 0 0 1 2.53 2.53v2.529h-2.53a2.532 2.532 0 0 1-2.529-2.53v-.842h-1.686v.843a4.22 4.22 0 0 0 4.215 4.215h2.53v3.372a2.532 2.532 0 0 1-2.53 2.529h-3.372a2.532 2.532 0 0 1-2.529-2.53v-7.586zm2.108 11.802h4.215l1.742 2.321-3.85 2.566-3.849-2.566 1.742-2.322zm13.91 19.435l-3.373-.006V45.52h-1.686v6.781l-13.488-.026V45.52h-1.686v6.752l-3.372-.006v-11.49a2.52 2.52 0 0 1 1.589-2.349l5.058-2.026 4.689 3.126c.283.19.651.19.934 0l4.675-3.116 5.145 2.254a2.526 2.526 0 0 1 1.514 2.316v11.33z" fill="#118638"/><path d="M26.181 44.678h1.686v5.058h-1.686v-5.058z" fill="#000"/><path d="M26.181 44.678h1.686v5.058h-1.686v-5.058z" fill="#118638"/><path d="M26.181 41.306h1.686v1.686h-1.686v-1.686z" fill="#000"/><path d="M26.181 41.306h1.686v1.686h-1.686v-1.686z" fill="#118638"/><path d="M38.826 16.86h3.372v1.686h-3.372V16.86z" fill="#000"/><path d="M38.826 16.86h3.372v1.686h-3.372V16.86z" fill="#118638"/><path d="M53.157 0h-16.86a.843.843 0 0 0-.843.843v23.604c0 .466.378.843.843.843h16.86a.842.842 0 0 0 .843-.843V.843A.842.842 0 0 0 53.157 0zM37.14 1.686h15.174v1.686H37.14V1.686zm0 21.918V5.058h15.174v18.546H37.14z" fill="#000"/><path d="M53.157 0h-16.86a.843.843 0 0 0-.843.843v23.604c0 .466.378.843.843.843h16.86a.842.842 0 0 0 .843-.843V.843A.842.842 0 0 0 53.157 0zM37.14 1.686h15.174v1.686H37.14V1.686zm0 21.918V5.058h15.174v18.546H37.14z" fill="#118638"/><path d="M49.785 6.744H39.669a.843.843 0 0 0-.843.843v6.744c0 .466.378.843.843.843h10.116a.843.843 0 0 0 .843-.843V7.587a.843.843 0 0 0-.843-.843zm-.843 6.744h-8.43V8.43h8.43v5.058z" fill="#000"/><path d="M49.785 6.744H39.669a.843.843 0 0 0-.843.843v6.744c0 .466.378.843.843.843h10.116a.843.843 0 0 0 .843-.843V7.587a.843.843 0 0 0-.843-.843zm-.843 6.744h-8.43V8.43h8.43v5.058z" fill="#118638"/><path d="M42.198 10.116h5.058v1.686h-5.058v-1.686z" fill="#000"/><path d="M42.198 10.116h5.058v1.686h-5.058v-1.686z" fill="#118638"/><path d="M43.884 16.86h6.744v1.686h-6.744V16.86z" fill="#000"/><path d="M43.884 16.86h6.744v1.686h-6.744V16.86z" fill="#118638"/><path d="M38.826 20.232h8.43v1.686h-8.43v-1.686z" fill="#000"/><path d="M38.826 20.232h8.43v1.686h-8.43v-1.686z" fill="#118638"/><path d="M48.942 20.232h1.686v1.686h-1.686v-1.686z" fill="#000"/><path d="M48.942 20.232h1.686v1.686h-1.686v-1.686z" fill="#118638"/><path d="M46.413 35.406h-1.686v1.685h2.529a.843.843 0 0 0 .843-.843V33.72h-1.686v1.687z" fill="#000"/><path d="M46.413 35.406h-1.686v1.685h2.529a.843.843 0 0 0 .843-.843V33.72h-1.686v1.687z" fill="#118638"/><path d="M41.355 35.405h1.686v1.686h-1.686v-1.686z" fill="#000"/><path d="M41.355 35.405h1.686v1.686h-1.686v-1.686z" fill="#118638"/><path d="M46.413 30.348h1.686v1.685h-1.686v-1.686z" fill="#000"/><path d="M46.413 30.348h1.686v1.685h-1.686v-1.686z" fill="#118638"/><path d="M46.413 26.976h1.686v1.686h-1.686v-1.686z" fill="#000"/><path d="M46.413 26.976h1.686v1.686h-1.686v-1.686z" fill="#118638"/><path d="M8.479 33.72H6.793v2.528c0 .467.377.843.843.843h2.529v-1.685H8.479v-1.687z" fill="#000"/><path d="M8.479 33.72H6.793v2.528c0 .467.377.843.843.843h2.529v-1.685H8.479v-1.687z" fill="#118638"/><path d="M11.85 35.405h1.687v1.686H11.85v-1.686z" fill="#000"/><path d="M11.85 35.405h1.687v1.686H11.85v-1.686z" fill="#118638"/><path d="M6.793 30.348h1.686v1.685H6.793v-1.686z" fill="#000"/><path d="M6.793 30.348h1.686v1.685H6.793v-1.686z" fill="#118638"/><path d="M6.793 26.976h1.686v1.686H6.793v-1.686z" fill="#000"/><path d="M6.793 26.976h1.686v1.686H6.793v-1.686z" fill="#118638"/><path d="M21.123 6.744h6.744V5.058H22.7l.812-1.218-1.403-.935-1.686 2.529a.843.843 0 0 0 .701 1.31z" fill="#000"/><path d="M21.123 6.744h6.744V5.058H22.7l.812-1.218-1.403-.935-1.686 2.529a.843.843 0 0 0 .701 1.31z" fill="#118638"/><path d="M29.553 5.058h1.686v1.686h-1.686V5.058z" fill="#000"/><path d="M29.553 5.058h1.686v1.686h-1.686V5.058z" fill="#118638"/><path d="M26.181 11.802h5.169l-.812 1.218 1.403.935 1.686-2.529a.842.842 0 0 0-.702-1.31h-6.744v1.686z" fill="#000"/><path d="M26.181 11.802h5.169l-.812 1.218 1.403.935 1.686-2.529a.842.842 0 0 0-.702-1.31h-6.744v1.686z" fill="#118638"/><path d="M22.81 10.116h1.685v1.686H22.81v-1.686z" fill="#000"/><path d="M22.81 10.116h1.685v1.686H22.81v-1.686z" fill="#118638"/></g><defs><clipPath id="clip0"><path fill="#fff" d="M0 0h54v54H0z"/></clipPath></defs></svg>