<svg width="54" height="54" fill="none" xmlns="http://www.w3.org/2000/svg"><path d="M52.313 12.656a4.227 4.227 0 0 0-3.376-4.133V3.375a.843.843 0 0 0-.843-.844H35.437V.844A.843.843 0 0 0 34.594 0H19.406a.843.843 0 0 0-.843.844V2.53h-5.907a.843.843 0 0 0-.844.844v8.438H5.907a.843.843 0 0 0-.843.843v7.68a4.227 4.227 0 0 0-3.375 4.133 4.227 4.227 0 0 0 3.375 4.133v7.68c0 .466.376.843.843.843h12.657v1.688c0 .466.377.843.843.843h6.75v2.6c-2.857.41-5.062 2.869-5.062 5.838A5.914 5.914 0 0 0 27 54c2.97 0 5.427-2.205 5.839-5.063h9.349a.843.843 0 0 0 .843-.843V25.312h5.063a.843.843 0 0 0 .843-.843v-7.68a4.227 4.227 0 0 0 3.376-4.133zM20.25 1.687h13.5v3.375h-13.5V1.688zM13.5 4.22h5.063v1.687c0 .467.377.844.843.844h6.75v2.531h-6.75a.843.843 0 0 0-.843.844v1.688H13.5V4.218zM27 29.242l-4.773-4.773L27 19.695l4.773 4.774L27 29.242zm-6.75-14.898v-3.375h13.5v3.375h-13.5zM3.375 24.469a2.535 2.535 0 0 1 2.531-2.532 2.535 2.535 0 0 1 2.532 2.532A2.535 2.535 0 0 1 5.905 27a2.535 2.535 0 0 1-2.531-2.531zm15.188 9.281v1.688H6.75v-6.836a4.226 4.226 0 0 0 3.375-4.133 4.226 4.226 0 0 0-3.375-4.134V13.5h11.813v1.688c0 .466.377.843.843.843h6.75v2.122l-5.471 5.472h-2.122v1.688h2.122l5.471 5.471v2.122h-6.75a.843.843 0 0 0-.843.844zm1.687.844h13.5v3.375h-13.5v-3.375zM27 52.312a4.224 4.224 0 0 1-4.219-4.218A4.224 4.224 0 0 1 27 43.875a4.224 4.224 0 0 1 4.219 4.219A4.224 4.224 0 0 1 27 52.312zm14.344-5.062h-8.505a5.91 5.91 0 0 0-4.995-4.995v-2.599h6.75a.843.843 0 0 0 .843-.843V33.75a.843.843 0 0 0-.843-.844h-6.75v-2.122l5.471-5.471h8.029V47.25zm-8.029-23.625l-5.471-5.472v-2.122h6.75a.843.843 0 0 0 .843-.843v-5.063a.843.843 0 0 0-.843-.844h-6.75V6.75h6.75a.843.843 0 0 0 .843-.844V4.22H47.25v4.304a4.226 4.226 0 0 0-3.375 4.133 4.226 4.226 0 0 0 3.375 4.134v6.835H33.315zm14.779-8.438a2.535 2.535 0 0 1-2.532-2.53 2.534 2.534 0 0 1 2.532-2.532 2.534 2.534 0 0 1 2.531 2.531 2.534 2.534 0 0 1-2.531 2.531z" fill="#000"/><path d="M52.313 12.656a4.227 4.227 0 0 0-3.376-4.133V3.375a.843.843 0 0 0-.843-.844H35.437V.844A.843.843 0 0 0 34.594 0H19.406a.843.843 0 0 0-.843.844V2.53h-5.907a.843.843 0 0 0-.844.844v8.438H5.907a.843.843 0 0 0-.843.843v7.68a4.227 4.227 0 0 0-3.375 4.133 4.227 4.227 0 0 0 3.375 4.133v7.68c0 .466.376.843.843.843h12.657v1.688c0 .466.377.843.843.843h6.75v2.6c-2.857.41-5.062 2.869-5.062 5.838A5.914 5.914 0 0 0 27 54c2.97 0 5.427-2.205 5.839-5.063h9.349a.843.843 0 0 0 .843-.843V25.312h5.063a.843.843 0 0 0 .843-.843v-7.68a4.227 4.227 0 0 0 3.376-4.133zM20.25 1.687h13.5v3.375h-13.5V1.688zM13.5 4.22h5.063v1.687c0 .467.377.844.843.844h6.75v2.531h-6.75a.843.843 0 0 0-.843.844v1.688H13.5V4.218zM27 29.242l-4.773-4.773L27 19.695l4.773 4.774L27 29.242zm-6.75-14.898v-3.375h13.5v3.375h-13.5zM3.375 24.469a2.535 2.535 0 0 1 2.531-2.532 2.535 2.535 0 0 1 2.532 2.532A2.535 2.535 0 0 1 5.905 27a2.535 2.535 0 0 1-2.531-2.531zm15.188 9.281v1.688H6.75v-6.836a4.226 4.226 0 0 0 3.375-4.133 4.226 4.226 0 0 0-3.375-4.134V13.5h11.813v1.688c0 .466.377.843.843.843h6.75v2.122l-5.471 5.472h-2.122v1.688h2.122l5.471 5.471v2.122h-6.75a.843.843 0 0 0-.843.844zm1.687.844h13.5v3.375h-13.5v-3.375zM27 52.312a4.224 4.224 0 0 1-4.219-4.218A4.224 4.224 0 0 1 27 43.875a4.224 4.224 0 0 1 4.219 4.219A4.224 4.224 0 0 1 27 52.312zm14.344-5.062h-8.505a5.91 5.91 0 0 0-4.995-4.995v-2.599h6.75a.843.843 0 0 0 .843-.843V33.75a.843.843 0 0 0-.843-.844h-6.75v-2.122l5.471-5.471h8.029V47.25zm-8.029-23.625l-5.471-5.472v-2.122h6.75a.843.843 0 0 0 .843-.843v-5.063a.843.843 0 0 0-.843-.844h-6.75V6.75h6.75a.843.843 0 0 0 .843-.844V4.22H47.25v4.304a4.226 4.226 0 0 0-3.375 4.133 4.226 4.226 0 0 0 3.375 4.134v6.835H33.315zm14.779-8.438a2.535 2.535 0 0 1-2.532-2.53 2.534 2.534 0 0 1 2.532-2.532 2.534 2.534 0 0 1 2.531 2.531 2.534 2.534 0 0 1-2.531 2.531z" fill="#118638"/><path d="M11.813 23.625H13.5v1.688h-1.688v-1.688z" fill="#000"/><path d="M11.813 23.625H13.5v1.688h-1.688v-1.688z" fill="#118638"/><path d="M15.188 23.625h1.687v1.688h-1.688v-1.688z" fill="#000"/><path d="M15.188 23.625h1.687v1.688h-1.688v-1.688z" fill="#118638"/></svg>