<svg width="54" height="54" fill="none" xmlns="http://www.w3.org/2000/svg"><path d="M25.313 39.656h3.375v1.688h-3.375v-1.688z" fill="#000"/><path d="M25.313 39.656h3.375v1.688h-3.375v-1.688z" fill="#118638"/><path d="M5.906 16.875a.844.844 0 0 0-.843.844V40.5c0 .465.378.844.843.844h17.719v-1.688H6.75V16.875h-.844z" fill="#000"/><path d="M5.906 16.875a.844.844 0 0 0-.843.844V40.5c0 .465.378.844.843.844h17.719v-1.688H6.75V16.875h-.844z" fill="#118638"/><path d="M30.375 41.344h17.719a.844.844 0 0 0 .843-.844V17.719a.844.844 0 0 0-.843-.844h-.844v22.781H30.375v1.688z" fill="#000"/><path d="M30.375 41.344h17.719a.844.844 0 0 0 .843-.844V17.719a.844.844 0 0 0-.843-.844h-.844v22.781H30.375v1.688z" fill="#118638"/><path d="M53.156 43.031h-.843V14.344a.844.844 0 0 0-.844-.844H47.25v1.688h3.375V43.03H35.44a.832.832 0 0 0-.301.056l-2.058.788H20.84l-2.209-.794a.84.84 0 0 0-.285-.05H3.375V15.188H6.75V13.5H2.531a.844.844 0 0 0-.844.844V43.03H.845a.844.844 0 0 0-.844.844v2.795c0 .192.065.377.185.527l1.137 1.423c.16.2.402.318.66.318H52.02c.212 0 .417-.08.573-.226l1.138-1.055A.849.849 0 0 0 54 47.04v-3.164a.844.844 0 0 0-.844-.844zm-.843 3.64l-.625.579H2.387l-.7-.875v-1.656h3.375v.843H6.75v-.843H18.2l2.208.794a.84.84 0 0 0 .285.05h12.543a.834.834 0 0 0 .301-.056l2.06-.788h8.278v.843h1.688v-.843h1.687v.843h1.688v-.843h3.374v1.951z" fill="#000"/><path d="M53.156 43.031h-.843V14.344a.844.844 0 0 0-.844-.844H47.25v1.688h3.375V43.03H35.44a.832.832 0 0 0-.301.056l-2.058.788H20.84l-2.209-.794a.84.84 0 0 0-.285-.05H3.375V15.188H6.75V13.5H2.531a.844.844 0 0 0-.844.844V43.03H.845a.844.844 0 0 0-.844.844v2.795c0 .192.065.377.185.527l1.137 1.423c.16.2.402.318.66.318H52.02c.212 0 .417-.08.573-.226l1.138-1.055A.849.849 0 0 0 54 47.04v-3.164a.844.844 0 0 0-.844-.844zm-.843 3.64l-.625.579H2.387l-.7-.875v-1.656h3.375v.843H6.75v-.843H18.2l2.208.794a.84.84 0 0 0 .285.05h12.543a.834.834 0 0 0 .301-.056l2.06-.788h8.278v.843h1.688v-.843h1.687v.843h1.688v-.843h3.374v1.951z" fill="#118638"/><path d="M17.122 16.628l1.193-1.193-1.934-1.935 1.934-1.935-1.193-1.193-2.531 2.531a.843.843 0 0 0 0 1.194l2.531 2.53z" fill="#000"/><path d="M17.122 16.628l1.193-1.193-1.934-1.935 1.934-1.935-1.193-1.193-2.531 2.531a.843.843 0 0 0 0 1.194l2.531 2.53z" fill="#118638"/><path d="M25.065 16.628l2.532-2.531a.843.843 0 0 0 0-1.194l-2.532-2.53-1.193 1.192 1.935 1.935-1.935 1.935 1.193 1.193z" fill="#000"/><path d="M25.065 16.628l2.532-2.531a.843.843 0 0 0 0-1.194l-2.532-2.53-1.193 1.192 1.935 1.935-1.935 1.935 1.193 1.193z" fill="#118638"/><path d="M19.45 15.765l1.688-5.062 1.6.534-1.688 5.062-1.6-.534z" fill="#000"/><path d="M19.45 15.765l1.688-5.062 1.6.534-1.688 5.062-1.6-.534z" fill="#118638"/><path d="M9.281 26.156h3.198a.844.844 0 0 0 .712-.39l2.436-3.828h16.436a1.69 1.69 0 0 0 1.687-1.688V6.75a1.69 1.69 0 0 0-1.688-1.688H10.125A1.69 1.69 0 0 0 8.437 6.75v18.563c0 .465.379.843.844.843zm.844-19.406h21.938v13.5h-16.9a.845.845 0 0 0-.712.39l-2.436 3.829h-1.891V6.75z" fill="#000"/><path d="M9.281 26.156h3.198a.844.844 0 0 0 .712-.39l2.436-3.828h16.436a1.69 1.69 0 0 0 1.687-1.688V6.75a1.69 1.69 0 0 0-1.688-1.688H10.125A1.69 1.69 0 0 0 8.437 6.75v18.563c0 .465.379.843.844.843zm.844-19.406h21.938v13.5h-16.9a.845.845 0 0 0-.712.39l-2.436 3.829h-1.891V6.75z" fill="#118638"/><path d="M30.375 27h11.813v1.688H30.374V27z" fill="#000"/><path d="M30.375 27h11.813v1.688H30.374V27z" fill="#118638"/><path d="M38.813 23.625h3.374v1.688h-3.374v-1.688z" fill="#000"/><path d="M38.813 23.625h3.374v1.688h-3.374v-1.688z" fill="#118638"/><path d="M23.625 23.625h13.5v1.688h-13.5v-1.688z" fill="#000"/><path d="M23.625 23.625h13.5v1.688h-13.5v-1.688z" fill="#118638"/><path d="M35.438 20.25h6.75v1.688h-6.75V20.25z" fill="#000"/><path d="M35.438 20.25h6.75v1.688h-6.75V20.25z" fill="#118638"/><path d="M43.875 35.438h-1.891l-2.436-3.829a.845.845 0 0 0-.712-.39H21.938v-7.594H20.25v7.594c0 .93.757 1.687 1.688 1.687h16.435l2.436 3.828a.846.846 0 0 0 .712.391h3.198a.844.844 0 0 0 .843-.844V17.72a1.69 1.69 0 0 0-1.687-1.688h-8.438v1.688h8.438v17.718z" fill="#000"/><path d="M43.875 35.438h-1.891l-2.436-3.829a.845.845 0 0 0-.712-.39H21.938v-7.594H20.25v7.594c0 .93.757 1.687 1.688 1.687h16.435l2.436 3.828a.846.846 0 0 0 .712.391h3.198a.844.844 0 0 0 .843-.844V17.72a1.69 1.69 0 0 0-1.687-1.688h-8.438v1.688h8.438v17.718z" fill="#118638"/><path d="M23.625 27h1.688v1.688h-1.688V27z" fill="#000"/><path d="M23.625 27h1.688v1.688h-1.688V27z" fill="#118638"/><path d="M27 27h1.688v1.688H27V27z" fill="#000"/><path d="M27 27h1.688v1.688H27V27z" fill="#118638"/></svg>