<svg width="54" height="54" fill="none" xmlns="http://www.w3.org/2000/svg"><path d="M40.5 45.563h-27a.844.844 0 0 0-.844.843v3.375c0 .467.378.844.844.844h27a.843.843 0 0 0 .844-.844v-3.375a.843.843 0 0 0-.844-.843zm-.844 3.374H14.344V47.25h25.312v1.688z" fill="#000"/><path d="M40.5 45.563h-27a.844.844 0 0 0-.844.843v3.375c0 .467.378.844.844.844h27a.843.843 0 0 0 .844-.844v-3.375a.843.843 0 0 0-.844-.843zm-.844 3.374H14.344V47.25h25.312v1.688z" fill="#118638"/><path d="M50.625 32.063H13.5v-1.688h27.844a.843.843 0 0 0 .843-.844v-4.218H40.5v3.375H12.656a.844.844 0 0 0-.844.843v2.532H3.376a1.69 1.69 0 0 0-1.688 1.687v18.563c0 .93.757 1.687 1.688 1.687h47.25a1.69 1.69 0 0 0 1.688-1.688V33.75a1.69 1.69 0 0 0-1.688-1.688zm-47.25 20.25V33.75h47.25l.002 18.563H3.375z" fill="#000"/><path d="M50.625 32.063H13.5v-1.688h27.844a.843.843 0 0 0 .843-.844v-4.218H40.5v3.375H12.656a.844.844 0 0 0-.844.843v2.532H3.376a1.69 1.69 0 0 0-1.688 1.687v18.563c0 .93.757 1.687 1.688 1.687h47.25a1.69 1.69 0 0 0 1.688-1.688V33.75a1.69 1.69 0 0 0-1.688-1.688zm-47.25 20.25V33.75h47.25l.002 18.563H3.375z" fill="#118638"/><path d="M48.094 45.563h-4.219a.843.843 0 0 0-.844.843v3.375c0 .467.377.844.844.844h4.219a.843.843 0 0 0 .843-.844v-3.375a.843.843 0 0 0-.843-.843zm-.844 3.374h-2.531V47.25h2.531v1.688z" fill="#000"/><path d="M48.094 45.563h-4.219a.843.843 0 0 0-.844.843v3.375c0 .467.377.844.844.844h4.219a.843.843 0 0 0 .843-.844v-3.375a.843.843 0 0 0-.843-.843zm-.844 3.374h-2.531V47.25h2.531v1.688z" fill="#118638"/><path d="M10.125 45.563H5.906a.844.844 0 0 0-.843.843v3.375c0 .467.378.844.843.844h4.219a.844.844 0 0 0 .844-.844v-3.375a.844.844 0 0 0-.844-.843zm-.844 3.374H6.75V47.25h2.531v1.688z" fill="#000"/><path d="M10.125 45.563H5.906a.844.844 0 0 0-.843.843v3.375c0 .467.378.844.843.844h4.219a.844.844 0 0 0 .844-.844v-3.375a.844.844 0 0 0-.844-.843zm-.844 3.374H6.75V47.25h2.531v1.688z" fill="#118638"/><path d="M48.094 38.813h-8.438a.843.843 0 0 0-.843.843v3.375c0 .467.377.844.843.844h8.438a.843.843 0 0 0 .843-.844v-3.375a.843.843 0 0 0-.843-.843zm-.844 3.374H40.5V40.5h6.75v1.688z" fill="#000"/><path d="M48.094 38.813h-8.438a.843.843 0 0 0-.843.843v3.375c0 .467.377.844.843.844h8.438a.843.843 0 0 0 .843-.844v-3.375a.843.843 0 0 0-.843-.843zm-.844 3.374H40.5V40.5h6.75v1.688z" fill="#118638"/><path d="M32.906 38.813a.843.843 0 0 0-.843.843v3.375c0 .467.377.844.843.844h3.375a.843.843 0 0 0 .844-.844v-3.375a.843.843 0 0 0-.844-.843h-3.375zm2.532 3.374H33.75V40.5h1.688v1.688z" fill="#000"/><path d="M32.906 38.813a.843.843 0 0 0-.843.843v3.375c0 .467.377.844.843.844h3.375a.843.843 0 0 0 .844-.844v-3.375a.843.843 0 0 0-.844-.843h-3.375zm2.532 3.374H33.75V40.5h1.688v1.688z" fill="#118638"/><path d="M26.156 43.875h3.375a.843.843 0 0 0 .844-.844v-3.375a.843.843 0 0 0-.844-.843h-3.375a.844.844 0 0 0-.843.843v3.375c0 .467.378.844.843.844zM27 40.5h1.688v1.688H27V40.5z" fill="#000"/><path d="M26.156 43.875h3.375a.843.843 0 0 0 .844-.844v-3.375a.843.843 0 0 0-.844-.843h-3.375a.844.844 0 0 0-.843.843v3.375c0 .467.378.844.843.844zM27 40.5h1.688v1.688H27V40.5z" fill="#118638"/><path d="M18.563 43.031c0 .467.378.844.843.844h3.375a.844.844 0 0 0 .844-.844v-3.375a.844.844 0 0 0-.844-.843h-3.375a.844.844 0 0 0-.843.843v3.375zM20.25 40.5h1.688v1.688H20.25V40.5z" fill="#000"/><path d="M18.563 43.031c0 .467.378.844.843.844h3.375a.844.844 0 0 0 .844-.844v-3.375a.844.844 0 0 0-.844-.843h-3.375a.844.844 0 0 0-.843.843v3.375zM20.25 40.5h1.688v1.688H20.25V40.5z" fill="#118638"/><path d="M16.031 43.875a.844.844 0 0 0 .844-.844v-3.375a.844.844 0 0 0-.844-.843h-3.375a.844.844 0 0 0-.844.843v3.375c0 .467.379.844.844.844h3.375zM13.5 40.5h1.688v1.688H13.5V40.5z" fill="#000"/><path d="M16.031 43.875a.844.844 0 0 0 .844-.844v-3.375a.844.844 0 0 0-.844-.843h-3.375a.844.844 0 0 0-.844.843v3.375c0 .467.379.844.844.844h3.375zM13.5 40.5h1.688v1.688H13.5V40.5z" fill="#118638"/><path d="M5.906 43.875h3.375a.844.844 0 0 0 .844-.844v-3.375a.844.844 0 0 0-.844-.843H5.906a.844.844 0 0 0-.843.843v3.375c0 .467.378.844.843.844zM6.75 40.5h1.688v1.688H6.75V40.5z" fill="#000"/><path d="M5.906 43.875h3.375a.844.844 0 0 0 .844-.844v-3.375a.844.844 0 0 0-.844-.843H5.906a.844.844 0 0 0-.843.843v3.375c0 .467.378.844.843.844zM6.75 40.5h1.688v1.688H6.75V40.5z" fill="#118638"/><path d="M5.063 35.438h3.375v1.687H5.062v-1.688z" fill="#000"/><path d="M5.063 35.438h3.375v1.687H5.062v-1.688z" fill="#118638"/><path d="M10.125 35.438H13.5v1.687h-3.375v-1.688z" fill="#000"/><path d="M10.125 35.438H13.5v1.687h-3.375v-1.688z" fill="#118638"/><path d="M15.188 35.438h3.374v1.687h-3.375v-1.688z" fill="#000"/><path d="M15.188 35.438h3.374v1.687h-3.375v-1.688z" fill="#118638"/><path d="M20.25 35.438h3.375v1.687H20.25v-1.688z" fill="#000"/><path d="M20.25 35.438h3.375v1.687H20.25v-1.688z" fill="#118638"/><path d="M25.313 35.438h3.375v1.687h-3.375v-1.688z" fill="#000"/><path d="M25.313 35.438h3.375v1.687h-3.375v-1.688z" fill="#118638"/><path d="M30.375 35.438h3.375v1.687h-3.375v-1.688z" fill="#000"/><path d="M30.375 35.438h3.375v1.687h-3.375v-1.688z" fill="#118638"/><path d="M35.438 35.438h3.374v1.687h-3.374v-1.688z" fill="#000"/><path d="M35.438 35.438h3.374v1.687h-3.374v-1.688z" fill="#118638"/><path d="M40.5 35.438h3.375v1.687H40.5v-1.688z" fill="#000"/><path d="M40.5 35.438h3.375v1.687H40.5v-1.688z" fill="#118638"/><path d="M45.563 35.438h3.374v1.687h-3.374v-1.688z" fill="#000"/><path d="M45.563 35.438h3.374v1.687h-3.374v-1.688z" fill="#118638"/><path d="M10.125 2.531h1.688V4.22h-1.688V2.53z" fill="#000"/><path d="M10.125 2.531h1.688V4.22h-1.688V2.53z" fill="#118638"/><path d="M13.5 2.531h1.688V4.22H13.5V2.53z" fill="#000"/><path d="M13.5 2.531h1.688V4.22H13.5V2.53z" fill="#118638"/><path d="M16.875 2.531h1.688V4.22h-1.688V2.53z" fill="#000"/><path d="M16.875 2.531h1.688V4.22h-1.688V2.53z" fill="#118638"/><path d="M38.813 2.531h5.062V4.22h-5.063V2.53z" fill="#000"/><path d="M38.813 2.531h5.062V4.22h-5.063V2.53z" fill="#118638"/><path d="M7.594 30.375h2.531v-1.688H8.437V6.75h37.126v21.938h-1.688v1.687h2.531a.843.843 0 0 0 .844-.844V.844A.843.843 0 0 0 46.406 0H7.594a.844.844 0 0 0-.844.844V29.53c0 .467.378.844.844.844zm.843-28.688h37.126v3.375H8.437V1.688z" fill="#000"/><path d="M7.594 30.375h2.531v-1.688H8.437V6.75h37.126v21.938h-1.688v1.687h2.531a.843.843 0 0 0 .844-.844V.844A.843.843 0 0 0 46.406 0H7.594a.844.844 0 0 0-.844.844V29.53c0 .467.378.844.844.844zm.843-28.688h37.126v3.375H8.437V1.688z" fill="#118638"/><path d="M41.94 10.372l-1.687-1.687-1.193 1.193 1.09 1.09-1.09 1.092 1.193 1.193 1.687-1.688a.843.843 0 0 0 0-1.193z" fill="#000"/><path d="M41.94 10.372l-1.687-1.687-1.193 1.193 1.09 1.09-1.09 1.092 1.193 1.193 1.687-1.688a.843.843 0 0 0 0-1.193z" fill="#118638"/><path d="M32.31 8.685l-1.688 1.687a.843.843 0 0 0 0 1.193l1.688 1.688 1.193-1.193-1.091-1.091 1.09-1.091-1.192-1.193z" fill="#000"/><path d="M32.31 8.685l-1.688 1.687a.843.843 0 0 0 0 1.193l1.688 1.688 1.193-1.193-1.091-1.091 1.09-1.091-1.192-1.193z" fill="#118638"/><path d="M34.636 13.232l1.689-5.063 1.6.534-1.69 5.063-1.6-.534z" fill="#000"/><path d="M34.636 13.232l1.689-5.063 1.6.534-1.69 5.063-1.6-.534z" fill="#118638"/><path d="M11.813 21.938H13.5v1.687h-1.688v-1.688z" fill="#000"/><path d="M11.813 21.938H13.5v1.687h-1.688v-1.688z" fill="#118638"/><path d="M15.188 21.938h1.687v1.687h-1.688v-1.688z" fill="#000"/><path d="M15.188 21.938h1.687v1.687h-1.688v-1.688z" fill="#118638"/><path d="M18.563 21.938h1.687v1.687h-1.688v-1.688z" fill="#000"/><path d="M18.563 21.938h1.687v1.687h-1.688v-1.688z" fill="#118638"/><path d="M21.938 21.938h3.375v1.687h-3.375v-1.688z" fill="#000"/><path d="M21.938 21.938h3.375v1.687h-3.375v-1.688z" fill="#118638"/><path d="M30.375 21.938h1.688v1.687h-1.688v-1.688z" fill="#000"/><path d="M30.375 21.938h1.688v1.687h-1.688v-1.688z" fill="#118638"/><path d="M27 21.938h1.688v1.687H27v-1.688z" fill="#000"/><path d="M27 21.938h1.688v1.687H27v-1.688z" fill="#118638"/><path d="M11.813 18.563h5.062v1.687h-5.063v-1.688z" fill="#000"/><path d="M11.813 18.563h5.062v1.687h-5.063v-1.688z" fill="#118638"/><path d="M18.563 18.563h1.687v1.687h-1.688v-1.688z" fill="#000"/><path d="M18.563 18.563h1.687v1.687h-1.688v-1.688z" fill="#118638"/><path d="M21.938 18.563h3.375v1.687h-3.375v-1.688z" fill="#000"/><path d="M21.938 18.563h3.375v1.687h-3.375v-1.688z" fill="#118638"/><path d="M30.375 18.563h1.688v1.687h-1.688v-1.688z" fill="#000"/><path d="M30.375 18.563h1.688v1.687h-1.688v-1.688z" fill="#118638"/><path d="M27 18.563h1.688v1.687H27v-1.688z" fill="#000"/><path d="M27 18.563h1.688v1.687H27v-1.688z" fill="#118638"/><path d="M27 15.188h5.063v1.687H27v-1.688z" fill="#000"/><path d="M27 15.188h5.063v1.687H27v-1.688z" fill="#118638"/><path d="M23.625 15.188h1.688v1.687h-1.688v-1.688z" fill="#000"/><path d="M23.625 15.188h1.688v1.687h-1.688v-1.688z" fill="#118638"/><path d="M18.563 15.188h3.375v1.687h-3.375v-1.688z" fill="#000"/><path d="M18.563 15.188h3.375v1.687h-3.375v-1.688z" fill="#118638"/><path d="M11.813 15.188h5.062v1.687h-5.063v-1.688z" fill="#000"/><path d="M11.813 15.188h5.062v1.687h-5.063v-1.688z" fill="#118638"/><path d="M35.438 21.938h3.374v1.687h-3.374v-1.688z" fill="#000"/><path d="M35.438 21.938h3.374v1.687h-3.374v-1.688z" fill="#118638"/><path d="M40.5 21.938h1.688v1.687H40.5v-1.688z" fill="#000"/><path d="M40.5 21.938h1.688v1.687H40.5v-1.688z" fill="#118638"/><path d="M15.188 10.125h3.374v1.688h-3.375v-1.688z" fill="#000"/><path d="M15.188 10.125h3.374v1.688h-3.375v-1.688z" fill="#118638"/><path d="M11.813 10.125H13.5v1.688h-1.688v-1.688z" fill="#000"/><path d="M11.813 10.125H13.5v1.688h-1.688v-1.688z" fill="#118638"/></svg>