<svg width="54" height="54" fill="none" xmlns="http://www.w3.org/2000/svg"><path d="M40.5 0H5.062a2.535 2.535 0 0 0-2.53 2.531V51.47A2.535 2.535 0 0 0 5.061 54H40.5a2.534 2.534 0 0 0 2.531-2.531V2.53A2.535 2.535 0 0 0 40.5 0zm.844 51.469a.845.845 0 0 1-.844.843H5.062a.845.845 0 0 1-.843-.843V2.53c0-.464.379-.844.843-.844H40.5c.465 0 .844.38.844.844v48.94z" fill="#000"/><path d="M40.5 0H5.062a2.535 2.535 0 0 0-2.53 2.531V51.47A2.535 2.535 0 0 0 5.061 54H40.5a2.534 2.534 0 0 0 2.531-2.531V2.53A2.535 2.535 0 0 0 40.5 0zm.844 51.469a.845.845 0 0 1-.844.843H5.062a.845.845 0 0 1-.843-.843V2.53c0-.464.379-.844.843-.844H40.5c.465 0 .844.38.844.844v48.94z" fill="#118638"/><path d="M38.813 4.219H6.75a.844.844 0 0 0-.844.843v38.813c0 .465.378.844.844.844h32.063a.844.844 0 0 0 .843-.844V5.062a.843.843 0 0 0-.843-.843zm-.844 38.812H7.594V5.906h30.375v37.125z" fill="#000"/><path d="M38.813 4.219H6.75a.844.844 0 0 0-.844.843v38.813c0 .465.378.844.844.844h32.063a.844.844 0 0 0 .843-.844V5.062a.843.843 0 0 0-.843-.843zm-.844 38.812H7.594V5.906h30.375v37.125z" fill="#118638"/><path d="M22.781 46.406a2.535 2.535 0 0 0-2.531 2.532 2.535 2.535 0 0 0 2.531 2.53 2.535 2.535 0 0 0 2.532-2.53 2.535 2.535 0 0 0-2.532-2.532zm0 3.375a.845.845 0 0 1-.843-.843c0-.465.379-.844.843-.844.465 0 .844.379.844.843a.845.845 0 0 1-.844.844z" fill="#000"/><path d="M22.781 46.406a2.535 2.535 0 0 0-2.531 2.532 2.535 2.535 0 0 0 2.531 2.53 2.535 2.535 0 0 0 2.532-2.53 2.535 2.535 0 0 0-2.532-2.532zm0 3.375a.845.845 0 0 1-.843-.843c0-.465.379-.844.843-.844.465 0 .844.379.844.843a.845.845 0 0 1-.844.844z" fill="#118638"/><path d="M51.469 15.188h-.844v-4.22c0-.041-.018-.078-.023-.118-.005-.029.005-.058-.002-.086l-1.688-6.75a.844.844 0 0 0-.818-.639h-.844a.844.844 0 0 0-.819.639l-1.687 6.75c-.008.028.003.057-.002.086-.005.04-.023.077-.023.119v37.968a1.69 1.69 0 0 0 1.687 1.688h2.532a1.69 1.69 0 0 0 1.687-1.688V22.782h.844v-7.593zm-2.532 28.687h-2.53V11.812h2.53v32.063zM47.672 6.01l1.029 4.115h-2.058l1.029-4.115zm-1.266 42.928v-3.376h2.532v3.376h-2.532z" fill="#000"/><path d="M51.469 15.188h-.844v-4.22c0-.041-.018-.078-.023-.118-.005-.029.005-.058-.002-.086l-1.688-6.75a.844.844 0 0 0-.818-.639h-.844a.844.844 0 0 0-.819.639l-1.687 6.75c-.008.028.003.057-.002.086-.005.04-.023.077-.023.119v37.968a1.69 1.69 0 0 0 1.687 1.688h2.532a1.69 1.69 0 0 0 1.687-1.688V22.782h.844v-7.593zm-2.532 28.687h-2.53V11.812h2.53v32.063zM47.672 6.01l1.029 4.115h-2.058l1.029-4.115zm-1.266 42.928v-3.376h2.532v3.376h-2.532z" fill="#118638"/><path d="M10.125 21.094h25.313a.844.844 0 0 0 .843-.844V8.437a.843.843 0 0 0-.843-.843H10.125a.844.844 0 0 0-.844.843V20.25c0 .465.378.844.844.844zm.844-11.813h23.625v10.125H10.969V9.281z" fill="#000"/><path d="M10.125 21.094h25.313a.844.844 0 0 0 .843-.844V8.437a.843.843 0 0 0-.843-.843H10.125a.844.844 0 0 0-.844.843V20.25c0 .465.378.844.844.844zm.844-11.813h23.625v10.125H10.969V9.281z" fill="#118638"/><path d="M10.125 34.594h10.969a.844.844 0 0 0 .843-.844V23.625a.844.844 0 0 0-.843-.844H10.125a.844.844 0 0 0-.844.844V33.75c0 .465.378.844.844.844zm.844-10.125h9.281v8.437h-9.281V24.47z" fill="#000"/><path d="M10.125 34.594h10.969a.844.844 0 0 0 .843-.844V23.625a.844.844 0 0 0-.843-.844H10.125a.844.844 0 0 0-.844.844V33.75c0 .465.378.844.844.844zm.844-10.125h9.281v8.437h-9.281V24.47z" fill="#118638"/><path d="M35.438 22.781h-10.97a.844.844 0 0 0-.843.844V33.75c0 .465.378.844.844.844h10.968a.844.844 0 0 0 .844-.844V23.625a.844.844 0 0 0-.843-.844zm-.844 10.125h-9.282V24.47h9.282v8.437z" fill="#000"/><path d="M35.438 22.781h-10.97a.844.844 0 0 0-.843.844V33.75c0 .465.378.844.844.844h10.968a.844.844 0 0 0 .844-.844V23.625a.844.844 0 0 0-.843-.844zm-.844 10.125h-9.282V24.47h9.282v8.437z" fill="#118638"/><path d="M9.281 36.281H13.5v1.688H9.281V36.28z" fill="#000"/><path d="M9.281 36.281H13.5v1.688H9.281V36.28z" fill="#118638"/><path d="M15.188 36.281h6.75v1.688h-6.75V36.28z" fill="#000"/><path d="M15.188 36.281h6.75v1.688h-6.75V36.28z" fill="#118638"/><path d="M17.719 39.656h4.218v1.688H17.72v-1.688z" fill="#000"/><path d="M17.719 39.656h4.218v1.688H17.72v-1.688z" fill="#118638"/><path d="M9.281 39.656h6.75v1.688h-6.75v-1.688z" fill="#000"/><path d="M9.281 39.656h6.75v1.688h-6.75v-1.688z" fill="#118638"/><path d="M23.625 36.281h4.219v1.688h-4.219V36.28z" fill="#000"/><path d="M23.625 36.281h4.219v1.688h-4.219V36.28z" fill="#118638"/><path d="M29.531 36.281h6.75v1.688h-6.75V36.28z" fill="#000"/><path d="M29.531 36.281h6.75v1.688h-6.75V36.28z" fill="#118638"/><path d="M32.063 39.656h4.218v1.688h-4.218v-1.688z" fill="#000"/><path d="M32.063 39.656h4.218v1.688h-4.218v-1.688z" fill="#118638"/><path d="M23.625 39.656h6.75v1.688h-6.75v-1.688z" fill="#000"/><path d="M23.625 39.656h6.75v1.688h-6.75v-1.688z" fill="#118638"/><path d="M18.81 11.216l-2.532 2.531a.843.843 0 0 0 0 1.193l2.532 2.532 1.193-1.194-1.935-1.934 1.935-1.935-1.193-1.193z" fill="#000"/><path d="M18.81 11.216l-2.532 2.531a.843.843 0 0 0 0 1.193l2.532 2.532 1.193-1.194-1.935-1.934 1.935-1.935-1.193-1.193z" fill="#118638"/><path d="M26.753 11.216l-1.193 1.193 1.934 1.935-1.934 1.934 1.193 1.194 2.531-2.532a.843.843 0 0 0 0-1.193l-2.531-2.531z" fill="#000"/><path d="M26.753 11.216l-1.193 1.193 1.934 1.935-1.934 1.934 1.193 1.194 2.531-2.532a.843.843 0 0 0 0-1.193l-2.531-2.531z" fill="#118638"/><path d="M21.137 16.609l1.688-5.063 1.601.534-1.688 5.063-1.601-.534z" fill="#000"/><path d="M21.137 16.609l1.688-5.063 1.601.534-1.688 5.063-1.601-.534z" fill="#118638"/></svg>