<svg width="54" height="54" fill="none" xmlns="http://www.w3.org/2000/svg"><path d="M7.841 16.278L5.31 18.81a.843.843 0 0 0 0 1.193l2.531 2.531 1.193-1.193L7.1 19.406l1.935-1.934-1.193-1.194z" fill="#000"/><path d="M7.841 16.278L5.31 18.81a.843.843 0 0 0 0 1.193l2.531 2.531 1.193-1.193L7.1 19.406l1.935-1.934-1.193-1.194z" fill="#118638"/><path d="M15.784 22.534l2.531-2.531a.843.843 0 0 0 0-1.193l-2.53-2.532-1.194 1.194 1.935 1.934-1.935 1.935 1.193 1.193z" fill="#000"/><path d="M15.784 22.534l2.531-2.531a.843.843 0 0 0 0-1.193l-2.53-2.532-1.194 1.194 1.935 1.934-1.935 1.935 1.193 1.193z" fill="#118638"/><path d="M10.168 21.67l1.688-5.063 1.6.533-1.687 5.063-1.6-.533z" fill="#000"/><path d="M10.168 21.67l1.688-5.063 1.6.533-1.687 5.063-1.6-.533z" fill="#118638"/><path d="M52.313 0H27a1.69 1.69 0 0 0-1.688 1.688v50.624A1.69 1.69 0 0 0 27 54h25.313A1.69 1.69 0 0 0 54 52.312V1.688A1.69 1.69 0 0 0 52.312 0zm0 52.313H27V1.687h25.313v50.626z" fill="#000"/><path d="M52.313 0H27a1.69 1.69 0 0 0-1.688 1.688v50.624A1.69 1.69 0 0 0 27 54h25.313A1.69 1.69 0 0 0 54 52.312V1.688A1.69 1.69 0 0 0 52.312 0zm0 52.313H27V1.687h25.313v50.626z" fill="#118638"/><path d="M29.531 42.188h3.375V40.5h-2.531V8.437h2.531V6.75h-3.375a.844.844 0 0 0-.843.844v33.75c0 .465.378.843.843.843z" fill="#000"/><path d="M29.531 42.188h3.375V40.5h-2.531V8.437h2.531V6.75h-3.375a.844.844 0 0 0-.843.844v33.75c0 .465.378.843.843.843z" fill="#118638"/><path d="M48.938 40.5h-2.532v1.688h3.375a.844.844 0 0 0 .844-.844V7.594a.844.844 0 0 0-.844-.844h-3.375v1.688h2.532V40.5z" fill="#000"/><path d="M48.938 40.5h-2.532v1.688h3.375a.844.844 0 0 0 .844-.844V7.594a.844.844 0 0 0-.844-.844h-3.375v1.688h2.532V40.5z" fill="#118638"/><path d="M34.594 6.75h10.125v1.688H34.594V6.75z" fill="#000"/><path d="M34.594 6.75h10.125v1.688H34.594V6.75z" fill="#118638"/><path d="M39.656 43.875a3.378 3.378 0 0 0-3.375 3.375 3.378 3.378 0 0 0 3.375 3.375 3.378 3.378 0 0 0 3.375-3.375 3.378 3.378 0 0 0-3.375-3.375zm0 5.063a1.69 1.69 0 0 1-1.687-1.688c0-.93.757-1.688 1.687-1.688s1.688.757 1.688 1.688a1.69 1.69 0 0 1-1.688 1.688z" fill="#000"/><path d="M39.656 43.875a3.378 3.378 0 0 0-3.375 3.375 3.378 3.378 0 0 0 3.375 3.375 3.378 3.378 0 0 0 3.375-3.375 3.378 3.378 0 0 0-3.375-3.375zm0 5.063a1.69 1.69 0 0 1-1.687-1.688c0-.93.757-1.688 1.687-1.688s1.688.757 1.688 1.688a1.69 1.69 0 0 1-1.688 1.688z" fill="#118638"/><path d="M35.438 3.375h8.437v1.688h-8.438V3.375z" fill="#000"/><path d="M35.438 3.375h8.437v1.688h-8.438V3.375z" fill="#118638"/><path d="M34.594 40.5h10.125v1.688H34.594V40.5z" fill="#000"/><path d="M34.594 40.5h10.125v1.688H34.594V40.5z" fill="#118638"/><path d="M0 5.906v42.188c0 .465.378.843.844.843h22.781V47.25H1.687V13.5h21.938v-1.688H1.687V6.75h21.938V5.062H.844A.844.844 0 0 0 0 5.907z" fill="#000"/><path d="M0 5.906v42.188c0 .465.378.843.844.843h22.781V47.25H1.687V13.5h21.938v-1.688H1.687V6.75h21.938V5.062H.844A.844.844 0 0 0 0 5.907z" fill="#118638"/><path d="M3.375 8.438h1.688v1.687H3.375V8.437z" fill="#000"/><path d="M3.375 8.438h1.688v1.687H3.375V8.437z" fill="#118638"/><path d="M6.75 8.438h1.688v1.687H6.75V8.437z" fill="#000"/><path d="M6.75 8.438h1.688v1.687H6.75V8.437z" fill="#118638"/><path d="M10.125 8.438h1.688v1.687h-1.688V8.437z" fill="#000"/><path d="M10.125 8.438h1.688v1.687h-1.688V8.437z" fill="#118638"/><path d="M5.063 25.313h6.75V27h-6.75v-1.688z" fill="#000"/><path d="M5.063 25.313h6.75V27h-6.75v-1.688z" fill="#118638"/><path d="M13.5 25.313h10.125V27H13.5v-1.688z" fill="#000"/><path d="M13.5 25.313h10.125V27H13.5v-1.688z" fill="#118638"/><path d="M18.563 28.688h5.062v1.687h-5.063v-1.688z" fill="#000"/><path d="M18.563 28.688h5.062v1.687h-5.063v-1.688z" fill="#118638"/><path d="M5.063 28.688h11.812v1.687H5.062v-1.688z" fill="#000"/><path d="M5.063 28.688h11.812v1.687H5.062v-1.688z" fill="#118638"/><path d="M5.063 32.063h6.75v1.687h-6.75v-1.688z" fill="#000"/><path d="M5.063 32.063h6.75v1.687h-6.75v-1.688z" fill="#118638"/><path d="M13.5 32.063h10.125v1.687H13.5v-1.688z" fill="#000"/><path d="M13.5 32.063h10.125v1.687H13.5v-1.688z" fill="#118638"/><path d="M18.563 35.438h5.062v1.687h-5.063v-1.688z" fill="#000"/><path d="M18.563 35.438h5.062v1.687h-5.063v-1.688z" fill="#118638"/><path d="M5.063 35.438h11.812v1.687H5.062v-1.688z" fill="#000"/><path d="M5.063 35.438h11.812v1.687H5.062v-1.688z" fill="#118638"/><path d="M5.063 42.188h6.75v1.687h-6.75v-1.688z" fill="#000"/><path d="M5.063 42.188h6.75v1.687h-6.75v-1.688z" fill="#118638"/><path d="M13.5 42.188h3.375v1.687H13.5v-1.688z" fill="#000"/><path d="M13.5 42.188h3.375v1.687H13.5v-1.688z" fill="#118638"/><path d="M32.063 37.969c0 .465.378.843.843.843h5.063a.844.844 0 0 0 .843-.843v-5.063a.844.844 0 0 0-.843-.843h-5.063a.844.844 0 0 0-.843.843v5.063zm1.687-4.219h3.375v3.375H33.75V33.75z" fill="#000"/><path d="M32.063 37.969c0 .465.378.843.843.843h5.063a.844.844 0 0 0 .843-.843v-5.063a.844.844 0 0 0-.843-.843h-5.063a.844.844 0 0 0-.843.843v5.063zm1.687-4.219h3.375v3.375H33.75V33.75z" fill="#118638"/><path d="M46.406 32.063h-5.062a.844.844 0 0 0-.844.843v5.063c0 .465.378.843.844.843h5.062a.844.844 0 0 0 .844-.843v-5.063a.844.844 0 0 0-.844-.843zm-.843 5.062h-3.376V33.75h3.376v3.375z" fill="#000"/><path d="M46.406 32.063h-5.062a.844.844 0 0 0-.844.843v5.063c0 .465.378.843.844.843h5.062a.844.844 0 0 0 .844-.843v-5.063a.844.844 0 0 0-.844-.843zm-.843 5.062h-3.376V33.75h3.376v3.375z" fill="#118638"/><path d="M32.063 10.969v10.125c0 .465.378.843.843.843h13.5a.844.844 0 0 0 .844-.843V10.969a.844.844 0 0 0-.844-.844h-13.5a.844.844 0 0 0-.843.844zm1.687.844h11.813v8.437H33.75v-8.438z" fill="#000"/><path d="M32.063 10.969v10.125c0 .465.378.843.843.843h13.5a.844.844 0 0 0 .844-.843V10.969a.844.844 0 0 0-.844-.844h-13.5a.844.844 0 0 0-.843.844zm1.687.844h11.813v8.437H33.75v-8.438z" fill="#118638"/><path d="M47.25 24.469a.844.844 0 0 0-.844-.844h-13.5a.844.844 0 0 0-.843.844v5.062c0 .466.378.844.843.844h13.5a.844.844 0 0 0 .844-.844V24.47zm-1.688 4.218H33.75v-3.375h11.813v3.375z" fill="#000"/><path d="M47.25 24.469a.844.844 0 0 0-.844-.844h-13.5a.844.844 0 0 0-.843.844v5.062c0 .466.378.844.843.844h13.5a.844.844 0 0 0 .844-.844V24.47zm-1.688 4.218H33.75v-3.375h11.813v3.375z" fill="#118638"/></svg>