<svg width="182" height="58" viewBox="0 0 182 58" fill="none" xmlns="http://www.w3.org/2000/svg">
<path d="M26.2668 20.1707H28.3427C28.4805 20.1707 28.6126 20.2253 28.7101 20.3224C28.8075 20.4194 28.8622 20.5511 28.8622 20.6884V22.7537C28.8622 22.8216 28.8488 22.8889 28.8226 22.9517C28.7965 23.0144 28.7583 23.0715 28.71 23.1195C28.6618 23.1675 28.6045 23.2055 28.5415 23.2314C28.4784 23.2573 28.4109 23.2706 28.3427 23.2705H26.118C24.1931 23.2705 22.8028 24.0364 21.9471 25.5682C21.9039 25.6462 21.8813 25.734 21.8817 25.8232V38.4009C21.8815 38.5381 21.8267 38.6697 21.7293 38.7667C21.632 38.8637 21.5 38.9184 21.3623 38.9186H18.9726C18.8349 38.9184 18.7029 38.8637 18.6055 38.7667C18.5082 38.6697 18.4534 38.5381 18.4531 38.4009V20.6903C18.4531 20.553 18.5079 20.4213 18.6053 20.3242C18.7027 20.2272 18.8348 20.1726 18.9726 20.1726H21.0438C21.1752 20.1728 21.3017 20.2226 21.3977 20.312C21.4938 20.4014 21.5522 20.5238 21.5613 20.6544L21.5727 20.8103C21.5785 20.8997 21.6073 20.986 21.6563 21.061C21.7054 21.136 21.7731 21.1971 21.8528 21.2383C21.9325 21.2796 22.0216 21.2996 22.1114 21.2965C22.2011 21.2933 22.2886 21.2671 22.3652 21.2203C23.4622 20.5212 24.7628 20.1713 26.2668 20.1707Z" fill="white"/>
<path d="M35.3573 16.6467C34.9149 17.0876 34.3503 17.3081 33.6634 17.3081C32.9765 17.3081 32.415 17.0876 31.9789 16.6467C31.7635 16.4315 31.5942 16.1749 31.4813 15.8924C31.3684 15.61 31.3142 15.3077 31.322 15.0038C31.322 14.3273 31.541 13.7677 31.9789 13.3249C32.4169 12.8822 32.9784 12.6617 33.6634 12.6636C34.3503 12.6611 34.9149 12.8724 35.3573 13.2975C35.7997 13.7227 36.0208 14.2914 36.0208 15.0038C36.0287 15.3083 35.9738 15.6111 35.8597 15.8937C35.7456 16.1763 35.5746 16.4325 35.3573 16.6467ZM31.9505 38.4009V20.6903C31.9504 20.6224 31.9637 20.5551 31.9897 20.4923C32.0157 20.4294 32.0539 20.3724 32.102 20.3243C32.1502 20.2762 32.2074 20.238 32.2704 20.212C32.3333 20.186 32.4008 20.1726 32.469 20.1726H34.8559C34.9241 20.1726 34.9916 20.186 35.0546 20.212C35.1177 20.238 35.1749 20.2761 35.2232 20.3242C35.2714 20.3723 35.3097 20.4294 35.3358 20.4922C35.3619 20.555 35.3753 20.6223 35.3753 20.6903V38.4009C35.3753 38.4688 35.3619 38.5362 35.3358 38.599C35.3097 38.6618 35.2714 38.7189 35.2232 38.7669C35.1749 38.815 35.1177 38.8532 35.0546 38.8792C34.9916 38.9052 34.9241 38.9186 34.8559 38.9186H32.469C32.3314 38.9183 32.1995 38.8637 32.1023 38.7666C32.0051 38.6695 31.9505 38.538 31.9505 38.4009Z" fill="white"/>
<path d="M54.2353 20.8424V23.2043C54.2351 23.3238 54.1936 23.4396 54.1178 23.5322L44.5818 35.1273C44.5195 35.2031 44.4802 35.2949 44.4682 35.392C44.4562 35.4892 44.4722 35.5878 44.5142 35.6763C44.5561 35.7649 44.6224 35.8397 44.7054 35.8922C44.7883 35.9447 44.8845 35.9726 44.9827 35.9728H53.7159C53.8536 35.9728 53.9858 36.0274 54.0832 36.1245C54.1806 36.2216 54.2353 36.3533 54.2353 36.4906V38.5549C54.2353 38.6229 54.2219 38.6902 54.1958 38.753C54.1697 38.8158 54.1314 38.8729 54.0832 38.921C54.0349 38.969 53.9777 39.0072 53.9147 39.0332C53.8516 39.0592 53.7841 39.0726 53.7159 39.0726H40.2763C40.2082 39.0726 40.1406 39.0592 40.0777 39.0332C40.0147 39.0071 39.9575 38.969 39.9093 38.9209C39.8612 38.8728 39.823 38.8157 39.797 38.7529C39.771 38.6901 39.7577 38.6228 39.7578 38.5549V36.159C39.7576 36.0386 39.7995 35.922 39.8763 35.8292L49.4815 24.2351C49.5456 24.1595 49.5865 24.0672 49.5995 23.9691C49.6125 23.871 49.5969 23.7713 49.5547 23.6817C49.5125 23.5922 49.4454 23.5166 49.3613 23.464C49.2773 23.4113 49.1798 23.3839 49.0806 23.3848H40.2763C40.1387 23.3845 40.0068 23.3299 39.9096 23.2328C39.8124 23.1358 39.7578 23.0042 39.7578 22.8671V20.8424C39.7578 20.7053 39.8124 20.5737 39.9096 20.4767C40.0068 20.3796 40.1387 20.325 40.2763 20.3247H53.7159C53.8536 20.3247 53.9858 20.3793 54.0832 20.4763C54.1806 20.5734 54.2353 20.7051 54.2353 20.8424Z" fill="white"/>
<path d="M71.1883 20.1707H73.2737C73.4114 20.1707 73.5436 20.2252 73.641 20.3223C73.7384 20.4194 73.7931 20.5511 73.7931 20.6884V44.8224C73.7929 44.9597 73.7381 45.0912 73.6407 45.1882C73.5433 45.2853 73.4114 45.3399 73.2737 45.3402H70.9039C70.7661 45.3402 70.634 45.2856 70.5366 45.1885C70.4392 45.0914 70.3844 44.9597 70.3844 44.8224V38.5577C70.3848 38.4642 70.3597 38.3724 70.3119 38.292C70.2641 38.2115 70.1952 38.1456 70.1127 38.1011C70.0302 38.0566 69.9372 38.0352 69.8435 38.0392C69.7498 38.0433 69.6589 38.0726 69.5806 38.124C68.3799 38.9517 66.9321 39.3702 65.2372 39.3796C63.0406 39.3796 61.2819 38.7032 59.9611 37.3503C58.6404 35.9974 57.98 34.2023 57.98 31.9651V27.127C57.98 24.8892 58.6372 23.0963 59.9517 21.7485C61.2661 20.4006 63.0374 19.727 65.2657 19.7276C67.1027 19.7276 68.6276 20.1883 69.8403 21.1098C69.9142 21.1644 70.0013 21.1984 70.0927 21.2082C70.1842 21.2181 70.2766 21.2036 70.3605 21.166C70.4444 21.1285 70.5167 21.0694 70.5701 20.9947C70.6234 20.9201 70.6559 20.8326 70.6641 20.7413L70.6735 20.6402C70.6857 20.5123 70.7451 20.3935 70.8402 20.3068C70.9353 20.22 71.0593 20.1715 71.1883 20.1707ZM65.9046 36.1504C67.8977 36.1504 69.3657 35.3871 70.3086 33.8603C70.3586 33.7776 70.3848 33.6829 70.3844 33.5863V25.5398C70.3854 25.4435 70.3591 25.3489 70.3086 25.2668C69.8706 24.5655 69.255 23.9916 68.5237 23.603C67.7218 23.1628 66.82 22.9351 65.9046 22.9417C64.5339 22.9417 63.4476 23.3322 62.6456 24.1132C61.8437 24.8942 61.4424 25.9492 61.4418 27.2782V31.813C61.4418 33.1546 61.8431 34.2127 62.6456 34.9874C63.4482 35.7621 64.5345 36.1498 65.9046 36.1504Z" fill="white"/>
<path d="M82.3446 16.6467C81.9022 17.0876 81.3376 17.3081 80.6506 17.3081C79.9637 17.3081 79.4022 17.0876 78.9662 16.6467C78.7506 16.4315 78.5812 16.175 78.4681 15.8925C78.355 15.6101 78.3007 15.3078 78.3083 15.0038C78.3083 14.3273 78.5276 13.7677 78.9662 13.325C79.4048 12.8822 79.9662 12.6617 80.6506 12.6636C81.3357 12.6636 81.9003 12.8759 82.3446 13.3004C82.7888 13.7249 83.01 14.2936 83.0081 15.0066C83.0155 15.3107 82.9605 15.613 82.8464 15.895C82.7323 16.1771 82.5615 16.4329 82.3446 16.6467ZM78.9377 38.4009V20.6903C78.9377 20.6223 78.9512 20.555 78.9773 20.4922C79.0034 20.4294 79.0417 20.3723 79.0899 20.3242C79.1381 20.2762 79.1954 20.238 79.2584 20.212C79.3214 20.186 79.389 20.1726 79.4572 20.1726H81.8441C81.9818 20.1726 82.114 20.2271 82.2114 20.3242C82.3088 20.4213 82.3635 20.553 82.3635 20.6903V38.4009C82.3633 38.5381 82.3085 38.6696 82.2111 38.7667C82.1137 38.8637 81.9818 38.9184 81.8441 38.9186H79.4572C79.3195 38.9184 79.1875 38.8637 79.0902 38.7667C78.9928 38.6696 78.938 38.5381 78.9377 38.4009Z" fill="white"/>
<path d="M107.114 19.7276C109.312 19.7276 111.037 20.3704 112.289 21.6559C113.542 22.9414 114.168 24.7295 114.17 27.0202V38.4047C114.17 38.4727 114.156 38.54 114.13 38.6028C114.104 38.6656 114.066 38.7227 114.018 38.7708C113.969 38.8188 113.912 38.857 113.849 38.883C113.786 38.909 113.718 38.9224 113.65 38.9224H111.263C111.126 38.9221 110.994 38.8675 110.897 38.7704C110.8 38.6734 110.745 38.5418 110.745 38.4047V27.2753C110.745 25.9344 110.375 24.8763 109.634 24.1009C108.893 23.3256 107.9 22.9382 106.653 22.9389C104.874 22.9389 103.489 23.6367 102.497 25.0325C102.42 25.1445 102.39 25.2822 102.414 25.416C102.493 25.9458 102.53 26.4809 102.525 27.0165V38.4009C102.525 38.5382 102.47 38.6699 102.372 38.767C102.275 38.8641 102.143 38.9186 102.005 38.9186H99.6354C99.4976 38.9186 99.3655 38.8641 99.2681 38.767C99.1706 38.6699 99.1159 38.5382 99.1159 38.4009V27.2753C99.1159 25.9344 98.7427 24.8763 97.9964 24.1009C97.2501 23.3256 96.2595 22.9382 95.0247 22.9389C93.2951 22.9389 91.9456 23.5939 90.9762 24.904C90.9128 24.9938 90.8796 25.1013 90.8814 25.211V38.4009C90.8814 38.5382 90.8266 38.6699 90.7292 38.767C90.6318 38.8641 90.4997 38.9186 90.3619 38.9186H87.9921C87.8543 38.9186 87.7222 38.8641 87.6248 38.767C87.5274 38.6699 87.4727 38.5382 87.4727 38.4009V20.6903C87.4727 20.553 87.5274 20.4213 87.6248 20.3242C87.7222 20.2271 87.8543 20.1726 87.9921 20.1726H90.0643C90.1953 20.1725 90.3215 20.2218 90.4175 20.3107C90.5135 20.3995 90.5722 20.5213 90.5818 20.6516C90.589 20.7437 90.6208 20.8323 90.6739 20.9081C90.727 20.9839 90.7994 21.0441 90.8837 21.0827C90.968 21.1212 91.061 21.1366 91.1533 21.1272C91.2456 21.1179 91.3336 21.0841 91.4084 21.0295C92.6217 20.1641 94.0809 19.7314 95.7859 19.7314C97.9528 19.7314 99.6297 20.4242 100.816 21.8099C100.864 21.8663 100.923 21.9122 100.989 21.9445C101.055 21.9768 101.128 21.9948 101.202 21.9973C101.275 21.9998 101.349 21.9867 101.417 21.959C101.486 21.9312 101.547 21.8894 101.598 21.8363C102.962 20.4311 104.8 19.7282 107.114 19.7276Z" fill="white"/>
<path d="M122.002 39.3797C121.347 39.3797 120.81 39.1705 120.39 38.7523C119.971 38.3341 119.761 37.7959 119.761 37.1377C119.761 36.4802 119.971 35.9448 120.39 35.5317C120.81 35.1185 121.347 34.9122 122.002 34.9128C122.656 34.9128 123.193 35.1191 123.613 35.5317C124.033 35.9442 124.243 36.4796 124.243 37.1377C124.243 37.7966 124.039 38.3347 123.631 38.7523C123.224 39.1699 122.68 39.379 122.002 39.3797Z" fill="white"/>
<path d="M141.664 20.1707H144.05C144.188 20.1707 144.32 20.2252 144.417 20.3223C144.515 20.4194 144.569 20.5511 144.569 20.6884V38.4008C144.569 38.5382 144.515 38.6698 144.417 38.7669C144.32 38.864 144.188 38.9186 144.05 38.9186H141.965C141.836 38.9187 141.711 38.8708 141.615 38.7843C141.52 38.6979 141.46 38.579 141.448 38.4509L141.428 38.2506C141.419 38.1586 141.386 38.0706 141.332 37.9958C141.277 37.9209 141.204 37.8621 141.119 37.8253C141.034 37.7885 140.94 37.7752 140.848 37.7867C140.756 37.7982 140.669 37.8341 140.596 37.8907C139.347 38.8833 137.826 39.3796 136.032 39.3796C133.908 39.3796 132.227 38.7246 130.987 37.4145C129.747 36.1044 129.127 34.3116 129.126 32.036V20.6903C129.126 20.553 129.181 20.4213 129.278 20.3242C129.376 20.2271 129.508 20.1726 129.645 20.1726H132.05C132.188 20.1726 132.32 20.2271 132.418 20.3242C132.515 20.4213 132.57 20.553 132.57 20.6903V31.7771C132.57 33.1187 132.937 34.1828 133.671 34.9695C134.406 35.7561 135.408 36.1498 136.68 36.1504C138.676 36.1504 140.139 35.3738 141.069 33.8206C141.117 33.7397 141.142 33.6473 141.142 33.5533V20.6903C141.142 20.6219 141.155 20.5542 141.181 20.4909C141.207 20.4277 141.246 20.3703 141.294 20.322C141.343 20.2737 141.4 20.2354 141.464 20.2095C141.527 20.1835 141.595 20.1703 141.664 20.1707Z" fill="white"/>
<path d="M163.547 20.6903V23.0522C163.547 23.1722 163.505 23.2885 163.428 23.381L153.892 34.977C153.83 35.0529 153.791 35.1448 153.779 35.242C153.767 35.3393 153.783 35.4379 153.825 35.5265C153.867 35.6151 153.933 35.6899 154.017 35.7423C154.1 35.7947 154.196 35.8226 154.294 35.8226H163.027C163.165 35.8226 163.297 35.877 163.394 35.9739C163.492 36.0708 163.547 36.2022 163.547 36.3394V38.4046C163.547 38.5419 163.492 38.6734 163.394 38.7704C163.297 38.8675 163.165 38.9221 163.027 38.9223H149.588C149.52 38.9223 149.452 38.909 149.389 38.8829C149.326 38.8569 149.269 38.8188 149.221 38.7707C149.172 38.7226 149.134 38.6656 149.108 38.6027C149.082 38.5399 149.068 38.4726 149.068 38.4046V36.004C149.068 35.8838 149.11 35.7674 149.188 35.6752L158.79 24.0811C158.854 24.0054 158.894 23.9132 158.907 23.8154C158.92 23.7175 158.904 23.6181 158.862 23.5287C158.82 23.4394 158.754 23.3638 158.67 23.3111C158.586 23.2583 158.489 23.2304 158.39 23.2308H149.588C149.45 23.2308 149.318 23.1762 149.221 23.0791C149.123 22.982 149.068 22.8504 149.068 22.713V20.6903C149.068 20.553 149.123 20.4213 149.221 20.3242C149.318 20.2271 149.45 20.1726 149.588 20.1726H163.027C163.165 20.1726 163.297 20.2271 163.395 20.3242C163.492 20.4213 163.547 20.553 163.547 20.6903Z" fill="white"/>
<path d="M44.883 37.1056H43.5484C43.4688 37.1056 43.4043 37.1699 43.4043 37.2492V40.8941C43.4043 40.9734 43.4688 41.0377 43.5484 41.0377H44.883C44.9626 41.0377 45.0271 40.9734 45.0271 40.8941V37.2492C45.0271 37.1699 44.9626 37.1056 44.883 37.1056Z" fill="white"/>
<path d="M50.4455 37.1056H49.1109C49.0313 37.1056 48.9668 37.1699 48.9668 37.2492V40.8941C48.9668 40.9734 49.0313 41.0377 49.1109 41.0377H50.4455C50.5251 41.0377 50.5896 40.9734 50.5896 40.8941V37.2492C50.5896 37.1699 50.5251 37.1056 50.4455 37.1056Z" fill="white"/>
<path d="M44.883 18.3407H43.5484C43.4688 18.3407 43.4043 18.405 43.4043 18.4843V21.8873C43.4043 21.9667 43.4688 22.0309 43.5484 22.0309H44.883C44.9626 22.0309 45.0271 21.9667 45.0271 21.8873V18.4843C45.0271 18.405 44.9626 18.3407 44.883 18.3407Z" fill="white"/>
<path d="M50.4455 18.3407H49.1109C49.0313 18.3407 48.9668 18.405 48.9668 18.4843V21.8873C48.9668 21.9667 49.0313 22.0309 49.1109 22.0309H50.4455C50.5251 22.0309 50.5896 21.9667 50.5896 21.8873V18.4843C50.5896 18.405 50.5251 18.3407 50.4455 18.3407Z" fill="white"/>
</svg>
