<svg width="512" height="512" xmlns="http://www.w3.org/2000/svg" xml:space="preserve" version="1.1">

 <g>
  <title>Layer 1</title>
  <g id="svg_1">
   <path id="svg_2" data-original="#000000" fill="#219653" d="m350.657,20.343a8,8 0 0 0 -5.657,-2.343l-224,0a56.064,56.064 0 0 0 -56,56l0,368a56.064,56.064 0 0 0 56,56l272,0a56.064,56.064 0 0 0 56,-56l0,-320a8,8 0 0 0 -2.343,-5.657l-96,-96zm2.343,24.97l68.687,68.687l-28.687,0a40.045,40.045 0 0 1 -40,-40l0,-28.687zm-232,-11.313l216,0l0,40a56.064,56.064 0 0 0 56,56l40,0l0,224l-352,0l0,-280a40.045,40.045 0 0 1 40,-40zm272,448l-272,0a40.045,40.045 0 0 1 -40,-40l0,-72l352,0l0,72a40.045,40.045 0 0 1 -40,40z" xmlns="http://www.w3.org/2000/svg"/>
  </g>
  <text transform="matrix(1.1778 0 0 1.15832 -35.2359 -63.6308)" stroke="#000" font-style="normal" font-weight="bold" xml:space="preserve" text-anchor="start" font-family="'Montserrat'" font-size="70" id="svg_11" y="448.11465" x="131.34484" stroke-width="0" fill="#219653">REACT</text>
  <g stroke="null">
   <g stroke="null">
    <g stroke="null" xmlns="http://www.w3.org/2000/svg">
     <g stroke="null">
      <path stroke="null" data-original="#000000" fill="#219653" d="m382.37303,217.72102c0,-18.40941 -21.94986,-31.78283 -52.04785,-39.62766c10.30543,-28.17746 12.10069,-52.56613 -1.21007,-62.99446c-3.64509,-2.856 -8.14317,-4.30234 -13.35044,-4.30234c-15.54741,0 -37.01125,13.17952 -59.1099,35.0895c-22.34165,-23.393 -44.00883,-37.52103 -59.45705,-37.52103c-4.72621,0 -8.82755,1.29437 -12.20484,3.84643c-10.46412,7.93392 -12.00151,25.88218 -4.43857,51.90584c1.48283,5.10412 3.35249,10.42833 5.45027,15.86259c-26.60664,8.01776 -45.37759,20.72565 -45.37759,37.74113c0,16.76394 18.22543,29.3513 44.2072,37.38478c-11.02452,29.12072 -13.32564,54.52603 0.34219,65.2321c3.65004,2.856 8.14317,4.2971 13.35044,4.2971c15.53749,0 36.96662,-13.15332 59.04046,-35.02138c21.14645,21.32306 41.42999,34.02571 56.0996,34.02571c4.72621,0 8.82755,-1.29437 12.20484,-3.84643c12.91898,-9.79425 11.21794,-33.71653 1.2795,-61.67913c31.7048,-7.67714 55.2218,-21.33354 55.2218,-40.39275zm-66.61332,-96.43849c3.03013,0 5.53954,0.75461 7.43895,2.24812c7.87537,6.16267 7.00253,25.91362 -2.74249,52.27267c-13.42482,-2.82456 -28.0498,-4.63249 -42.83347,-5.39234c-4.65182,-6.02642 -9.34828,-11.68078 -14.04474,-16.96831c21.47873,-21.18157 40.70593,-32.16014 52.18175,-32.16014zm-96.00709,121.76518c2.32095,3.41148 4.67166,6.73387 7.04221,9.99862c-10.28559,-1.20004 -19.74793,-2.92413 -28.27793,-4.99407c3.02021,-6.9068 6.5314,-14.12279 10.64266,-21.61652c3.35249,5.54431 6.85871,11.10434 10.59306,16.61197zm-19.98598,-55.91472c7.77618,-1.84985 16.30122,-3.38528 25.5156,-4.50672c-1.5721,2.13807 -3.1442,4.27614 -4.6915,6.48233c-3.93768,5.61767 -7.71667,11.41352 -11.32704,17.28797c-3.51614,-6.52426 -6.68514,-12.96467 -9.49706,-19.26359zm15.12586,29.28842c4.11622,-6.88584 8.6639,-13.93938 13.66783,-21.07152c3.47151,-4.95215 6.9579,-9.60035 10.43933,-14.07039c7.19098,-0.52404 14.68945,-0.8175 22.49042,-0.8175c3.8137,0 7.53814,0.07861 11.20802,0.20961c3.44175,4.58008 6.89839,9.34358 10.3451,14.41625c5.83214,8.5942 10.97493,17.01023 15.58708,25.20617c-3.92281,6.48758 -8.20268,13.1114 -12.91402,19.81383c-3.60541,5.13556 -7.2257,9.96718 -10.84103,14.58394c-4.36914,0.18341 -8.81268,0.30394 -13.38515,0.30394c-7.31497,0 -14.33734,-0.28298 -21.12166,-0.74413c-4.18069,-5.43426 -8.3713,-11.15674 -12.55695,-17.31942c-4.61711,-6.802 -8.92674,-13.67212 -12.91898,-20.5108zm78.79832,29.92774c3.61533,-5.167 7.0918,-10.49122 10.43437,-15.87307c3.56574,6.9068 6.68514,13.56207 9.33836,19.91864c-7.79106,1.46206 -16.21195,2.62018 -25.16349,3.40624c1.80519,-2.44725 3.61037,-4.91022 5.39076,-7.4518zm-2.58875,-57.37155c-1.75559,-2.57302 -3.5211,-5.08316 -5.28661,-7.56185c11.07908,0.87514 21.3845,2.31624 30.71294,4.21326c-3.34257,7.81863 -7.32985,16.05125 -12.09077,24.62449c-4.19061,-7.22647 -8.65398,-14.37433 -13.33556,-21.27589zm-26.71575,-18.97013c-0.9621,-0.01048 -1.92917,-0.0262 -2.89127,-0.0262c-4.51296,0 -9.05072,0.11005 -13.57856,0.31442c2.88135,-3.38004 5.73295,-6.51902 8.56967,-9.54795c2.60859,2.93985 5.24198,6.01594 7.90016,9.25973zm-73.62081,-49.26994c1.65145,-1.24721 3.8137,-1.88129 6.42229,-1.88129c11.31216,0 30.65343,11.72794 52.36029,34.37681c-5.19735,5.56527 -10.39469,11.54977 -15.52757,17.96922c-13.40499,1.20004 -26.44795,3.26475 -38.34035,6.16791c-2.20193,-5.60719 -4.12614,-11.07814 -5.64864,-16.30802c-5.93628,-20.41123 -5.65856,-35.48253 0.73398,-40.32463zm-40.22984,96.98348c0,-10.01434 14.74896,-20.66801 39.45619,-28.02025c3.79882,8.69901 8.27211,17.64432 13.3306,26.69967c-5.51474,9.6842 -10.43437,19.447 -14.55059,28.97923c-23.97821,-7.32079 -38.2362,-17.80153 -38.2362,-27.65866zm47.98619,96.44897c-3.03509,0 -5.5445,-0.75461 -7.44391,-2.24288c-8.0539,-6.3094 -6.94302,-26.8464 3.44175,-54.11728c12.60654,3.15994 26.54713,5.35042 40.86959,6.56094c5.01881,6.36181 10.06738,12.33583 15.11099,17.83297c-21.38946,21.0558 -40.53732,31.96624 -51.97842,31.96624zm50.62949,-48.94503c4.11622,0.16245 8.2374,0.25154 12.33874,0.25154c1.5473,0 3.08964,-0.01572 4.63695,-0.04192c-2.8516,3.33287 -5.6784,6.44041 -8.48536,9.44314c-2.802,-3.03941 -5.63376,-6.26748 -8.49032,-9.65276zm70.94278,46.06807c-8.43081,6.39849 -30.05832,-3.68398 -55.3805,-29.03688c5.02377,-5.37138 10.03266,-11.14626 15.00188,-17.3299c12.92889,-0.76509 25.70901,-2.311 37.62125,-4.64821c9.42267,26.03939 10.31038,45.28202 2.75737,51.01498zm3.29298,-63.00494c-3.71947,-9.09204 -8.22252,-18.4723 -13.24133,-27.83683c6.25864,-10.86328 11.83785,-21.87854 16.32106,-32.5322c28.62012,7.31555 45.98263,18.93869 45.98263,29.80721c0.00496,11.25631 -18.62217,23.30392 -49.06235,30.56182z"/>
      <circle stroke="null" data-original="#000000" fill="#219653" r="13.2345" cy="217.72626" cx="261.49505"/>
     </g>
    </g>
    <g stroke="null" xmlns="http://www.w3.org/2000/svg"/>
    <g stroke="null" xmlns="http://www.w3.org/2000/svg"/>
    <g stroke="null" xmlns="http://www.w3.org/2000/svg"/>
    <g stroke="null" xmlns="http://www.w3.org/2000/svg"/>
    <g stroke="null" xmlns="http://www.w3.org/2000/svg"/>
    <g stroke="null" xmlns="http://www.w3.org/2000/svg"/>
    <g stroke="null" xmlns="http://www.w3.org/2000/svg"/>
    <g stroke="null" xmlns="http://www.w3.org/2000/svg"/>
    <g stroke="null" xmlns="http://www.w3.org/2000/svg"/>
    <g stroke="null" xmlns="http://www.w3.org/2000/svg"/>
    <g stroke="null" xmlns="http://www.w3.org/2000/svg"/>
    <g stroke="null" xmlns="http://www.w3.org/2000/svg"/>
    <g stroke="null" xmlns="http://www.w3.org/2000/svg"/>
    <g stroke="null" xmlns="http://www.w3.org/2000/svg"/>
    <g stroke="null" xmlns="http://www.w3.org/2000/svg"/>
   </g>
  </g>
 </g>
</svg>